999
FreeCAD v1.0 Unknown
  0
SECTION
  2
HEADER
  9
$ACADVER
  1
AC1014
  9
$ACADMAINTVER
 70
     9
  9
$DWGCODEPAGE
  3
ANSI_1252
  9
$TEXTSTYLE
  7
STANDARD
  9
$DIMSTYLE
  2
STANDARD
  9
$DIMTXSTY
  7
STANDARD
  9
$CMLSTYLE
  2
STANDARD
  9
$LUNITS
 70
2
  9
$INSUNITS
 70
4
  9
$PEXTMAX
 10
50
 20
50
 30
50
  9
$PEXTMIN
 10
0
 20
0
 30
0
  9
$HANDSEED
  5
FFFF
  0
ENDSEC
  0
SECTION
  2
CLASSES
  0
CLASS
  1
ACDBDICTIONARYWDFLT
  2
AcDbDictionaryWithDefault
  3
ObjectDBX Classes
 90
        0
280
     0
281
     0
  0
CLASS
  1
XRECORD
  2
AcDbXrecord
  3
ObjectDBX Classes
 90
        0
280
     0
281
     0
  0
CLASS
  1
LWPOLYLINE
  2
AcDbPolyline
  3
ObjectDBX Classes
 90
        0
280
     0
281
     1
  0
ENDSEC
  0
SECTION
  2
TABLES
  0
TABLE
  2
VPORT
  5
20
330
0
100
AcDbSymbolTable
 70
     1
  0
VPORT
  5
21
330
20
100
AcDbSymbolTableRecord
100
AcDbViewportTableRecord
  2
*ACTIVE
 70
     0
  0
ENDTAB
  0
TABLE
  2
LTYPE
  5
22
330
0
100
AcDbSymbolTable
 70
     1
  0
LTYPE
  5
23
330
21
100
AcDbSymbolTableRecord
100
AcDbLinetypeTableRecord
  2
BYBLOCK
 70
     0
  3

 72
    65
 73
     0
 40
0.0
  0
LTYPE
  5
24
330
21
100
AcDbSymbolTableRecord
100
AcDbLinetypeTableRecord
  2
BYLAYER
 70
     0
  3

 72
    65
 73
     0
 40
0.0
  0
LTYPE
  5
25
330
21
100
AcDbSymbolTableRecord
100
AcDbLinetypeTableRecord
  2
CONTINUOUS
 70
     0
  3
Solid line
 72
    65
 73
     0
 40
0.0
  0
ENDTAB
  0
TABLE
  2
LAYER
  5
C90
330
0
100
AcDbSymbolTable
 70
2
  0
LAYER
  5
C91
330
C90
100
AcDbSymbolTableRecord
100
AcDbLayerTableRecord
  2
0
 70
   0
 62
   7
  6
CONTINUOUS
  0
LAYER
  5
C92
330
C90
100
AcDbSymbolTableRecord
100
AcDbLayerTableRecord
  2
View
 70
    0
 62
    7
  6
CONTINUOUS
  0
ENDTAB
  0
TABLE
  2
STYLE
  5
70
330
0
100
AcDbSymbolTable
 70
     2
  0
STYLE
  5
71
330
70
100
AcDbSymbolTableRecord
100
AcDbTextStyleTableRecord
  2
STANDARD
 70
     0
 40
0.0
 41
1.0
 50
0.0
 71
     0
 42
2.5
  3
arial.ttf
  4

  0
STYLE
  5
72
330
70
100
AcDbSymbolTableRecord
100
AcDbTextStyleTableRecord
  2
ANNOTATIVE
 70
     0
 40
0.0
 41
1.0
 50
0.0
 71
     0
 42
2.5
  3
arial.ttf
  4

  0
ENDTAB
  0
TABLE
  2
VIEW
  5
73
330
0
100
AcDbSymbolTable
 70
     0
  0
ENDTAB
  0
TABLE
  2
UCS
  5
74
330
0
100
AcDbSymbolTable
 70
     0
  0
ENDTAB
  0
TABLE
  2
APPID
  5
75
330
0
100
AcDbSymbolTable
 70
     2
  0
APPID
  5
76
330
75
100
AcDbSymbolTableRecord
100
AcDbRegAppTableRecord
  2
ACAD
 70
     0
  0
APPID
  5
77
330
75
100
AcDbSymbolTableRecord
100
AcDbRegAppTableRecord
  2
ACADANNOTATIVE
 70
     0
  0
ENDTAB
  0
TABLE
  2
DIMSTYLE
  5
78
330
0
100
AcDbSymbolTable
 70
     2
  0
DIMSTYLE
105
79
330
78
100
AcDbSymbolTableRecord
100
AcDbDimStyleTableRecord
  2
STANDARD
 70
     0
  3

  4

  5

  6

  7

 40
0.0
 41
2.5
 42
0.625
 43
3.75
 44
1.25
 45
0.0
 46
0.0
 47
0.0
 48
0.0
140
2.5
141
2.5
142
0.0
143
0.03937007874016
144
1.0
145
0.0
146
1.0
147
0.625
 71
     0
 72
     0
 73
     0
 74
     0
 75
     0
 76
     0
 77
     1
 78
     8
170
     0
171
     3
172
     1
173
     0
174
     0
175
     0
176
     0
177
     0
178
     0
270
     2
271
     2
272
     2
273
     2
274
     3
340
71
275
     0
280
     0
281
     0
282
     0
283
     0
284
     8
285
     0
286
     0
287
     3
288
     0
  0
ENDTAB
  0
TABLE
  2
BLOCK_RECORD
  5
A01
330
0
100
AcDbSymbolTable
  70
5
  0
BLOCK_RECORD
  5
A02
330
A01
100
AcDbSymbolTableRecord
100
AcDbBlockTableRecord
  2
*MODEL_SPACE
  0
BLOCK_RECORD
  5
A03
330
A01
100
AcDbSymbolTableRecord
100
AcDbBlockTableRecord
  2
*PAPER_SPACE
  0
ENDTAB
  0
ENDSEC
  0
SECTION
  2
BLOCKS
  0
BLOCK
  5
A04
330
A02
100
AcDbEntity
  8
0
100
AcDbBlockBegin
  2
*MODEL_SPACE
 70
   0
 10
0
 20
0
 30
0
  3
*MODEL_SPACE
  1
 
  0
ENDBLK
  5
A05
330
A02
100
AcDbEntity
  8
0
100
AcDbBlockEnd
  0
BLOCK
  5
A06
330
A03
100
AcDbEntity
 67
1
  8
0
100
AcDbBlockBegin
  2
*PAPER_SPACE
 70
   0
 10
0
 20
0
 30
0
  3
*PAPER_SPACE
  1
 
  0
ENDBLK
  5
A07
330
A03
100
AcDbEntity
 67
    1
  8
0
100
AcDbBlockEnd
  0
ENDSEC
  0
SECTION
  2
ENTITIES
  0
LINE
  5
A08
330
A02
100
AcDbEntity
  8
View
100
AcDbLine
 10
113.672259358
 20
66.614877412
 30
0.000000000
 11
113.672259358
 21
188.387794118
 31
0.000000000
  0
ARC
  5
A09
330
A02
100
AcDbEntity
  8
View
100
AcDbCircle
 10
111.662259358
 20
64.387794118
 30
0.000000000
 40
3.000000000
100
AcDbArc
 50
47.932935198
 51
-137.416289444
  0
SPLINE
  5
A0A
330
A02
100
AcDbEntity
  8
View
100
AcDbSpline
210
0
220
0
230
1
 70
8
 71
2
 72
6
 73
3
 74
0
 40
2.227083294
 40
2.227083294
 40
2.227083294
 40
2.875152170
 40
2.875152170
 40
2.875152170
 10
113.672259358
 20
66.614877412
 30
0.000000000
 10
113.528124941
 20
66.938911850
 30
0.000000000
 10
113.342259358
 20
67.262946288
 30
0.000000000
  0
LINE
  5
A0B
330
A02
100
AcDbEntity
  8
View
100
AcDbLine
 10
113.342259358
 20
67.262946288
 30
0.000000000
 11
113.342259358
 21
188.387794118
 31
0.000000000
  0
LINE
  5
A0C
330
A02
100
AcDbEntity
  8
View
100
AcDbLine
 10
31.372259358
 20
60.357794118
 30
0.000000000
 11
115.672259358
 21
60.357794118
 31
0.000000000
  0
LINE
  5
A0D
330
A02
100
AcDbEntity
  8
View
100
AcDbLine
 10
31.372259358
 20
192.887794118
 30
0.000000000
 11
31.372259358
 21
60.357794118
 31
0.000000000
  0
LINE
  5
A0E
330
A02
100
AcDbEntity
  8
View
100
AcDbLine
 10
115.672259358
 20
60.357794118
 30
0.000000000
 11
115.672259358
 21
192.887794118
 31
0.000000000
  0
LINE
  5
A0F
330
A02
100
AcDbEntity
  8
View
100
AcDbLine
 10
115.672259358
 20
192.887794118
 30
0.000000000
 11
31.372259358
 21
192.887794118
 31
0.000000000
  0
CIRCLE
  5
A10
330
A02
100
AcDbEntity
  8
View
100
AcDbCircle
 10
111.662259358
 20
64.387794118
 30
0.000000000
 40
1.350000000
  0
LINE
  5
A11
330
A02
100
AcDbEntity
  8
View
100
AcDbLine
 10
82.672259358
 20
181.857794118
 30
0.000000000
 11
82.672259358
 21
70.857794118
 31
0.000000000
  0
ARC
  5
A12
330
A02
100
AcDbEntity
  8
View
100
AcDbCircle
 10
85.172259358
 20
181.857794118
 30
0.000000000
 40
2.500000000
100
AcDbArc
 50
90.000000000
 51
180.000000000
  0
ARC
  5
A13
330
A02
100
AcDbEntity
  8
View
100
AcDbCircle
 10
85.172259358
 20
70.857794118
 30
0.000000000
 40
2.500000000
100
AcDbArc
 50
-180.000000000
 51
-90.000000000
  0
LINE
  5
A14
330
A02
100
AcDbEntity
  8
View
100
AcDbLine
 10
105.172259358
 20
184.357794118
 30
0.000000000
 11
85.172259358
 21
184.357794118
 31
0.000000000
  0
LINE
  5
A15
330
A02
100
AcDbEntity
  8
View
100
AcDbLine
 10
85.172259358
 20
68.357794118
 30
0.000000000
 11
105.172259358
 21
68.357794118
 31
0.000000000
  0
ARC
  5
A16
330
A02
100
AcDbEntity
  8
View
100
AcDbCircle
 10
105.172259358
 20
181.857794118
 30
0.000000000
 40
2.500000000
100
AcDbArc
 50
0.000000000
 51
90.000000000
  0
ARC
  5
A17
330
A02
100
AcDbEntity
  8
View
100
AcDbCircle
 10
105.172259358
 20
70.857794118
 30
0.000000000
 40
2.500000000
100
AcDbArc
 50
-90.000000000
 51
0.000000000
  0
LINE
  5
A18
330
A02
100
AcDbEntity
  8
View
100
AcDbLine
 10
107.672259358
 20
70.857794118
 30
0.000000000
 11
107.672259358
 21
181.857794118
 31
0.000000000
  0
CIRCLE
  5
A19
330
A02
100
AcDbEntity
  8
View
100
AcDbCircle
 10
35.322259358
 20
64.355275118
 30
0.000000000
 40
1.350000000
  0
CIRCLE
  5
A1A
330
A02
100
AcDbEntity
  8
View
100
AcDbCircle
 10
35.322259358
 20
189.637794118
 30
0.000000000
 40
1.375000000
  0
ARC
  5
A1B
330
A02
100
AcDbEntity
  8
View
100
AcDbCircle
 10
111.172259358
 20
188.387794118
 30
0.000000000
 40
2.500000000
100
AcDbArc
 50
0.000000000
 51
90.000000000
  0
ARC
  5
A1C
330
A02
100
AcDbEntity
  8
View
100
AcDbCircle
 10
111.662259358
 20
64.387794118
 30
0.000000000
 40
3.330000000
100
AcDbArc
 50
59.701534208
 51
-149.302159425
  0
SPLINE
  5
A1D
330
A02
100
AcDbEntity
  8
View
100
AcDbSpline
210
0
220
0
230
1
 70
8
 71
2
 72
6
 73
3
 74
0
 40
2.208868489
 40
2.208868489
 40
2.208868489
 40
2.863372138
 40
2.863372138
 40
2.863372138
 10
109.453390870
 20
62.357794118
 30
0.000000000
 10
109.126139045
 20
62.501596743
 30
0.000000000
 10
108.798887220
 20
62.687794118
 30
0.000000000
  0
LINE
  5
A1E
330
A02
100
AcDbEntity
  8
View
100
AcDbLine
 10
59.318686992
 20
62.357794118
 30
0.000000000
 11
109.453390870
 21
62.357794118
 31
0.000000000
  0
LINE
  5
A1F
330
A02
100
AcDbEntity
  8
View
100
AcDbLine
 10
80.342259358
 20
70.009743991
 30
0.000000000
 11
60.225355096
 21
62.687794118
 31
0.000000000
  0
LINE
  5
A20
330
A02
100
AcDbEntity
  8
View
100
AcDbLine
 10
60.225355096
 20
62.687794118
 30
0.000000000
 11
108.798887220
 21
62.687794118
 31
0.000000000
  0
LINE
  5
A21
330
A02
100
AcDbEntity
  8
View
100
AcDbLine
 10
80.342259358
 20
68.857794118
 30
0.000000000
 11
80.342259358
 21
70.009743991
 31
0.000000000
  0
ARC
  5
A22
330
A02
100
AcDbEntity
  8
View
100
AcDbCircle
 10
83.172259358
 20
68.857794118
 30
0.000000000
 40
2.830000000
100
AcDbArc
 50
180.000000000
 51
-90.000000000
  0
LINE
  5
A23
330
A02
100
AcDbEntity
  8
View
100
AcDbLine
 10
107.172259358
 20
66.027794118
 30
0.000000000
 11
83.172259358
 21
66.027794118
 31
0.000000000
  0
ARC
  5
A24
330
A02
100
AcDbEntity
  8
View
100
AcDbCircle
 10
111.172259358
 20
188.387794118
 30
0.000000000
 40
2.170000000
100
AcDbArc
 50
0.000000000
 51
90.000000000
  0
ARC
  5
A25
330
A02
100
AcDbEntity
  8
View
100
AcDbCircle
 10
107.172259358
 20
68.857794118
 30
0.000000000
 40
2.830000000
100
AcDbArc
 50
-90.000000000
 51
0.000000000
  0
LINE
  5
A26
330
A02
100
AcDbEntity
  8
View
100
AcDbLine
 10
111.172259358
 20
190.557794118
 30
0.000000000
 11
38.522649959
 21
190.557794118
 31
0.000000000
  0
LINE
  5
A27
330
A02
100
AcDbEntity
  8
View
100
AcDbLine
 10
110.002259358
 20
183.857794118
 30
0.000000000
 11
110.002259358
 21
68.857794118
 31
0.000000000
  0
ARC
  5
A28
330
A02
100
AcDbEntity
  8
View
100
AcDbCircle
 10
35.322259358
 20
189.637794118
 30
0.000000000
 40
3.330000000
100
AcDbArc
 50
-119.109908940
 51
16.038086338
  0
ARC
  5
A29
330
A02
100
AcDbEntity
  8
View
100
AcDbCircle
 10
107.172259358
 20
183.857794118
 30
0.000000000
 40
2.830000000
100
AcDbArc
 50
0.000000000
 51
90.000000000
  0
LINE
  5
A2A
330
A02
100
AcDbEntity
  8
View
100
AcDbLine
 10
33.702259358
 20
118.034182224
 30
0.000000000
 11
33.702259358
 21
186.728412740
 31
0.000000000
  0
LINE
  5
A2B
330
A02
100
AcDbEntity
  8
View
100
AcDbLine
 10
83.172259358
 20
186.687794118
 30
0.000000000
 11
107.172259358
 21
186.687794118
 31
0.000000000
  0
LINE
  5
A2C
330
A02
100
AcDbEntity
  8
View
100
AcDbLine
 10
80.342259358
 20
135.009743970
 30
0.000000000
 11
33.702259358
 21
118.034182224
 31
0.000000000
  0
ARC
  5
A2D
330
A02
100
AcDbEntity
  8
View
100
AcDbCircle
 10
83.172259358
 20
183.857794118
 30
0.000000000
 40
2.830000000
100
AcDbArc
 50
90.000000000
 51
180.000000000
  0
LINE
  5
A2E
330
A02
100
AcDbEntity
  8
View
100
AcDbLine
 10
80.342259358
 20
135.009743970
 30
0.000000000
 11
80.342259358
 21
183.857794118
 31
0.000000000
  0
LINE
  5
A2F
330
A02
100
AcDbEntity
  8
View
100
AcDbLine
 10
35.802676960
 20
119.909857778
 30
0.000000000
 11
35.522259358
 21
119.807794118
 31
0.000000000
  0
LINE
  5
A30
330
A02
100
AcDbEntity
  8
View
100
AcDbLine
 10
35.886465189
 20
120.236899446
 30
0.000000000
 11
35.802676960
 21
119.909857778
 31
0.000000000
  0
LINE
  5
A31
330
A02
100
AcDbEntity
  8
View
100
AcDbLine
 10
35.943686763
 20
120.460808642
 30
0.000000000
 11
35.886465189
 21
120.236899446
 31
0.000000000
  0
LINE
  5
A32
330
A02
100
AcDbEntity
  8
View
100
AcDbLine
 10
35.957876384
 20
120.465973242
 30
0.000000000
 11
35.943686763
 21
120.460808642
 31
0.000000000
  0
LINE
  5
A33
330
A02
100
AcDbEntity
  8
View
100
AcDbLine
 10
36.148014430
 20
120.332095585
 30
0.000000000
 11
35.957876384
 21
120.465973242
 31
0.000000000
  0
LINE
  5
A34
330
A02
100
AcDbEntity
  8
View
100
AcDbLine
 10
36.424719289
 20
120.136262670
 30
0.000000000
 11
36.148014430
 21
120.332095585
 31
0.000000000
  0
LINE
  5
A35
330
A02
100
AcDbEntity
  8
View
100
AcDbLine
 10
36.726306272
 20
120.246031355
 30
0.000000000
 11
36.424719289
 21
120.136262670
 31
0.000000000
  0
LINE
  5
A36
330
A02
100
AcDbEntity
  8
View
100
AcDbLine
 10
36.040832159
 20
120.707240181
 30
0.000000000
 11
36.726306272
 21
120.246031355
 31
0.000000000
  0
LINE
  5
A37
330
A02
100
AcDbEntity
  8
View
100
AcDbLine
 10
36.262042138
 20
121.455719158
 30
0.000000000
 11
36.040832159
 21
120.707240181
 31
0.000000000
  0
LINE
  5
A38
330
A02
100
AcDbEntity
  8
View
100
AcDbLine
 10
35.984002256
 20
121.354520918
 30
0.000000000
 11
36.262042138
 21
121.455719158
 31
0.000000000
  0
LINE
  5
A39
330
A02
100
AcDbEntity
  8
View
100
AcDbLine
 10
35.907943603
 20
121.064950333
 30
0.000000000
 11
35.984002256
 21
121.354520918
 31
0.000000000
  0
LINE
  5
A3A
330
A02
100
AcDbEntity
  8
View
100
AcDbLine
 10
35.850047232
 20
120.835496978
 30
0.000000000
 11
35.907943603
 21
121.064950333
 31
0.000000000
  0
LINE
  5
A3B
330
A02
100
AcDbEntity
  8
View
100
AcDbLine
 10
35.835857610
 20
120.830332378
 30
0.000000000
 11
35.850047232
 21
120.835496978
 31
0.000000000
  0
LINE
  5
A3C
330
A02
100
AcDbEntity
  8
View
100
AcDbLine
 10
35.641715623
 20
120.968051273
 30
0.000000000
 11
35.835857610
 21
120.830332378
 31
0.000000000
  0
LINE
  5
A3D
330
A02
100
AcDbEntity
  8
View
100
AcDbLine
 10
35.397318931
 20
121.140985650
 30
0.000000000
 11
35.641715623
 21
120.968051273
 31
0.000000000
  0
LINE
  5
A3E
330
A02
100
AcDbEntity
  8
View
100
AcDbLine
 10
35.098032967
 20
121.032054468
 30
0.000000000
 11
35.397318931
 21
121.140985650
 31
0.000000000
  0
LINE
  5
A3F
330
A02
100
AcDbEntity
  8
View
100
AcDbLine
 10
35.749735397
 20
120.590605657
 30
0.000000000
 11
35.098032967
 21
121.032054468
 31
0.000000000
  0
LINE
  5
A40
330
A02
100
AcDbEntity
  8
View
100
AcDbLine
 10
35.522259358
 20
119.807794118
 30
0.000000000
 11
35.749735397
 21
120.590605657
 31
0.000000000
  0
LINE
  5
A41
330
A02
100
AcDbEntity
  8
View
100
AcDbLine
 10
38.147109243
 20
120.763161345
 30
0.000000000
 11
37.989259290
 21
120.705708661
 31
0.000000000
  0
LINE
  5
A42
330
A02
100
AcDbEntity
  8
View
100
AcDbLine
 10
38.073855675
 20
120.964423869
 30
0.000000000
 11
38.147109243
 21
120.763161345
 31
0.000000000
  0
LINE
  5
A43
330
A02
100
AcDbEntity
  8
View
100
AcDbLine
 10
37.920761163
 20
120.908702024
 30
0.000000000
 11
38.073855675
 21
120.964423869
 31
0.000000000
  0
LINE
  5
A44
330
A02
100
AcDbEntity
  8
View
100
AcDbLine
 10
37.698822952
 20
121.518472247
 30
0.000000000
 11
37.920761163
 21
120.908702024
 31
0.000000000
  0
SPLINE
  5
A45
330
A02
100
AcDbEntity
  8
View
100
AcDbSpline
210
0
220
0
230
1
 70
8
 71
2
 72
6
 73
3
 74
0
 40
0.000000000
 40
0.000000000
 40
0.000000000
 40
1.000000000
 40
1.000000000
 40
1.000000000
 10
37.450268665
 20
121.790652753
 30
0.000000000
 10
37.622554375
 20
121.728018442
 30
0.000000000
 10
37.698822952
 20
121.518472247
 30
0.000000000
  0
SPLINE
  5
A46
330
A02
100
AcDbEntity
  8
View
100
AcDbSpline
210
0
220
0
230
1
 70
8
 71
2
 72
6
 73
3
 74
0
 40
0.000000000
 40
0.000000000
 40
0.000000000
 40
1.000000000
 40
1.000000000
 40
1.000000000
 10
37.047113977
 20
121.769257628
 30
0.000000000
 10
37.278059656
 20
121.853314980
 30
0.000000000
 10
37.450268665
 20
121.790652753
 30
0.000000000
  0
SPLINE
  5
A47
330
A02
100
AcDbEntity
  8
View
100
AcDbSpline
210
0
220
0
230
1
 70
8
 71
2
 72
6
 73
3
 74
0
 40
0.000000000
 40
0.000000000
 40
0.000000000
 40
1.000000000
 40
1.000000000
 40
1.000000000
 10
36.757711657
 20
121.582100241
 30
0.000000000
 10
36.853905022
 20
121.698935319
 30
0.000000000
 10
37.047113977
 20
121.769257628
 30
0.000000000
  0
SPLINE
  5
A48
330
A02
100
AcDbEntity
  8
View
100
AcDbSpline
210
0
220
0
230
1
 70
8
 71
2
 72
6
 73
3
 74
0
 40
0.000000000
 40
0.000000000
 40
0.000000000
 40
1.000000000
 40
1.000000000
 40
1.000000000
 10
36.645765014
 20
121.347219486
 30
0.000000000
 10
36.661490376
 20
121.465341863
 30
0.000000000
 10
36.757711657
 20
121.582100241
 30
0.000000000
  0
LINE
  5
A49
330
A02
100
AcDbEntity
  8
View
100
AcDbLine
 10
36.844384705
 20
121.278100578
 30
0.000000000
 11
36.645765014
 21
121.347219486
 31
0.000000000
  0
SPLINE
  5
A4A
330
A02
100
AcDbEntity
  8
View
100
AcDbSpline
210
0
220
0
230
1
 70
8
 71
2
 72
6
 73
3
 74
0
 40
0.000000000
 40
0.000000000
 40
0.000000000
 40
1.000000000
 40
1.000000000
 40
1.000000000
 10
36.922711346
 20
121.444024077
 30
0.000000000
 10
36.866414457
 20
121.371503632
 30
0.000000000
 10
36.844384705
 20
121.278100578
 30
0.000000000
  0
SPLINE
  5
A4B
330
A02
100
AcDbEntity
  8
View
100
AcDbSpline
210
0
220
0
230
1
 70
8
 71
2
 72
6
 73
3
 74
0
 40
0.000000000
 40
0.000000000
 40
0.000000000
 40
1.000000000
 40
1.000000000
 40
1.000000000
 10
37.096820444
 20
121.559424660
 30
0.000000000
 10
36.979008234
 20
121.516544522
 30
0.000000000
 10
36.922711346
 20
121.444024077
 30
0.000000000
  0
SPLINE
  5
A4C
330
A02
100
AcDbEntity
  8
View
100
AcDbSpline
210
0
220
0
230
1
 70
8
 71
2
 72
6
 73
3
 74
0
 40
0.000000000
 40
0.000000000
 40
0.000000000
 40
1.000000000
 40
1.000000000
 40
1.000000000
 10
37.447647470
 20
121.409332097
 30
0.000000000
 10
37.358369684
 20
121.654620798
 30
0.000000000
 10
37.096820444
 20
121.559424660
 30
0.000000000
  0
LINE
  5
A4D
330
A02
100
AcDbEntity
  8
View
100
AcDbLine
 10
37.481650079
 20
121.315910697
 30
0.000000000
 11
37.447647470
 21
121.409332097
 31
0.000000000
  0
LINE
  5
A4E
330
A02
100
AcDbEntity
  8
View
100
AcDbLine
 10
37.248403381
 20
121.231015841
 30
0.000000000
 11
37.481650079
 21
121.315910697
 31
0.000000000
  0
SPLINE
  5
A4F
330
A02
100
AcDbEntity
  8
View
100
AcDbSpline
210
0
220
0
230
1
 70
8
 71
2
 72
6
 73
3
 74
0
 40
0.000000000
 40
0.000000000
 40
0.000000000
 40
1.000000000
 40
1.000000000
 40
1.000000000
 10
36.880564198
 20
120.991596575
 30
0.000000000
 10
36.977419960
 20
121.132385942
 30
0.000000000
 10
37.248403381
 20
121.231015841
 30
0.000000000
  0
SPLINE
  5
A50
330
A02
100
AcDbEntity
  8
View
100
AcDbSpline
210
0
220
0
230
1
 70
8
 71
2
 72
6
 73
3
 74
0
 40
0.000000000
 40
0.000000000
 40
0.000000000
 40
1.000000000
 40
1.000000000
 40
1.000000000
 10
36.848112393
 20
120.673858791
 30
0.000000000
 10
36.783708437
 20
120.850807207
 30
0.000000000
 10
36.880564198
 20
120.991596575
 30
0.000000000
  0
SPLINE
  5
A51
330
A02
100
AcDbEntity
  8
View
100
AcDbSpline
210
0
220
0
230
1
 70
8
 71
2
 72
6
 73
3
 74
0
 40
0.000000000
 40
0.000000000
 40
0.000000000
 40
1.000000000
 40
1.000000000
 40
1.000000000
 10
37.057218874
 20
120.443954173
 30
0.000000000
 10
36.910813427
 20
120.501589116
 30
0.000000000
 10
36.848112393
 20
120.673858791
 30
0.000000000
  0
SPLINE
  5
A52
330
A02
100
AcDbEntity
  8
View
100
AcDbSpline
210
0
220
0
230
1
 70
8
 71
2
 72
6
 73
3
 74
0
 40
0.000000000
 40
0.000000000
 40
0.000000000
 40
1.000000000
 40
1.000000000
 40
1.000000000
 10
37.389748898
 20
120.454149897
 30
0.000000000
 10
37.203596403
 20
120.386395930
 30
0.000000000
 10
37.057218874
 20
120.443954173
 30
0.000000000
  0
SPLINE
  5
A53
330
A02
100
AcDbEntity
  8
View
100
AcDbSpline
210
0
220
0
230
1
 70
8
 71
2
 72
6
 73
3
 74
0
 40
0.000000000
 40
0.000000000
 40
0.000000000
 40
1.000000000
 40
1.000000000
 40
1.000000000
 10
37.604469589
 20
120.600922442
 30
0.000000000
 10
37.533485929
 20
120.506465898
 30
0.000000000
 10
37.389748898
 20
120.454149897
 30
0.000000000
  0
SPLINE
  5
A54
330
A02
100
AcDbEntity
  8
View
100
AcDbSpline
210
0
220
0
230
1
 70
8
 71
2
 72
6
 73
3
 74
0
 40
0.000000000
 40
0.000000000
 40
0.000000000
 40
1.000000000
 40
1.000000000
 40
1.000000000
 10
37.670947123
 20
120.817777149
 30
0.000000000
 10
37.675529949
 20
120.695406903
 30
0.000000000
 10
37.604469589
 20
120.600922442
 30
0.000000000
  0
LINE
  5
A55
330
A02
100
AcDbEntity
  8
View
100
AcDbLine
 10
37.682759024
 20
120.822076330
 30
0.000000000
 11
37.670947123
 21
120.817777149
 31
0.000000000
  0
SPLINE
  5
A56
330
A02
100
AcDbEntity
  8
View
100
AcDbSpline
210
0
220
0
230
1
 70
8
 71
2
 72
6
 73
3
 74
0
 40
0.000000000
 40
0.000000000
 40
0.000000000
 40
1.000000000
 40
1.000000000
 40
1.000000000
 10
37.802913936
 20
120.700772243
 30
0.000000000
 10
37.727401031
 20
120.736175537
 30
0.000000000
 10
37.682759024
 20
120.822076330
 30
0.000000000
  0
SPLINE
  5
A57
330
A02
100
AcDbEntity
  8
View
100
AcDbSpline
210
0
220
0
230
1
 70
8
 71
2
 72
6
 73
3
 74
0
 40
0.000000000
 40
0.000000000
 40
0.000000000
 40
1.000000000
 40
1.000000000
 40
1.000000000
 10
37.989259290
 20
120.705708661
 30
0.000000000
 10
37.878503542
 20
120.665396865
 30
0.000000000
 10
37.802913936
 20
120.700772243
 30
0.000000000
  0
LINE
  5
A58
330
A02
100
AcDbEntity
  8
View
100
AcDbLine
 10
38.566585136
 20
120.915838084
 30
0.000000000
 11
38.347451359
 21
120.836079912
 31
0.000000000
  0
LINE
  5
A59
330
A02
100
AcDbEntity
  8
View
100
AcDbLine
 10
38.246017026
 20
121.796591729
 30
0.000000000
 11
38.566585136
 21
120.915838084
 31
0.000000000
  0
SPLINE
  5
A5A
330
A02
100
AcDbEntity
  8
View
100
AcDbSpline
210
0
220
0
230
1
 70
8
 71
2
 72
6
 73
3
 74
0
 40
0.000000000
 40
0.000000000
 40
0.000000000
 40
1.000000000
 40
1.000000000
 40
1.000000000
 10
38.242231384
 20
121.935147785
 30
0.000000000
 10
38.216034429
 20
121.878968234
 30
0.000000000
 10
38.246017026
 20
121.796591729
 30
0.000000000
  0
SPLINE
  5
A5B
330
A02
100
AcDbEntity
  8
View
100
AcDbSpline
210
0
220
0
230
1
 70
8
 71
2
 72
6
 73
3
 74
0
 40
0.000000000
 40
0.000000000
 40
0.000000000
 40
1.000000000
 40
1.000000000
 40
1.000000000
 10
38.332061968
 20
122.014574944
 30
0.000000000
 10
38.268477123
 20
121.991431953
 30
0.000000000
 10
38.242231384
 20
121.935147785
 30
0.000000000
  0
SPLINE
  5
A5C
330
A02
100
AcDbEntity
  8
View
100
AcDbSpline
210
0
220
0
230
1
 70
8
 71
2
 72
6
 73
3
 74
0
 40
0.000000000
 40
0.000000000
 40
0.000000000
 40
1.000000000
 40
1.000000000
 40
1.000000000
 10
38.447442862
 20
122.001847394
 30
0.000000000
 10
38.400402253
 20
122.039448774
 30
0.000000000
 10
38.332061968
 20
122.014574944
 30
0.000000000
  0
SPLINE
  5
A5D
330
A02
100
AcDbEntity
  8
View
100
AcDbSpline
210
0
220
0
230
1
 70
8
 71
2
 72
6
 73
3
 74
0
 40
0.000000000
 40
0.000000000
 40
0.000000000
 40
1.000000000
 40
1.000000000
 40
1.000000000
 10
38.540741535
 20
121.837153026
 30
0.000000000
 10
38.494455554
 20
121.964322715
 30
0.000000000
 10
38.447442862
 20
122.001847394
 30
0.000000000
  0
LINE
  5
A5E
330
A02
100
AcDbEntity
  8
View
100
AcDbLine
 10
38.839869577
 20
121.015305486
 30
0.000000000
 11
38.540741535
 21
121.837153026
 31
0.000000000
  0
LINE
  5
A5F
330
A02
100
AcDbEntity
  8
View
100
AcDbLine
 10
39.059003354
 20
121.095063658
 30
0.000000000
 11
38.839869577
 21
121.015305486
 31
0.000000000
  0
LINE
  5
A60
330
A02
100
AcDbEntity
  8
View
100
AcDbLine
 10
38.738435244
 20
121.975817303
 30
0.000000000
 11
39.059003354
 21
121.095063658
 31
0.000000000
  0
SPLINE
  5
A61
330
A02
100
AcDbEntity
  8
View
100
AcDbSpline
210
0
220
0
230
1
 70
8
 71
2
 72
6
 73
3
 74
0
 40
0.000000000
 40
0.000000000
 40
0.000000000
 40
1.000000000
 40
1.000000000
 40
1.000000000
 10
38.734649602
 20
122.114373359
 30
0.000000000
 10
38.708452647
 20
122.058193808
 30
0.000000000
 10
38.738435244
 20
121.975817303
 30
0.000000000
  0
SPLINE
  5
A62
330
A02
100
AcDbEntity
  8
View
100
AcDbSpline
210
0
220
0
230
1
 70
8
 71
2
 72
6
 73
3
 74
0
 40
0.000000000
 40
0.000000000
 40
0.000000000
 40
1.000000000
 40
1.000000000
 40
1.000000000
 10
38.822179166
 20
122.192963016
 30
0.000000000
 10
38.760895341
 20
122.170657527
 30
0.000000000
 10
38.734649602
 20
122.114373359
 30
0.000000000
  0
SPLINE
  5
A63
330
A02
100
AcDbEntity
  8
View
100
AcDbSpline
210
0
220
0
230
1
 70
8
 71
2
 72
6
 73
3
 74
0
 40
0.000000000
 40
0.000000000
 40
0.000000000
 40
1.000000000
 40
1.000000000
 40
1.000000000
 10
38.938710570
 20
122.180654217
 30
0.000000000
 10
38.890519451
 20
122.217836845
 30
0.000000000
 10
38.822179166
 20
122.192963016
 30
0.000000000
  0
SPLINE
  5
A64
330
A02
100
AcDbEntity
  8
View
100
AcDbSpline
210
0
220
0
230
1
 70
8
 71
2
 72
6
 73
3
 74
0
 40
0.000000000
 40
0.000000000
 40
0.000000000
 40
1.000000000
 40
1.000000000
 40
1.000000000
 10
39.033236454
 20
122.016406517
 30
0.000000000
 10
38.986950472
 20
122.143576206
 30
0.000000000
 10
38.938710570
 20
122.180654217
 30
0.000000000
  0
LINE
  5
A65
330
A02
100
AcDbEntity
  8
View
100
AcDbLine
 10
39.332364495
 20
121.194558977
 30
0.000000000
 11
39.033236454
 21
122.016406517
 31
0.000000000
  0
LINE
  5
A66
330
A02
100
AcDbEntity
  8
View
100
AcDbLine
 10
39.551498273
 20
121.274317149
 30
0.000000000
 11
39.332364495
 21
121.194558977
 31
0.000000000
  0
LINE
  5
A67
330
A02
100
AcDbEntity
  8
View
100
AcDbLine
 10
39.240728944
 20
122.128148863
 30
0.000000000
 11
39.551498273
 21
121.274317149
 31
0.000000000
  0
SPLINE
  5
A68
330
A02
100
AcDbEntity
  8
View
100
AcDbSpline
210
0
220
0
230
1
 70
8
 71
2
 72
6
 73
3
 74
0
 40
0.000000000
 40
0.000000000
 40
0.000000000
 40
1.000000000
 40
1.000000000
 40
1.000000000
 10
39.080049065
 20
122.397307843
 30
0.000000000
 10
39.171383721
 20
122.318673295
 30
0.000000000
 10
39.240728944
 20
122.128148863
 30
0.000000000
  0
SPLINE
  5
A69
330
A02
100
AcDbEntity
  8
View
100
AcDbSpline
210
0
220
0
230
1
 70
8
 71
2
 72
6
 73
3
 74
0
 40
0.000000000
 40
0.000000000
 40
0.000000000
 40
1.000000000
 40
1.000000000
 40
1.000000000
 10
38.847355098
 20
122.424491810
 30
0.000000000
 10
38.988714409
 20
122.475942392
 30
0.000000000
 10
39.080049065
 20
122.397307843
 30
0.000000000
  0
SPLINE
  5
A6A
330
A02
100
AcDbEntity
  8
View
100
AcDbSpline
210
0
220
0
230
1
 70
8
 71
2
 72
6
 73
3
 74
0
 40
0.000000000
 40
0.000000000
 40
0.000000000
 40
1.000000000
 40
1.000000000
 40
1.000000000
 10
38.699077480
 20
122.303987242
 30
0.000000000
 10
38.736599349
 20
122.384180014
 30
0.000000000
 10
38.847355098
 20
122.424491810
 30
0.000000000
  0
SPLINE
  5
A6B
330
A02
100
AcDbEntity
  8
View
100
AcDbSpline
210
0
220
0
230
1
 70
8
 71
2
 72
6
 73
3
 74
0
 40
0.000000000
 40
0.000000000
 40
0.000000000
 40
1.000000000
 40
1.000000000
 40
1.000000000
 10
38.659059426
 20
122.128033148
 30
0.000000000
 10
38.661527694
 20
122.223871171
 30
0.000000000
 10
38.699077480
 20
122.303987242
 30
0.000000000
  0
LINE
  5
A6C
330
A02
100
AcDbEntity
  8
View
100
AcDbLine
 10
38.649625245
 20
122.124599387
 30
0.000000000
 11
38.659059426
 21
122.128033148
 31
0.000000000
  0
SPLINE
  5
A6D
330
A02
100
AcDbEntity
  8
View
100
AcDbSpline
210
0
220
0
230
1
 70
8
 71
2
 72
6
 73
3
 74
0
 40
0.000000000
 40
0.000000000
 40
0.000000000
 40
1.000000000
 40
1.000000000
 40
1.000000000
 10
38.528807381
 20
122.247486271
 30
0.000000000
 10
38.601433014
 20
122.212856187
 30
0.000000000
 10
38.649625245
 20
122.124599387
 30
0.000000000
  0
SPLINE
  5
A6E
330
A02
100
AcDbEntity
  8
View
100
AcDbSpline
210
0
220
0
230
1
 70
8
 71
2
 72
6
 73
3
 74
0
 40
0.000000000
 40
0.000000000
 40
0.000000000
 40
1.000000000
 40
1.000000000
 40
1.000000000
 10
38.359615620
 20
122.246969158
 30
0.000000000
 10
38.456181747
 20
122.282116354
 30
0.000000000
 10
38.528807381
 20
122.247486271
 30
0.000000000
  0
SPLINE
  5
A6F
330
A02
100
AcDbEntity
  8
View
100
AcDbSpline
210
0
220
0
230
1
 70
8
 71
2
 72
6
 73
3
 74
0
 40
0.000000000
 40
0.000000000
 40
0.000000000
 40
1.000000000
 40
1.000000000
 40
1.000000000
 10
38.227359981
 20
122.137334082
 30
0.000000000
 10
38.260595072
 20
122.210928626
 30
0.000000000
 10
38.359615620
 20
122.246969158
 30
0.000000000
  0
SPLINE
  5
A70
330
A02
100
AcDbEntity
  8
View
100
AcDbSpline
210
0
220
0
230
1
 70
8
 71
2
 72
6
 73
3
 74
0
 40
0.000000000
 40
0.000000000
 40
0.000000000
 40
1.000000000
 40
1.000000000
 40
1.000000000
 10
38.194185772
 20
121.975510388
 30
0.000000000
 10
38.194124891
 20
122.063739539
 30
0.000000000
 10
38.227359981
 20
122.137334082
 30
0.000000000
  0
LINE
  5
A71
330
A02
100
AcDbEntity
  8
View
100
AcDbLine
 10
38.182450572
 20
121.971239125
 30
0.000000000
 11
38.194185772
 21
121.975510388
 31
0.000000000
  0
LINE
  5
A72
330
A02
100
AcDbEntity
  8
View
100
AcDbLine
 10
38.123490383
 20
122.133230912
 30
0.000000000
 11
38.182450572
 21
121.971239125
 31
0.000000000
  0
LINE
  5
A73
330
A02
100
AcDbEntity
  8
View
100
AcDbLine
 10
37.904356606
 20
122.053472740
 30
0.000000000
 11
38.123490383
 21
122.133230912
 31
0.000000000
  0
LINE
  5
A74
330
A02
100
AcDbEntity
  8
View
100
AcDbLine
 10
38.347451359
 20
120.836079912
 30
0.000000000
 11
37.904356606
 21
122.053472740
 31
0.000000000
  0
LINE
  5
A75
330
A02
100
AcDbEntity
  8
View
100
AcDbLine
 10
40.616486895
 20
121.661941308
 30
0.000000000
 11
40.541446655
 21
121.868112674
 31
0.000000000
  0
LINE
  5
A76
330
A02
100
AcDbEntity
  8
View
100
AcDbLine
 10
40.873357396
 20
121.755434524
 30
0.000000000
 11
40.616486895
 21
121.661941308
 31
0.000000000
  0
LINE
  5
A77
330
A02
100
AcDbEntity
  8
View
100
AcDbLine
 10
40.430262643
 20
122.972827352
 30
0.000000000
 11
40.873357396
 21
121.755434524
 31
0.000000000
  0
LINE
  5
A78
330
A02
100
AcDbEntity
  8
View
100
AcDbLine
 10
40.173392142
 20
122.879334136
 30
0.000000000
 11
40.430262643
 21
122.972827352
 31
0.000000000
  0
LINE
  5
A79
330
A02
100
AcDbEntity
  8
View
100
AcDbLine
 10
40.473943939
 20
122.053574862
 30
0.000000000
 11
40.173392142
 21
122.879334136
 31
0.000000000
  0
SPLINE
  5
A7A
330
A02
100
AcDbEntity
  8
View
100
AcDbSpline
210
0
220
0
230
1
 70
8
 71
2
 72
6
 73
3
 74
0
 40
0.000000000
 40
0.000000000
 40
0.000000000
 40
1.000000000
 40
1.000000000
 40
1.000000000
 10
40.485494122
 20
121.952155171
 30
0.000000000
 10
40.493709002
 20
121.999270797
 30
0.000000000
 10
40.473943939
 20
122.053574862
 30
0.000000000
  0
SPLINE
  5
A7B
330
A02
100
AcDbEntity
  8
View
100
AcDbSpline
210
0
220
0
230
1
 70
8
 71
2
 72
6
 73
3
 74
0
 40
0.000000000
 40
0.000000000
 40
0.000000000
 40
1.000000000
 40
1.000000000
 40
1.000000000
 10
40.448978383
 20
121.865379678
 30
0.000000000
 10
40.477251326
 20
121.905116245
 30
0.000000000
 10
40.485494122
 20
121.952155171
 30
0.000000000
  0
SPLINE
  5
A7C
330
A02
100
AcDbEntity
  8
View
100
AcDbSpline
210
0
220
0
230
1
 70
8
 71
2
 72
6
 73
3
 74
0
 40
0.000000000
 40
0.000000000
 40
0.000000000
 40
1.000000000
 40
1.000000000
 40
1.000000000
 10
40.378377952
 20
121.795644429
 30
0.000000000
 10
40.420754224
 20
121.825747729
 30
0.000000000
 10
40.448978383
 20
121.865379678
 30
0.000000000
  0
SPLINE
  5
A7D
330
A02
100
AcDbEntity
  8
View
100
AcDbSpline
210
0
220
0
230
1
 70
8
 71
2
 72
6
 73
3
 74
0
 40
0.000000000
 40
0.000000000
 40
0.000000000
 40
1.000000000
 40
1.000000000
 40
1.000000000
 10
40.286453056
 20
121.747506906
 30
0.000000000
 10
40.336001680
 20
121.765541130
 30
0.000000000
 10
40.378377952
 20
121.795644429
 30
0.000000000
  0
SPLINE
  5
A7E
330
A02
100
AcDbEntity
  8
View
100
AcDbSpline
210
0
220
0
230
1
 70
8
 71
2
 72
6
 73
3
 74
0
 40
0.000000000
 40
0.000000000
 40
0.000000000
 40
1.000000000
 40
1.000000000
 40
1.000000000
 10
39.928700991
 20
121.945979815
 30
0.000000000
 10
40.034337996
 20
121.655744528
 30
0.000000000
 10
40.286453056
 20
121.747506906
 30
0.000000000
  0
LINE
  5
A7F
330
A02
100
AcDbEntity
  8
View
100
AcDbLine
 10
39.657350122
 20
122.691510201
 30
0.000000000
 11
39.928700991
 21
121.945979815
 31
0.000000000
  0
LINE
  5
A80
330
A02
100
AcDbEntity
  8
View
100
AcDbLine
 10
39.400556322
 20
122.598044901
 30
0.000000000
 11
39.657350122
 21
122.691510201
 31
0.000000000
  0
LINE
  5
A81
330
A02
100
AcDbEntity
  8
View
100
AcDbLine
 10
39.685921403
 20
121.814010785
 30
0.000000000
 11
39.400556322
 21
122.598044901
 31
0.000000000
  0
SPLINE
  5
A82
330
A02
100
AcDbEntity
  8
View
100
AcDbSpline
210
0
220
0
230
1
 70
8
 71
2
 72
6
 73
3
 74
0
 40
0.000000000
 40
0.000000000
 40
0.000000000
 40
1.000000000
 40
1.000000000
 40
1.000000000
 10
39.923598571
 20
121.512768351
 30
0.000000000
 10
39.766712495
 20
121.592039084
 30
0.000000000
 10
39.685921403
 20
121.814010785
 30
0.000000000
  0
SPLINE
  5
A83
330
A02
100
AcDbEntity
  8
View
100
AcDbSpline
210
0
220
0
230
1
 70
8
 71
2
 72
6
 73
3
 74
0
 40
0.000000000
 40
0.000000000
 40
0.000000000
 40
1.000000000
 40
1.000000000
 40
1.000000000
 10
40.264336121
 20
121.500414082
 30
0.000000000
 10
40.080561347
 20
121.433525535
 30
0.000000000
 10
39.923598571
 20
121.512768351
 30
0.000000000
  0
SPLINE
  5
A84
330
A02
100
AcDbEntity
  8
View
100
AcDbSpline
210
0
220
0
230
1
 70
8
 71
2
 72
6
 73
3
 74
0
 40
0.000000000
 40
0.000000000
 40
0.000000000
 40
1.000000000
 40
1.000000000
 40
1.000000000
 10
40.389393729
 20
121.567299264
 30
0.000000000
 10
40.339732867
 20
121.527856253
 30
0.000000000
 10
40.264336121
 20
121.500414082
 30
0.000000000
  0
SPLINE
  5
A85
330
A02
100
AcDbEntity
  8
View
100
AcDbSpline
210
0
220
0
230
1
 70
8
 71
2
 72
6
 73
3
 74
0
 40
0.000000000
 40
0.000000000
 40
0.000000000
 40
1.000000000
 40
1.000000000
 40
1.000000000
 10
40.469989218
 20
121.653962230
 30
0.000000000
 10
40.439131292
 20
121.606770192
 30
0.000000000
 10
40.389393729
 20
121.567299264
 30
0.000000000
  0
SPLINE
  5
A86
330
A02
100
AcDbEntity
  8
View
100
AcDbSpline
210
0
220
0
230
1
 70
8
 71
2
 72
6
 73
3
 74
0
 40
0.000000000
 40
0.000000000
 40
0.000000000
 40
1.000000000
 40
1.000000000
 40
1.000000000
 10
40.514415563
 20
121.755516976
 30
0.000000000
 10
40.500819228
 20
121.701230969
 30
0.000000000
 10
40.469989218
 20
121.653962230
 30
0.000000000
  0
SPLINE
  5
A87
330
A02
100
AcDbEntity
  8
View
100
AcDbSpline
210
0
220
0
230
1
 70
8
 71
2
 72
6
 73
3
 74
0
 40
0.000000000
 40
0.000000000
 40
0.000000000
 40
1.000000000
 40
1.000000000
 40
1.000000000
 10
40.529634754
 20
121.863813493
 30
0.000000000
 10
40.527983981
 20
121.809879685
 30
0.000000000
 10
40.514415563
 20
121.755516976
 30
0.000000000
  0
LINE
  5
A88
330
A02
100
AcDbEntity
  8
View
100
AcDbLine
 10
40.541446655
 20
121.868112674
 30
0.000000000
 11
40.529634754
 21
121.863813493
 31
0.000000000
  0
SPLINE
  5
A89
330
A02
100
AcDbEntity
  8
View
100
AcDbSpline
210
0
220
0
230
1
 70
8
 71
2
 72
6
 73
3
 74
0
 40
0.000000000
 40
0.000000000
 40
0.000000000
 40
1.000000000
 40
1.000000000
 40
1.000000000
 10
42.102707928
 20
122.252305733
 30
0.000000000
 10
42.003293417
 20
122.133342777
 30
0.000000000
 10
41.814763202
 20
122.064723390
 30
0.000000000
  0
SPLINE
  5
A8A
330
A02
100
AcDbEntity
  8
View
100
AcDbSpline
210
0
220
0
230
1
 70
8
 71
2
 72
6
 73
3
 74
0
 40
0.000000000
 40
0.000000000
 40
0.000000000
 40
1.000000000
 40
1.000000000
 40
1.000000000
 10
42.224797390
 20
122.499651186
 30
0.000000000
 10
42.202199139
 20
122.371296606
 30
0.000000000
 10
42.102707928
 20
122.252305733
 30
0.000000000
  0
LINE
  5
A8B
330
A02
100
AcDbEntity
  8
View
100
AcDbLine
 10
42.013091219
 20
122.582769094
 30
0.000000000
 11
42.224797390
 21
122.499651186
 31
0.000000000
  0
SPLINE
  5
A8C
330
A02
100
AcDbEntity
  8
View
100
AcDbSpline
210
0
220
0
230
1
 70
8
 71
2
 72
6
 73
3
 74
0
 40
0.000000000
 40
0.000000000
 40
0.000000000
 40
1.000000000
 40
1.000000000
 40
1.000000000
 10
41.925940897
 20
122.400517948
 30
0.000000000
 10
41.991531256
 20
122.480677154
 30
0.000000000
 10
42.013091219
 20
122.582769094
 30
0.000000000
  0
SPLINE
  5
A8D
330
A02
100
AcDbEntity
  8
View
100
AcDbSpline
210
0
220
0
230
1
 70
8
 71
2
 72
6
 73
3
 74
0
 40
0.000000000
 40
0.000000000
 40
0.000000000
 40
1.000000000
 40
1.000000000
 40
1.000000000
 10
41.742615029
 20
122.277506520
 30
0.000000000
 10
41.860427239
 20
122.320386658
 30
0.000000000
 10
41.925940897
 20
122.400517948
 30
0.000000000
  0
SPLINE
  5
A8E
330
A02
100
AcDbEntity
  8
View
100
AcDbSpline
210
0
220
0
230
1
 70
8
 71
2
 72
6
 73
3
 74
0
 40
0.000000000
 40
0.000000000
 40
0.000000000
 40
1.000000000
 40
1.000000000
 40
1.000000000
 10
41.462795273
 20
122.276419827
 30
0.000000000
 10
41.584765077
 20
122.220053836
 30
0.000000000
 10
41.742615029
 20
122.277506520
 30
0.000000000
  0
SPLINE
  5
A8F
330
A02
100
AcDbEntity
  8
View
100
AcDbSpline
210
0
220
0
230
1
 70
8
 71
2
 72
6
 73
3
 74
0
 40
0.000000000
 40
0.000000000
 40
0.000000000
 40
1.000000000
 40
1.000000000
 40
1.000000000
 10
41.289535338
 20
122.473942944
 30
0.000000000
 10
41.340874252
 20
122.332890436
 30
0.000000000
 10
41.462795273
 20
122.276419827
 30
0.000000000
  0
LINE
  5
A90
330
A02
100
AcDbEntity
  8
View
100
AcDbLine
 10
41.275241959
 20
122.513213680
 30
0.000000000
 11
41.289535338
 21
122.473942944
 31
0.000000000
  0
LINE
  5
A91
330
A02
100
AcDbEntity
  8
View
100
AcDbLine
 10
42.147098327
 20
122.830543447
 30
0.000000000
 11
41.275241959
 21
122.513213680
 31
0.000000000
  0
LINE
  5
A92
330
A02
100
AcDbEntity
  8
View
100
AcDbLine
 10
42.111839464
 20
122.927416377
 30
0.000000000
 11
42.147098327
 21
122.830543447
 31
0.000000000
  0
SPLINE
  5
A93
330
A02
100
AcDbEntity
  8
View
100
AcDbSpline
210
0
220
0
230
1
 70
8
 71
2
 72
6
 73
3
 74
0
 40
0.000000000
 40
0.000000000
 40
0.000000000
 40
1.000000000
 40
1.000000000
 40
1.000000000
 10
41.983479027
 20
123.159088187
 30
0.000000000
 10
42.062789723
 20
123.062179431
 30
0.000000000
 10
42.111839464
 20
122.927416377
 30
0.000000000
  0
SPLINE
  5
A94
330
A02
100
AcDbEntity
  8
View
100
AcDbSpline
210
0
220
0
230
1
 70
8
 71
2
 72
6
 73
3
 74
0
 40
0.000000000
 40
0.000000000
 40
0.000000000
 40
1.000000000
 40
1.000000000
 40
1.000000000
 10
41.801815845
 20
123.309774563
 30
0.000000000
 10
41.904168332
 20
123.255996943
 30
0.000000000
 10
41.983479027
 20
123.159088187
 30
0.000000000
  0
SPLINE
  5
A95
330
A02
100
AcDbEntity
  8
View
100
AcDbSpline
210
0
220
0
230
1
 70
8
 71
2
 72
6
 73
3
 74
0
 40
0.000000000
 40
0.000000000
 40
0.000000000
 40
1.000000000
 40
1.000000000
 40
1.000000000
 10
41.579928220
 20
123.369556020
 30
0.000000000
 10
41.699540059
 20
123.363580100
 30
0.000000000
 10
41.801815845
 20
123.309774563
 30
0.000000000
  0
SPLINE
  5
A96
330
A02
100
AcDbEntity
  8
View
100
AcDbSpline
210
0
220
0
230
1
 70
8
 71
2
 72
6
 73
3
 74
0
 40
0.000000000
 40
0.000000000
 40
0.000000000
 40
1.000000000
 40
1.000000000
 40
1.000000000
 10
41.333146691
 20
123.329245959
 30
0.000000000
 10
41.460393081
 20
123.375559857
 30
0.000000000
 10
41.579928220
 20
123.369556020
 30
0.000000000
  0
SPLINE
  5
A97
330
A02
100
AcDbEntity
  8
View
100
AcDbSpline
210
0
220
0
230
1
 70
8
 71
2
 72
6
 73
3
 74
0
 40
0.000000000
 40
0.000000000
 40
0.000000000
 40
1.000000000
 40
1.000000000
 40
1.000000000
 10
41.113797742
 20
123.198769201
 30
0.000000000
 10
41.203599282
 20
123.282094558
 30
0.000000000
 10
41.333146691
 20
123.329245959
 30
0.000000000
  0
SPLINE
  5
A98
330
A02
100
AcDbEntity
  8
View
100
AcDbSpline
210
0
220
0
230
1
 70
8
 71
2
 72
6
 73
3
 74
0
 40
0.000000000
 40
0.000000000
 40
0.000000000
 40
1.000000000
 40
1.000000000
 40
1.000000000
 10
40.980255931
 20
123.004844625
 30
0.000000000
 10
41.024072903
 20
123.115471761
 30
0.000000000
 10
41.113797742
 20
123.198769201
 30
0.000000000
  0
SPLINE
  5
A99
330
A02
100
AcDbEntity
  8
View
100
AcDbSpline
210
0
220
0
230
1
 70
8
 71
2
 72
6
 73
3
 74
0
 40
0.000000000
 40
0.000000000
 40
0.000000000
 40
1.000000000
 40
1.000000000
 40
1.000000000
 10
40.938026226
 20
122.761462766
 30
0.000000000
 10
40.936438959
 20
122.894217489
 30
0.000000000
 10
40.980255931
 20
123.004844625
 30
0.000000000
  0
SPLINE
  5
A9A
330
A02
100
AcDbEntity
  8
View
100
AcDbSpline
210
0
220
0
230
1
 70
8
 71
2
 72
6
 73
3
 74
0
 40
0.000000000
 40
0.000000000
 40
0.000000000
 40
1.000000000
 40
1.000000000
 40
1.000000000
 10
40.992815781
 20
122.482774609
 30
0.000000000
 10
40.939690194
 20
122.628735959
 30
0.000000000
 10
40.938026226
 20
122.761462766
 30
0.000000000
  0
SPLINE
  5
A9B
330
A02
100
AcDbEntity
  8
View
100
AcDbSpline
210
0
220
0
230
1
 70
8
 71
2
 72
6
 73
3
 74
0
 40
0.000000000
 40
0.000000000
 40
0.000000000
 40
1.000000000
 40
1.000000000
 40
1.000000000
 10
41.128412580
 20
122.234800806
 30
0.000000000
 10
41.045941368
 20
122.336813258
 30
0.000000000
 10
40.992815781
 20
122.482774609
 30
0.000000000
  0
SPLINE
  5
A9C
330
A02
100
AcDbEntity
  8
View
100
AcDbSpline
210
0
220
0
230
1
 70
8
 71
2
 72
6
 73
3
 74
0
 40
0.000000000
 40
0.000000000
 40
0.000000000
 40
1.000000000
 40
1.000000000
 40
1.000000000
 10
41.316339835
 20
122.077881937
 30
0.000000000
 10
41.210932576
 20
122.132892972
 30
0.000000000
 10
41.128412580
 20
122.234800806
 30
0.000000000
  0
SPLINE
  5
A9D
330
A02
100
AcDbEntity
  8
View
100
AcDbSpline
210
0
220
0
230
1
 70
8
 71
2
 72
6
 73
3
 74
0
 40
0.000000000
 40
0.000000000
 40
0.000000000
 40
1.000000000
 40
1.000000000
 40
1.000000000
 10
41.548673693
 20
122.018514998
 30
0.000000000
 10
41.421719176
 20
122.022947602
 30
0.000000000
 10
41.316339835
 20
122.077881937
 30
0.000000000
  0
SPLINE
  5
A9E
330
A02
100
AcDbEntity
  8
View
100
AcDbSpline
210
0
220
0
230
1
 70
8
 71
2
 72
6
 73
3
 74
0
 40
0.000000000
 40
0.000000000
 40
0.000000000
 40
1.000000000
 40
1.000000000
 40
1.000000000
 10
41.814763202
 20
122.064723390
 30
0.000000000
 10
41.675704911
 20
122.014110311
 30
0.000000000
 10
41.548673693
 20
122.018514998
 30
0.000000000
  0
LINE
  5
A9F
330
A02
100
AcDbEntity
  8
View
100
AcDbLine
 10
42.661709914
 20
122.406341609
 30
0.000000000
 11
42.584883002
 21
122.617421817
 31
0.000000000
  0
LINE
  5
AA0
330
A02
100
AcDbEntity
  8
View
100
AcDbLine
 10
43.724397517
 20
122.793128265
 30
0.000000000
 11
42.661709914
 21
122.406341609
 31
0.000000000
  0
LINE
  5
AA1
330
A02
100
AcDbEntity
  8
View
100
AcDbLine
 10
43.647570605
 20
123.004208473
 30
0.000000000
 11
43.724397517
 21
122.793128265
 31
0.000000000
  0
LINE
  5
AA2
330
A02
100
AcDbEntity
  8
View
100
AcDbLine
 10
43.244662053
 20
122.857561753
 30
0.000000000
 11
43.647570605
 21
123.004208473
 31
0.000000000
  0
LINE
  5
AA3
330
A02
100
AcDbEntity
  8
View
100
AcDbLine
 10
42.687220267
 20
124.389120472
 30
0.000000000
 11
43.244662053
 21
122.857561753
 31
0.000000000
  0
LINE
  5
AA4
330
A02
100
AcDbEntity
  8
View
100
AcDbLine
 10
42.027441216
 20
124.148980536
 30
0.000000000
 11
42.687220267
 21
124.389120472
 31
0.000000000
  0
LINE
  5
AA5
330
A02
100
AcDbEntity
  8
View
100
AcDbLine
 10
42.104268129
 20
123.937900328
 30
0.000000000
 11
42.027441216
 21
124.148980536
 31
0.000000000
  0
LINE
  5
AA6
330
A02
100
AcDbEntity
  8
View
100
AcDbLine
 10
42.507176680
 20
124.084547048
 30
0.000000000
 11
42.104268129
 21
123.937900328
 31
0.000000000
  0
LINE
  5
AA7
330
A02
100
AcDbEntity
  8
View
100
AcDbLine
 10
42.987791553
 20
122.764068537
 30
0.000000000
 11
42.507176680
 21
124.084547048
 31
0.000000000
  0
LINE
  5
AA8
330
A02
100
AcDbEntity
  8
View
100
AcDbLine
 10
42.584883002
 20
122.617421817
 30
0.000000000
 11
42.987791553
 21
122.764068537
 31
0.000000000
  0
SPLINE
  5
AA9
330
A02
100
AcDbEntity
  8
View
100
AcDbSpline
210
0
220
0
230
1
 70
8
 71
2
 72
6
 73
3
 74
0
 40
0.000000000
 40
0.000000000
 40
0.000000000
 40
1.000000000
 40
1.000000000
 40
1.000000000
 10
44.756425169
 20
123.194466622
 30
0.000000000
 10
44.727678197
 20
123.130496881
 30
0.000000000
 10
44.614544728
 20
123.089319665
 30
0.000000000
  0
SPLINE
  5
AAA
330
A02
100
AcDbEntity
  8
View
100
AcDbSpline
210
0
220
0
230
1
 70
8
 71
2
 72
6
 73
3
 74
0
 40
0.000000000
 40
0.000000000
 40
0.000000000
 40
1.000000000
 40
1.000000000
 40
1.000000000
 10
44.760186644
 20
123.327083452
 30
0.000000000
 10
44.785144224
 20
123.258513065
 30
0.000000000
 10
44.756425169
 20
123.194466622
 30
0.000000000
  0
LINE
  5
AAB
330
A02
100
AcDbEntity
  8
View
100
AcDbLine
 10
44.737797405
 20
123.388597379
 30
0.000000000
 11
44.760186644
 21
123.327083452
 31
0.000000000
  0
SPLINE
  5
AAC
330
A02
100
AcDbEntity
  8
View
100
AcDbSpline
210
0
220
0
230
1
 70
8
 71
2
 72
6
 73
3
 74
0
 40
0.000000000
 40
0.000000000
 40
0.000000000
 40
1.000000000
 40
1.000000000
 40
1.000000000
 10
44.649699410
 20
123.487693234
 30
0.000000000
 10
44.712839825
 20
123.457167766
 30
0.000000000
 10
44.737797405
 20
123.388597379
 30
0.000000000
  0
SPLINE
  5
AAD
330
A02
100
AcDbEntity
  8
View
100
AcDbSpline
210
0
220
0
230
1
 70
8
 71
2
 72
6
 73
3
 74
0
 40
0.000000000
 40
0.000000000
 40
0.000000000
 40
1.000000000
 40
1.000000000
 40
1.000000000
 10
44.473397609
 20
123.477118187
 30
0.000000000
 10
44.586531078
 20
123.518295403
 30
0.000000000
 10
44.649699410
 20
123.487693234
 30
0.000000000
  0
SPLINE
  5
AAE
330
A02
100
AcDbEntity
  8
View
100
AcDbSpline
210
0
220
0
230
1
 70
8
 71
2
 72
6
 73
3
 74
0
 40
0.000000000
 40
0.000000000
 40
0.000000000
 40
1.000000000
 40
1.000000000
 40
1.000000000
 10
44.331545085
 20
123.371894530
 30
0.000000000
 10
44.360264140
 20
123.435940972
 30
0.000000000
 10
44.473397609
 20
123.477118187
 30
0.000000000
  0
SPLINE
  5
AAF
330
A02
100
AcDbEntity
  8
View
100
AcDbSpline
210
0
220
0
230
1
 70
8
 71
2
 72
6
 73
3
 74
0
 40
0.000000000
 40
0.000000000
 40
0.000000000
 40
1.000000000
 40
1.000000000
 40
1.000000000
 10
44.327755693
 20
123.239354401
 30
0.000000000
 10
44.302798113
 20
123.307924788
 30
0.000000000
 10
44.331545085
 20
123.371894530
 30
0.000000000
  0
LINE
  5
AB0
330
A02
100
AcDbEntity
  8
View
100
AcDbLine
 10
44.350144931
 20
123.177840474
 30
0.000000000
 11
44.327755693
 21
123.239354401
 31
0.000000000
  0
SPLINE
  5
AB1
330
A02
100
AcDbEntity
  8
View
100
AcDbSpline
210
0
220
0
230
1
 70
8
 71
2
 72
6
 73
3
 74
0
 40
0.000000000
 40
0.000000000
 40
0.000000000
 40
1.000000000
 40
1.000000000
 40
1.000000000
 10
44.438270843
 20
123.078667918
 30
0.000000000
 10
44.375102511
 20
123.109270087
 30
0.000000000
 10
44.350144931
 20
123.177840474
 30
0.000000000
  0
SPLINE
  5
AB2
330
A02
100
AcDbEntity
  8
View
100
AcDbSpline
210
0
220
0
230
1
 70
8
 71
2
 72
6
 73
3
 74
0
 40
0.000000000
 40
0.000000000
 40
0.000000000
 40
1.000000000
 40
1.000000000
 40
1.000000000
 10
44.614544728
 20
123.089319665
 30
0.000000000
 10
44.501411259
 20
123.048142450
 30
0.000000000
 10
44.438270843
 20
123.078667918
 30
0.000000000
  0
LINE
  5
AB3
330
A02
100
AcDbEntity
  8
View
100
AcDbLine
 10
45.698902531
 20
123.511789317
 30
0.000000000
 11
45.418484929
 21
123.409725657
 31
0.000000000
  0
LINE
  5
AB4
330
A02
100
AcDbEntity
  8
View
100
AcDbLine
 10
45.782690760
 20
123.838830986
 30
0.000000000
 11
45.698902531
 21
123.511789317
 31
0.000000000
  0
LINE
  5
AB5
330
A02
100
AcDbEntity
  8
View
100
AcDbLine
 10
45.839912333
 20
124.062740181
 30
0.000000000
 11
45.782690760
 21
123.838830986
 31
0.000000000
  0
LINE
  5
AB6
330
A02
100
AcDbEntity
  8
View
100
AcDbLine
 10
45.854101955
 20
124.067904781
 30
0.000000000
 11
45.839912333
 21
124.062740181
 31
0.000000000
  0
LINE
  5
AB7
330
A02
100
AcDbEntity
  8
View
100
AcDbLine
 10
46.044240000
 20
123.934027124
 30
0.000000000
 11
45.854101955
 21
124.067904781
 31
0.000000000
  0
LINE
  5
AB8
330
A02
100
AcDbEntity
  8
View
100
AcDbLine
 10
46.320944859
 20
123.738194209
 30
0.000000000
 11
46.044240000
 21
123.934027124
 31
0.000000000
  0
LINE
  5
AB9
330
A02
100
AcDbEntity
  8
View
100
AcDbLine
 10
46.622531843
 20
123.847962894
 30
0.000000000
 11
46.320944859
 21
123.738194209
 31
0.000000000
  0
LINE
  5
ABA
330
A02
100
AcDbEntity
  8
View
100
AcDbLine
 10
45.937057729
 20
124.309171720
 30
0.000000000
 11
46.622531843
 21
123.847962894
 31
0.000000000
  0
LINE
  5
ABB
330
A02
100
AcDbEntity
  8
View
100
AcDbLine
 10
46.158267708
 20
125.057650698
 30
0.000000000
 11
45.937057729
 21
124.309171720
 31
0.000000000
  0
LINE
  5
ABC
330
A02
100
AcDbEntity
  8
View
100
AcDbLine
 10
45.880227827
 20
124.956452457
 30
0.000000000
 11
46.158267708
 21
125.057650698
 31
0.000000000
  0
LINE
  5
ABD
330
A02
100
AcDbEntity
  8
View
100
AcDbLine
 10
45.804169174
 20
124.666881872
 30
0.000000000
 11
45.880227827
 21
124.956452457
 31
0.000000000
  0
LINE
  5
ABE
330
A02
100
AcDbEntity
  8
View
100
AcDbLine
 10
45.746272802
 20
124.437428517
 30
0.000000000
 11
45.804169174
 21
124.666881872
 31
0.000000000
  0
LINE
  5
ABF
330
A02
100
AcDbEntity
  8
View
100
AcDbLine
 10
45.732083181
 20
124.432263917
 30
0.000000000
 11
45.746272802
 21
124.437428517
 31
0.000000000
  0
LINE
  5
AC0
330
A02
100
AcDbEntity
  8
View
100
AcDbLine
 10
45.537941193
 20
124.569982812
 30
0.000000000
 11
45.732083181
 21
124.432263917
 31
0.000000000
  0
LINE
  5
AC1
330
A02
100
AcDbEntity
  8
View
100
AcDbLine
 10
45.293544501
 20
124.742917189
 30
0.000000000
 11
45.537941193
 21
124.569982812
 31
0.000000000
  0
LINE
  5
AC2
330
A02
100
AcDbEntity
  8
View
100
AcDbLine
 10
44.994258538
 20
124.633986007
 30
0.000000000
 11
45.293544501
 21
124.742917189
 31
0.000000000
  0
LINE
  5
AC3
330
A02
100
AcDbEntity
  8
View
100
AcDbLine
 10
45.645960967
 20
124.192537196
 30
0.000000000
 11
44.994258538
 21
124.633986007
 31
0.000000000
  0
LINE
  5
AC4
330
A02
100
AcDbEntity
  8
View
100
AcDbLine
 10
45.418484929
 20
123.409725657
 30
0.000000000
 11
45.645960967
 21
124.192537196
 31
0.000000000
  0
LINE
  5
AC5
330
A02
100
AcDbEntity
  8
View
100
AcDbLine
 10
47.338038120
 20
124.910117760
 30
0.000000000
 11
47.345823981
 21
125.489885832
 31
0.000000000
  0
LINE
  5
AC6
330
A02
100
AcDbEntity
  8
View
100
AcDbLine
 10
47.339167615
 20
124.437828442
 30
0.000000000
 11
47.338038120
 21
124.910117760
 31
0.000000000
  0
LINE
  5
AC7
330
A02
100
AcDbEntity
  8
View
100
AcDbLine
 10
47.324977993
 20
124.432663842
 30
0.000000000
 11
47.339167615
 21
124.437828442
 31
0.000000000
  0
LINE
  5
AC8
330
A02
100
AcDbEntity
  8
View
100
AcDbLine
 10
47.022261515
 20
124.795184475
 30
0.000000000
 11
47.324977993
 21
124.432663842
 31
0.000000000
  0
LINE
  5
AC9
330
A02
100
AcDbEntity
  8
View
100
AcDbLine
 10
46.643629466
 20
125.234307930
 30
0.000000000
 11
47.022261515
 21
124.795184475
 31
0.000000000
  0
LINE
  5
ACA
330
A02
100
AcDbEntity
  8
View
100
AcDbLine
 10
46.375023765
 20
125.136543450
 30
0.000000000
 11
46.643629466
 21
125.234307930
 31
0.000000000
  0
LINE
  5
ACB
330
A02
100
AcDbEntity
  8
View
100
AcDbLine
 10
47.301982363
 20
124.114719641
 30
0.000000000
 11
46.375023765
 21
125.136543450
 31
0.000000000
  0
LINE
  5
ACC
330
A02
100
AcDbEntity
  8
View
100
AcDbLine
 10
47.292173604
 20
123.797058269
 30
0.000000000
 11
47.301982363
 21
124.114719641
 31
0.000000000
  0
LINE
  5
ACD
330
A02
100
AcDbEntity
  8
View
100
AcDbLine
 10
47.004699542
 20
123.692426267
 30
0.000000000
 11
47.292173604
 21
123.797058269
 31
0.000000000
  0
LINE
  5
ACE
330
A02
100
AcDbEntity
  8
View
100
AcDbLine
 10
47.081526455
 20
123.481346059
 30
0.000000000
 11
47.004699542
 21
123.692426267
 31
0.000000000
  0
LINE
  5
ACF
330
A02
100
AcDbEntity
  8
View
100
AcDbLine
 10
47.286547311
 20
123.555967548
 30
0.000000000
 11
47.081526455
 21
123.481346059
 31
0.000000000
  0
SPLINE
  5
AD0
330
A02
100
AcDbEntity
  8
View
100
AcDbSpline
210
0
220
0
230
1
 70
8
 71
2
 72
6
 73
3
 74
0
 40
0.000000000
 40
0.000000000
 40
0.000000000
 40
1.000000000
 40
1.000000000
 40
1.000000000
 10
47.485363612
 20
123.695127277
 30
0.000000000
 10
47.430284342
 20
123.608283549
 30
0.000000000
 10
47.286547311
 20
123.555967548
 30
0.000000000
  0
SPLINE
  5
AD1
330
A02
100
AcDbEntity
  8
View
100
AcDbSpline
210
0
220
0
230
1
 70
8
 71
2
 72
6
 73
3
 74
0
 40
0.000000000
 40
0.000000000
 40
0.000000000
 40
1.000000000
 40
1.000000000
 40
1.000000000
 10
47.544705733
 20
123.917028720
 30
0.000000000
 10
47.540547500
 20
123.781922221
 30
0.000000000
 10
47.485363612
 20
123.695127277
 30
0.000000000
  0
LINE
  5
AD2
330
A02
100
AcDbEntity
  8
View
100
AcDbLine
 10
47.604995501
 20
125.584216551
 30
0.000000000
 11
47.544705733
 21
123.917028720
 31
0.000000000
  0
LINE
  5
AD3
330
A02
100
AcDbEntity
  8
View
100
AcDbLine
 10
47.345823981
 20
125.489885832
 30
0.000000000
 11
47.604995501
 21
125.584216551
 31
0.000000000
  0
LINE
  5
AD4
330
A02
100
AcDbEntity
  8
View
100
AcDbLine
 10
49.372327097
 20
124.848806517
 30
0.000000000
 11
48.321374695
 21
124.466291125
 31
0.000000000
  0
LINE
  5
AD5
330
A02
100
AcDbEntity
  8
View
100
AcDbLine
 10
49.295500184
 20
125.059886725
 30
0.000000000
 11
49.372327097
 21
124.848806517
 31
0.000000000
  0
LINE
  5
AD6
330
A02
100
AcDbEntity
  8
View
100
AcDbLine
 10
48.532021845
 20
124.782003335
 30
0.000000000
 11
49.295500184
 21
125.059886725
 31
0.000000000
  0
LINE
  5
AD7
330
A02
100
AcDbEntity
  8
View
100
AcDbLine
 10
48.989247143
 20
125.827805816
 30
0.000000000
 11
48.532021845
 21
124.782003335
 31
0.000000000
  0
LINE
  5
AD8
330
A02
100
AcDbEntity
  8
View
100
AcDbLine
 10
48.905608542
 20
126.057600984
 30
0.000000000
 11
48.989247143
 21
125.827805816
 31
0.000000000
  0
LINE
  5
AD9
330
A02
100
AcDbEntity
  8
View
100
AcDbLine
 10
47.904204764
 20
125.693119817
 30
0.000000000
 11
48.905608542
 21
126.057600984
 31
0.000000000
  0
LINE
  5
ADA
330
A02
100
AcDbEntity
  8
View
100
AcDbLine
 10
47.981031677
 20
125.482039609
 30
0.000000000
 11
47.904204764
 21
125.693119817
 31
0.000000000
  0
LINE
  5
ADB
330
A02
100
AcDbEntity
  8
View
100
AcDbLine
 10
48.695038093
 20
125.741916691
 30
0.000000000
 11
47.981031677
 21
125.482039609
 31
0.000000000
  0
LINE
  5
ADC
330
A02
100
AcDbEntity
  8
View
100
AcDbLine
 10
48.237736094
 20
124.696086294
 30
0.000000000
 11
48.695038093
 21
125.741916691
 31
0.000000000
  0
LINE
  5
ADD
330
A02
100
AcDbEntity
  8
View
100
AcDbLine
 10
48.321374695
 20
124.466291125
 30
0.000000000
 11
48.237736094
 21
124.696086294
 31
0.000000000
  0
LINE
  5
ADE
330
A02
100
AcDbEntity
  8
View
100
AcDbLine
 10
68.986762773
 20
132.558060535
 30
0.000000000
 11
68.429317998
 21
132.355167229
 31
0.000000000
  0
LINE
  5
ADF
330
A02
100
AcDbEntity
  8
View
100
AcDbLine
 10
68.998726380
 20
132.762324033
 30
0.000000000
 11
68.986762773
 21
132.558060535
 31
0.000000000
  0
LINE
  5
AE0
330
A02
100
AcDbEntity
  8
View
100
AcDbLine
 10
68.429317998
 20
132.355167229
 30
0.000000000
 11
68.623757416
 21
131.820949320
 31
0.000000000
  0
LINE
  5
AE1
330
A02
100
AcDbEntity
  8
View
100
AcDbLine
 10
68.365068452
 20
132.531691408
 30
0.000000000
 11
68.998726380
 21
132.762324033
 31
0.000000000
  0
LINE
  5
AE2
330
A02
100
AcDbEntity
  8
View
100
AcDbLine
 10
68.623757416
 20
131.820949320
 30
0.000000000
 11
69.398954056
 21
132.103097823
 31
0.000000000
  0
LINE
  5
AE3
330
A02
100
AcDbEntity
  8
View
100
AcDbLine
 10
68.168938257
 20
133.070554691
 30
0.000000000
 11
68.365068452
 21
132.531691408
 31
0.000000000
  0
LINE
  5
AE4
330
A02
100
AcDbEntity
  8
View
100
AcDbLine
 10
69.398954056
 20
132.103097823
 30
0.000000000
 11
69.386990450
 21
131.898834325
 31
0.000000000
  0
LINE
  5
AE5
330
A02
100
AcDbEntity
  8
View
100
AcDbLine
 10
68.726383032
 20
133.273447996
 30
0.000000000
 11
68.168938257
 21
133.070554691
 31
0.000000000
  0
LINE
  5
AE6
330
A02
100
AcDbEntity
  8
View
100
AcDbLine
 10
69.386990450
 20
131.898834325
 30
0.000000000
 11
68.513805471
 21
131.581020983
 31
0.000000000
  0
LINE
  5
AE7
330
A02
100
AcDbEntity
  8
View
100
AcDbLine
 10
68.738742914
 20
133.476622735
 30
0.000000000
 11
68.726383032
 21
133.273447996
 31
0.000000000
  0
LINE
  5
AE8
330
A02
100
AcDbEntity
  8
View
100
AcDbLine
 10
68.513805471
 20
131.581020983
 30
0.000000000
 11
67.958411466
 21
133.106953471
 31
0.000000000
  0
LINE
  5
AE9
330
A02
100
AcDbEntity
  8
View
100
AcDbLine
 10
68.104688710
 20
133.247078869
 30
0.000000000
 11
68.738742914
 21
133.476622735
 31
0.000000000
  0
LINE
  5
AEA
330
A02
100
AcDbEntity
  8
View
100
AcDbLine
 10
67.958411466
 20
133.106953471
 30
0.000000000
 11
68.104688710
 21
133.247078869
 31
0.000000000
  0
SPLINE
  5
AEB
330
A02
100
AcDbEntity
  8
View
100
AcDbSpline
210
0
220
0
230
1
 70
8
 71
2
 72
6
 73
3
 74
0
 40
0.000000000
 40
0.000000000
 40
0.000000000
 40
1.000000000
 40
1.000000000
 40
1.000000000
 10
69.596112666
 20
133.156976908
 30
0.000000000
 10
69.685161948
 20
133.115573076
 30
0.000000000
 10
69.819875896
 20
133.148576047
 30
0.000000000
  0
SPLINE
  5
AEC
330
A02
100
AcDbEntity
  8
View
100
AcDbSpline
210
0
220
0
230
1
 70
8
 71
2
 72
6
 73
3
 74
0
 40
0.000000000
 40
0.000000000
 40
0.000000000
 40
1.000000000
 40
1.000000000
 40
1.000000000
 10
69.465907517
 20
133.297905086
 30
0.000000000
 10
69.501123243
 20
133.201150674
 30
0.000000000
 10
69.596112666
 20
133.156976908
 30
0.000000000
  0
SPLINE
  5
AED
330
A02
100
AcDbEntity
  8
View
100
AcDbSpline
210
0
220
0
230
1
 70
8
 71
2
 72
6
 73
3
 74
0
 40
0.000000000
 40
0.000000000
 40
0.000000000
 40
1.000000000
 40
1.000000000
 40
1.000000000
 10
69.819875896
 20
133.148576047
 30
0.000000000
 10
70.040875618
 20
133.201969743
 30
0.000000000
 10
70.223382056
 20
133.120602014
 30
0.000000000
  0
SPLINE
  5
AEE
330
A02
100
AcDbEntity
  8
View
100
AcDbSpline
210
0
220
0
230
1
 70
8
 71
2
 72
6
 73
3
 74
0
 40
0.000000000
 40
0.000000000
 40
0.000000000
 40
1.000000000
 40
1.000000000
 40
1.000000000
 10
69.474693704
 20
133.490572766
 30
0.000000000
 10
69.430718209
 20
133.394586914
 30
0.000000000
 10
69.465907517
 20
133.297905086
 30
0.000000000
  0
SPLINE
  5
AEF
330
A02
100
AcDbEntity
  8
View
100
AcDbSpline
210
0
220
0
230
1
 70
8
 71
2
 72
6
 73
3
 74
0
 40
0.000000000
 40
0.000000000
 40
0.000000000
 40
1.000000000
 40
1.000000000
 40
1.000000000
 10
70.223382056
 20
133.120602014
 30
0.000000000
 10
70.417795195
 20
133.033621835
 30
0.000000000
 10
70.491423273
 20
132.831330352
 30
0.000000000
  0
SPLINE
  5
AF0
330
A02
100
AcDbEntity
  8
View
100
AcDbSpline
210
0
220
0
230
1
 70
8
 71
2
 72
6
 73
3
 74
0
 40
0.000000000
 40
0.000000000
 40
0.000000000
 40
1.000000000
 40
1.000000000
 40
1.000000000
 10
69.614580088
 20
133.617768350
 30
0.000000000
 10
69.517680508
 20
133.582499787
 30
0.000000000
 10
69.474693704
 20
133.490572766
 30
0.000000000
  0
LINE
  5
AF1
330
A02
100
AcDbEntity
  8
View
100
AcDbLine
 10
70.491423273
 20
132.831330352
 30
0.000000000
 11
70.492612101
 21
132.828064074
 31
0.000000000
  0
SPLINE
  5
AF2
330
A02
100
AcDbEntity
  8
View
100
AcDbSpline
210
0
220
0
230
1
 70
8
 71
2
 72
6
 73
3
 74
0
 40
0.000000000
 40
0.000000000
 40
0.000000000
 40
1.000000000
 40
1.000000000
 40
1.000000000
 10
69.807557850
 20
133.609259423
 30
0.000000000
 10
69.711479668
 20
133.653036913
 30
0.000000000
 10
69.614580088
 20
133.617768350
 30
0.000000000
  0
SPLINE
  5
AF3
330
A02
100
AcDbEntity
  8
View
100
AcDbSpline
210
0
220
0
230
1
 70
8
 71
2
 72
6
 73
3
 74
0
 40
0.000000000
 40
0.000000000
 40
0.000000000
 40
1.000000000
 40
1.000000000
 40
1.000000000
 10
70.492612101
 20
132.828064074
 30
0.000000000
 10
70.567851702
 20
132.621344970
 30
0.000000000
 10
70.477379755
 20
132.429524306
 30
0.000000000
  0
SPLINE
  5
AF4
330
A02
100
AcDbEntity
  8
View
100
AcDbSpline
210
0
220
0
230
1
 70
8
 71
2
 72
6
 73
3
 74
0
 40
0.000000000
 40
0.000000000
 40
0.000000000
 40
1.000000000
 40
1.000000000
 40
1.000000000
 10
69.938132857
 20
133.467315070
 30
0.000000000
 10
69.899180927
 20
133.567559383
 30
0.000000000
 10
69.807557850
 20
133.609259423
 30
0.000000000
  0
SPLINE
  5
AF5
330
A02
100
AcDbEntity
  8
View
100
AcDbSpline
210
0
220
0
230
1
 70
8
 71
2
 72
6
 73
3
 74
0
 40
0.000000000
 40
0.000000000
 40
0.000000000
 40
1.000000000
 40
1.000000000
 40
1.000000000
 10
70.477379755
 20
132.429524306
 30
0.000000000
 10
70.386215325
 20
132.236218607
 30
0.000000000
 10
70.181528572
 20
132.161718722
 30
0.000000000
  0
LINE
  5
AF6
330
A02
100
AcDbEntity
  8
View
100
AcDbLine
 10
69.969385823
 20
133.381448251
 30
0.000000000
 11
69.938132857
 21
133.467315070
 31
0.000000000
  0
SPLINE
  5
AF7
330
A02
100
AcDbEntity
  8
View
100
AcDbSpline
210
0
220
0
230
1
 70
8
 71
2
 72
6
 73
3
 74
0
 40
0.000000000
 40
0.000000000
 40
0.000000000
 40
1.000000000
 40
1.000000000
 40
1.000000000
 10
70.181528572
 20
132.161718722
 30
0.000000000
 10
69.974664300
 20
132.086426284
 30
0.000000000
 10
69.782698468
 20
132.176845394
 30
0.000000000
  0
LINE
  5
AF8
330
A02
100
AcDbEntity
  8
View
100
AcDbLine
 10
70.115108281
 20
133.523097912
 30
0.000000000
 11
69.969385823
 21
133.381448251
 31
0.000000000
  0
SPLINE
  5
AF9
330
A02
100
AcDbEntity
  8
View
100
AcDbSpline
210
0
220
0
230
1
 70
8
 71
2
 72
6
 73
3
 74
0
 40
0.000000000
 40
0.000000000
 40
0.000000000
 40
1.000000000
 40
1.000000000
 40
1.000000000
 10
69.782698468
 20
132.176845394
 30
0.000000000
 10
69.585881255
 20
132.270430714
 30
0.000000000
 10
69.514155301
 20
132.467496152
 30
0.000000000
  0
LINE
  5
AFA
330
A02
100
AcDbEntity
  8
View
100
AcDbLine
 10
70.111145521
 20
133.533985506
 30
0.000000000
 11
70.115108281
 21
133.523097912
 31
0.000000000
  0
LINE
  5
AFB
330
A02
100
AcDbEntity
  8
View
100
AcDbLine
 10
69.514155301
 20
132.467496152
 30
0.000000000
 11
69.509003713
 21
132.481650023
 31
0.000000000
  0
SPLINE
  5
AFC
330
A02
100
AcDbEntity
  8
View
100
AcDbSpline
210
0
220
0
230
1
 70
8
 71
2
 72
6
 73
3
 74
0
 40
0.000000000
 40
0.000000000
 40
0.000000000
 40
1.000000000
 40
1.000000000
 40
1.000000000
 10
69.884698895
 20
133.780116939
 30
0.000000000
 10
70.050013346
 20
133.701944778
 30
0.000000000
 10
70.111145521
 20
133.533985506
 30
0.000000000
  0
LINE
  5
AFD
330
A02
100
AcDbEntity
  8
View
100
AcDbLine
 10
69.509003713
 20
132.481650023
 30
0.000000000
 11
69.655518723
 21
132.621122166
 31
0.000000000
  0
SPLINE
  5
AFE
330
A02
100
AcDbEntity
  8
View
100
AcDbSpline
210
0
220
0
230
1
 70
8
 71
2
 72
6
 73
3
 74
0
 40
0.000000000
 40
0.000000000
 40
0.000000000
 40
1.000000000
 40
1.000000000
 40
1.000000000
 10
69.550330541
 20
133.794292529
 30
0.000000000
 10
69.722354514
 20
133.856904135
 30
0.000000000
 10
69.884698895
 20
133.780116939
 30
0.000000000
  0
LINE
  5
AFF
330
A02
100
AcDbEntity
  8
View
100
AcDbLine
 10
69.655518723
 20
132.621122166
 30
0.000000000
 11
69.689519203
 21
132.527706616
 31
0.000000000
  0
SPLINE
  5
B00
330
A02
100
AcDbEntity
  8
View
100
AcDbSpline
210
0
220
0
230
1
 70
8
 71
2
 72
6
 73
3
 74
0
 40
0.000000000
 40
0.000000000
 40
0.000000000
 40
1.000000000
 40
1.000000000
 40
1.000000000
 10
69.304390174
 20
133.568901838
 30
0.000000000
 10
69.380484086
 20
133.732473475
 30
0.000000000
 10
69.550330541
 20
133.794292529
 30
0.000000000
  0
SPLINE
  5
B01
330
A02
100
AcDbEntity
  8
View
100
AcDbSpline
210
0
220
0
230
1
 70
8
 71
2
 72
6
 73
3
 74
0
 40
0.000000000
 40
0.000000000
 40
0.000000000
 40
1.000000000
 40
1.000000000
 40
1.000000000
 10
69.689519203
 20
132.527706616
 30
0.000000000
 10
69.736993066
 20
132.397273249
 30
0.000000000
 10
69.863834296
 20
132.340114952
 30
0.000000000
  0
SPLINE
  5
B02
330
A02
100
AcDbEntity
  8
View
100
AcDbSpline
210
0
220
0
230
1
 70
8
 71
2
 72
6
 73
3
 74
0
 40
0.000000000
 40
0.000000000
 40
0.000000000
 40
1.000000000
 40
1.000000000
 40
1.000000000
 10
69.290643684
 20
133.234032068
 30
0.000000000
 10
69.227899986
 20
133.406418961
 30
0.000000000
 10
69.304390174
 20
133.568901838
 30
0.000000000
  0
SPLINE
  5
B03
330
A02
100
AcDbEntity
  8
View
100
AcDbSpline
210
0
220
0
230
1
 70
8
 71
2
 72
6
 73
3
 74
0
 40
0.000000000
 40
0.000000000
 40
0.000000000
 40
1.000000000
 40
1.000000000
 40
1.000000000
 10
69.863834296
 20
132.340114952
 30
0.000000000
 10
69.991098220
 20
132.281795312
 30
0.000000000
 10
70.120660580
 20
132.328952154
 30
0.000000000
  0
SPLINE
  5
B04
330
A02
100
AcDbEntity
  8
View
100
AcDbSpline
210
0
220
0
230
1
 70
8
 71
2
 72
6
 73
3
 74
0
 40
0.000000000
 40
0.000000000
 40
0.000000000
 40
1.000000000
 40
1.000000000
 40
1.000000000
 10
69.518575346
 20
132.987208151
 30
0.000000000
 10
69.352726922
 20
133.063459774
 30
0.000000000
 10
69.290643684
 20
133.234032068
 30
0.000000000
  0
SPLINE
  5
B05
330
A02
100
AcDbEntity
  8
View
100
AcDbSpline
210
0
220
0
230
1
 70
8
 71
2
 72
6
 73
3
 74
0
 40
0.000000000
 40
0.000000000
 40
0.000000000
 40
1.000000000
 40
1.000000000
 40
1.000000000
 10
70.120660580
 20
132.328952154
 30
0.000000000
 10
70.252400458
 20
132.376901549
 30
0.000000000
 10
70.311340797
 20
132.502911799
 30
0.000000000
  0
SPLINE
  5
B06
330
A02
100
AcDbEntity
  8
View
100
AcDbSpline
210
0
220
0
230
1
 70
8
 71
2
 72
6
 73
3
 74
0
 40
0.000000000
 40
0.000000000
 40
0.000000000
 40
1.000000000
 40
1.000000000
 40
1.000000000
 10
69.891661898
 20
132.971671334
 30
0.000000000
 10
69.678879904
 20
132.912637702
 30
0.000000000
 10
69.518575346
 20
132.987208151
 30
0.000000000
  0
SPLINE
  5
B07
330
A02
100
AcDbEntity
  8
View
100
AcDbSpline
210
0
220
0
230
1
 70
8
 71
2
 72
6
 73
3
 74
0
 40
0.000000000
 40
0.000000000
 40
0.000000000
 40
1.000000000
 40
1.000000000
 40
1.000000000
 10
70.311340797
 20
132.502911799
 30
0.000000000
 10
70.369858442
 20
132.630083392
 30
0.000000000
 10
70.322807273
 20
132.759355416
 30
0.000000000
  0
SPLINE
  5
B08
330
A02
100
AcDbEntity
  8
View
100
AcDbSpline
210
0
220
0
230
1
 70
8
 71
2
 72
6
 73
3
 74
0
 40
0.000000000
 40
0.000000000
 40
0.000000000
 40
1.000000000
 40
1.000000000
 40
1.000000000
 10
70.153243493
 20
132.947443424
 30
0.000000000
 10
70.015684391
 20
133.006947894
 30
0.000000000
 10
69.891661898
 20
132.971671334
 30
0.000000000
  0
SPLINE
  5
B09
330
A02
100
AcDbEntity
  8
View
100
AcDbSpline
210
0
220
0
230
1
 70
8
 71
2
 72
6
 73
3
 74
0
 40
0.000000000
 40
0.000000000
 40
0.000000000
 40
1.000000000
 40
1.000000000
 40
1.000000000
 10
70.322807273
 20
132.759355416
 30
0.000000000
 10
70.273352030
 20
132.895232580
 30
0.000000000
 10
70.153243493
 20
132.947443424
 30
0.000000000
  0
SPLINE
  5
B0A
330
A02
100
AcDbEntity
  8
View
100
AcDbSpline
210
0
220
0
230
1
 70
8
 71
2
 72
6
 73
3
 74
0
 40
0.000000000
 40
0.000000000
 40
0.000000000
 40
1.000000000
 40
1.000000000
 40
1.000000000
 10
71.235170337
 20
134.246659709
 30
0.000000000
 10
71.430560957
 20
134.156993923
 30
0.000000000
 10
71.503449320
 20
133.956734791
 30
0.000000000
  0
SPLINE
  5
B0B
330
A02
100
AcDbEntity
  8
View
100
AcDbSpline
210
0
220
0
230
1
 70
8
 71
2
 72
6
 73
3
 74
0
 40
0.000000000
 40
0.000000000
 40
0.000000000
 40
1.000000000
 40
1.000000000
 40
1.000000000
 10
70.836155305
 20
134.262294469
 30
0.000000000
 10
71.039753299
 20
134.336398079
 30
0.000000000
 10
71.235170337
 20
134.246659709
 30
0.000000000
  0
LINE
  5
B0C
330
A02
100
AcDbEntity
  8
View
100
AcDbLine
 10
71.503449320
 20
133.956734791
 30
0.000000000
 11
71.749457453
 21
133.280833001
 31
0.000000000
  0
SPLINE
  5
B0D
330
A02
100
AcDbEntity
  8
View
100
AcDbSpline
210
0
220
0
230
1
 70
8
 71
2
 72
6
 73
3
 74
0
 40
0.000000000
 40
0.000000000
 40
0.000000000
 40
1.000000000
 40
1.000000000
 40
1.000000000
 10
70.540541887
 20
133.993835629
 30
0.000000000
 10
70.632557311
 20
134.188190860
 30
0.000000000
 10
70.836155305
 20
134.262294469
 30
0.000000000
  0
SPLINE
  5
B0E
330
A02
100
AcDbEntity
  8
View
100
AcDbSpline
210
0
220
0
230
1
 70
8
 71
2
 72
6
 73
3
 74
0
 40
0.000000000
 40
0.000000000
 40
0.000000000
 40
1.000000000
 40
1.000000000
 40
1.000000000
 10
71.749457453
 20
133.280833001
 30
0.000000000
 10
71.822345816
 20
133.080573869
 30
0.000000000
 10
71.730330392
 20
132.886218639
 30
0.000000000
  0
SPLINE
  5
B0F
330
A02
100
AcDbEntity
  8
View
100
AcDbSpline
210
0
220
0
230
1
 70
8
 71
2
 72
6
 73
3
 74
0
 40
0.000000000
 40
0.000000000
 40
0.000000000
 40
1.000000000
 40
1.000000000
 40
1.000000000
 10
70.521388408
 20
133.599293851
 30
0.000000000
 10
70.448500045
 20
133.799552983
 30
0.000000000
 10
70.540541887
 20
133.993835629
 30
0.000000000
  0
SPLINE
  5
B10
330
A02
100
AcDbEntity
  8
View
100
AcDbSpline
210
0
220
0
230
1
 70
8
 71
2
 72
6
 73
3
 74
0
 40
0.000000000
 40
0.000000000
 40
0.000000000
 40
1.000000000
 40
1.000000000
 40
1.000000000
 10
71.730330392
 20
132.886218639
 30
0.000000000
 10
71.638288550
 20
132.691935993
 30
0.000000000
 10
71.434690556
 20
132.617832383
 30
0.000000000
  0
LINE
  5
B11
330
A02
100
AcDbEntity
  8
View
100
AcDbLine
 10
70.767396541
 20
132.923392061
 30
0.000000000
 11
70.521388408
 21
133.599293851
 31
0.000000000
  0
SPLINE
  5
B12
330
A02
100
AcDbEntity
  8
View
100
AcDbSpline
210
0
220
0
230
1
 70
8
 71
2
 72
6
 73
3
 74
0
 40
0.000000000
 40
0.000000000
 40
0.000000000
 40
1.000000000
 40
1.000000000
 40
1.000000000
 10
71.434690556
 20
132.617832383
 30
0.000000000
 10
71.230003803
 20
132.543332497
 30
0.000000000
 10
71.035886871
 20
132.632886472
 30
0.000000000
  0
SPLINE
  5
B13
330
A02
100
AcDbEntity
  8
View
100
AcDbSpline
210
0
220
0
230
1
 70
8
 71
2
 72
6
 73
3
 74
0
 40
0.000000000
 40
0.000000000
 40
0.000000000
 40
1.000000000
 40
1.000000000
 40
1.000000000
 10
71.035886871
 20
132.632886472
 30
0.000000000
 10
70.840284904
 20
132.723132929
 30
0.000000000
 10
70.767396541
 20
132.923392061
 30
0.000000000
  0
SPLINE
  5
B14
330
A02
100
AcDbEntity
  8
View
100
AcDbSpline
210
0
220
0
230
1
 70
8
 71
2
 72
6
 73
3
 74
0
 40
0.000000000
 40
0.000000000
 40
0.000000000
 40
1.000000000
 40
1.000000000
 40
1.000000000
 10
72.489421081
 20
134.703169646
 30
0.000000000
 10
72.684811701
 20
134.613503860
 30
0.000000000
 10
72.757700064
 20
134.413244728
 30
0.000000000
  0
SPLINE
  5
B15
330
A02
100
AcDbEntity
  8
View
100
AcDbSpline
210
0
220
0
230
1
 70
8
 71
2
 72
6
 73
3
 74
0
 40
0.000000000
 40
0.000000000
 40
0.000000000
 40
1.000000000
 40
1.000000000
 40
1.000000000
 10
72.090406049
 20
134.718804406
 30
0.000000000
 10
72.294004043
 20
134.792908016
 30
0.000000000
 10
72.489421081
 20
134.703169646
 30
0.000000000
  0
LINE
  5
B16
330
A02
100
AcDbEntity
  8
View
100
AcDbLine
 10
72.757700064
 20
134.413244728
 30
0.000000000
 11
73.003708197
 21
133.737342939
 31
0.000000000
  0
SPLINE
  5
B17
330
A02
100
AcDbEntity
  8
View
100
AcDbSpline
210
0
220
0
230
1
 70
8
 71
2
 72
6
 73
3
 74
0
 40
0.000000000
 40
0.000000000
 40
0.000000000
 40
1.000000000
 40
1.000000000
 40
1.000000000
 10
71.794792631
 20
134.450345566
 30
0.000000000
 10
71.886808055
 20
134.644700797
 30
0.000000000
 10
72.090406049
 20
134.718804406
 30
0.000000000
  0
SPLINE
  5
B18
330
A02
100
AcDbEntity
  8
View
100
AcDbSpline
210
0
220
0
230
1
 70
8
 71
2
 72
6
 73
3
 74
0
 40
0.000000000
 40
0.000000000
 40
0.000000000
 40
1.000000000
 40
1.000000000
 40
1.000000000
 10
73.003708197
 20
133.737342939
 30
0.000000000
 10
73.076596560
 20
133.537083806
 30
0.000000000
 10
72.984581136
 20
133.342728576
 30
0.000000000
  0
SPLINE
  5
B19
330
A02
100
AcDbEntity
  8
View
100
AcDbSpline
210
0
220
0
230
1
 70
8
 71
2
 72
6
 73
3
 74
0
 40
0.000000000
 40
0.000000000
 40
0.000000000
 40
1.000000000
 40
1.000000000
 40
1.000000000
 10
71.775639152
 20
134.055803788
 30
0.000000000
 10
71.702750789
 20
134.256062920
 30
0.000000000
 10
71.794792631
 20
134.450345566
 30
0.000000000
  0
SPLINE
  5
B1A
330
A02
100
AcDbEntity
  8
View
100
AcDbSpline
210
0
220
0
230
1
 70
8
 71
2
 72
6
 73
3
 74
0
 40
0.000000000
 40
0.000000000
 40
0.000000000
 40
1.000000000
 40
1.000000000
 40
1.000000000
 10
72.984581136
 20
133.342728576
 30
0.000000000
 10
72.892539294
 20
133.148445930
 30
0.000000000
 10
72.688941300
 20
133.074342320
 30
0.000000000
  0
LINE
  5
B1B
330
A02
100
AcDbEntity
  8
View
100
AcDbLine
 10
72.021647285
 20
133.379901998
 30
0.000000000
 11
71.775639152
 21
134.055803788
 31
0.000000000
  0
SPLINE
  5
B1C
330
A02
100
AcDbEntity
  8
View
100
AcDbSpline
210
0
220
0
230
1
 70
8
 71
2
 72
6
 73
3
 74
0
 40
0.000000000
 40
0.000000000
 40
0.000000000
 40
1.000000000
 40
1.000000000
 40
1.000000000
 10
72.688941300
 20
133.074342320
 30
0.000000000
 10
72.484254547
 20
132.999842434
 30
0.000000000
 10
72.290137615
 20
133.089396409
 30
0.000000000
  0
SPLINE
  5
B1D
330
A02
100
AcDbEntity
  8
View
100
AcDbSpline
210
0
220
0
230
1
 70
8
 71
2
 72
6
 73
3
 74
0
 40
0.000000000
 40
0.000000000
 40
0.000000000
 40
1.000000000
 40
1.000000000
 40
1.000000000
 10
72.290137615
 20
133.089396409
 30
0.000000000
 10
72.094535648
 20
133.179642866
 30
0.000000000
 10
72.021647285
 20
133.379901998
 30
0.000000000
  0
SPLINE
  5
B1E
330
A02
100
AcDbEntity
  8
View
100
AcDbSpline
210
0
220
0
230
1
 70
8
 71
2
 72
6
 73
3
 74
0
 40
0.000000000
 40
0.000000000
 40
0.000000000
 40
1.000000000
 40
1.000000000
 40
1.000000000
 10
73.743671825
 20
135.159679583
 30
0.000000000
 10
73.939062445
 20
135.070013797
 30
0.000000000
 10
74.011950808
 20
134.869754665
 30
0.000000000
  0
SPLINE
  5
B1F
330
A02
100
AcDbEntity
  8
View
100
AcDbSpline
210
0
220
0
230
1
 70
8
 71
2
 72
6
 73
3
 74
0
 40
0.000000000
 40
0.000000000
 40
0.000000000
 40
1.000000000
 40
1.000000000
 40
1.000000000
 10
73.344656793
 20
135.175314343
 30
0.000000000
 10
73.548254787
 20
135.249417953
 30
0.000000000
 10
73.743671825
 20
135.159679583
 30
0.000000000
  0
LINE
  5
B20
330
A02
100
AcDbEntity
  8
View
100
AcDbLine
 10
74.011950808
 20
134.869754665
 30
0.000000000
 11
74.257958941
 21
134.193852876
 31
0.000000000
  0
SPLINE
  5
B21
330
A02
100
AcDbEntity
  8
View
100
AcDbSpline
210
0
220
0
230
1
 70
8
 71
2
 72
6
 73
3
 74
0
 40
0.000000000
 40
0.000000000
 40
0.000000000
 40
1.000000000
 40
1.000000000
 40
1.000000000
 10
73.049043375
 20
134.906855504
 30
0.000000000
 10
73.141058799
 20
135.101210734
 30
0.000000000
 10
73.344656793
 20
135.175314343
 30
0.000000000
  0
SPLINE
  5
B22
330
A02
100
AcDbEntity
  8
View
100
AcDbSpline
210
0
220
0
230
1
 70
8
 71
2
 72
6
 73
3
 74
0
 40
0.000000000
 40
0.000000000
 40
0.000000000
 40
1.000000000
 40
1.000000000
 40
1.000000000
 10
74.257958941
 20
134.193852876
 30
0.000000000
 10
74.330847304
 20
133.993593743
 30
0.000000000
 10
74.238831880
 20
133.799238513
 30
0.000000000
  0
SPLINE
  5
B23
330
A02
100
AcDbEntity
  8
View
100
AcDbSpline
210
0
220
0
230
1
 70
8
 71
2
 72
6
 73
3
 74
0
 40
0.000000000
 40
0.000000000
 40
0.000000000
 40
1.000000000
 40
1.000000000
 40
1.000000000
 10
73.029889896
 20
134.512313725
 30
0.000000000
 10
72.957001533
 20
134.712572857
 30
0.000000000
 10
73.049043375
 20
134.906855504
 30
0.000000000
  0
SPLINE
  5
B24
330
A02
100
AcDbEntity
  8
View
100
AcDbSpline
210
0
220
0
230
1
 70
8
 71
2
 72
6
 73
3
 74
0
 40
0.000000000
 40
0.000000000
 40
0.000000000
 40
1.000000000
 40
1.000000000
 40
1.000000000
 10
74.238831880
 20
133.799238513
 30
0.000000000
 10
74.146790038
 20
133.604955867
 30
0.000000000
 10
73.943192044
 20
133.530852257
 30
0.000000000
  0
LINE
  5
B25
330
A02
100
AcDbEntity
  8
View
100
AcDbLine
 10
73.275898029
 20
133.836411935
 30
0.000000000
 11
73.029889896
 21
134.512313725
 31
0.000000000
  0
SPLINE
  5
B26
330
A02
100
AcDbEntity
  8
View
100
AcDbSpline
210
0
220
0
230
1
 70
8
 71
2
 72
6
 73
3
 74
0
 40
0.000000000
 40
0.000000000
 40
0.000000000
 40
1.000000000
 40
1.000000000
 40
1.000000000
 10
73.943192044
 20
133.530852257
 30
0.000000000
 10
73.738505290
 20
133.456352372
 30
0.000000000
 10
73.544388359
 20
133.545906346
 30
0.000000000
  0
SPLINE
  5
B27
330
A02
100
AcDbEntity
  8
View
100
AcDbSpline
210
0
220
0
230
1
 70
8
 71
2
 72
6
 73
3
 74
0
 40
0.000000000
 40
0.000000000
 40
0.000000000
 40
1.000000000
 40
1.000000000
 40
1.000000000
 10
73.544388359
 20
133.545906346
 30
0.000000000
 10
73.348786392
 20
133.636152803
 30
0.000000000
 10
73.275898029
 20
133.836411935
 30
0.000000000
  0
SPLINE
  5
B28
330
A02
100
AcDbEntity
  8
View
100
AcDbSpline
210
0
220
0
230
1
 70
8
 71
2
 72
6
 73
3
 74
0
 40
0.000000000
 40
0.000000000
 40
0.000000000
 40
1.000000000
 40
1.000000000
 40
1.000000000
 10
74.997922569
 20
135.616189520
 30
0.000000000
 10
75.193313189
 20
135.526523734
 30
0.000000000
 10
75.266201552
 20
135.326264602
 30
0.000000000
  0
SPLINE
  5
B29
330
A02
100
AcDbEntity
  8
View
100
AcDbSpline
210
0
220
0
230
1
 70
8
 71
2
 72
6
 73
3
 74
0
 40
0.000000000
 40
0.000000000
 40
0.000000000
 40
1.000000000
 40
1.000000000
 40
1.000000000
 10
74.598907537
 20
135.631824281
 30
0.000000000
 10
74.802505531
 20
135.705927890
 30
0.000000000
 10
74.997922569
 20
135.616189520
 30
0.000000000
  0
LINE
  5
B2A
330
A02
100
AcDbEntity
  8
View
100
AcDbLine
 10
75.266201552
 20
135.326264602
 30
0.000000000
 11
75.512209685
 21
134.650362813
 31
0.000000000
  0
SPLINE
  5
B2B
330
A02
100
AcDbEntity
  8
View
100
AcDbSpline
210
0
220
0
230
1
 70
8
 71
2
 72
6
 73
3
 74
0
 40
0.000000000
 40
0.000000000
 40
0.000000000
 40
1.000000000
 40
1.000000000
 40
1.000000000
 10
74.303294119
 20
135.363365441
 30
0.000000000
 10
74.395309543
 20
135.557720671
 30
0.000000000
 10
74.598907537
 20
135.631824281
 30
0.000000000
  0
SPLINE
  5
B2C
330
A02
100
AcDbEntity
  8
View
100
AcDbSpline
210
0
220
0
230
1
 70
8
 71
2
 72
6
 73
3
 74
0
 40
0.000000000
 40
0.000000000
 40
0.000000000
 40
1.000000000
 40
1.000000000
 40
1.000000000
 10
75.512209685
 20
134.650362813
 30
0.000000000
 10
75.585098048
 20
134.450103681
 30
0.000000000
 10
75.493082624
 20
134.255748450
 30
0.000000000
  0
SPLINE
  5
B2D
330
A02
100
AcDbEntity
  8
View
100
AcDbSpline
210
0
220
0
230
1
 70
8
 71
2
 72
6
 73
3
 74
0
 40
0.000000000
 40
0.000000000
 40
0.000000000
 40
1.000000000
 40
1.000000000
 40
1.000000000
 10
74.284140640
 20
134.968823662
 30
0.000000000
 10
74.211252276
 20
135.169082794
 30
0.000000000
 10
74.303294119
 20
135.363365441
 30
0.000000000
  0
SPLINE
  5
B2E
330
A02
100
AcDbEntity
  8
View
100
AcDbSpline
210
0
220
0
230
1
 70
8
 71
2
 72
6
 73
3
 74
0
 40
0.000000000
 40
0.000000000
 40
0.000000000
 40
1.000000000
 40
1.000000000
 40
1.000000000
 10
75.493082624
 20
134.255748450
 30
0.000000000
 10
75.401040782
 20
134.061465804
 30
0.000000000
 10
75.197442788
 20
133.987362194
 30
0.000000000
  0
LINE
  5
B2F
330
A02
100
AcDbEntity
  8
View
100
AcDbLine
 10
74.530148772
 20
134.292921872
 30
0.000000000
 11
74.284140640
 21
134.968823662
 31
0.000000000
  0
SPLINE
  5
B30
330
A02
100
AcDbEntity
  8
View
100
AcDbSpline
210
0
220
0
230
1
 70
8
 71
2
 72
6
 73
3
 74
0
 40
0.000000000
 40
0.000000000
 40
0.000000000
 40
1.000000000
 40
1.000000000
 40
1.000000000
 10
75.197442788
 20
133.987362194
 30
0.000000000
 10
74.992756034
 20
133.912862309
 30
0.000000000
 10
74.798639103
 20
134.002416283
 30
0.000000000
  0
SPLINE
  5
B31
330
A02
100
AcDbEntity
  8
View
100
AcDbSpline
210
0
220
0
230
1
 70
8
 71
2
 72
6
 73
3
 74
0
 40
0.000000000
 40
0.000000000
 40
0.000000000
 40
1.000000000
 40
1.000000000
 40
1.000000000
 10
74.798639103
 20
134.002416283
 30
0.000000000
 10
74.603037136
 20
134.092662740
 30
0.000000000
 10
74.530148772
 20
134.292921872
 30
0.000000000
  0
SPLINE
  5
B32
330
A02
100
AcDbEntity
  8
View
100
AcDbSpline
210
0
220
0
230
1
 70
8
 71
1
 72
4
 73
2
 74
0
 40
0.000000000
 40
0.000000000
 40
1.000000000
 40
1.000000000
 10
76.163338311
 20
135.253059676
 30
0.000000000
 10
76.119391662
 20
135.238297395
 30
0.000000000
  0
SPLINE
  5
B33
330
A02
100
AcDbEntity
  8
View
100
AcDbSpline
210
0
220
0
230
1
 70
8
 71
2
 72
6
 73
3
 74
0
 40
0.000000000
 40
0.000000000
 40
0.000000000
 40
1.000000000
 40
1.000000000
 40
1.000000000
 10
76.417907821
 20
135.241322078
 30
0.000000000
 10
76.297233289
 20
135.288312749
 30
0.000000000
 10
76.163338311
 20
135.253059676
 30
0.000000000
  0
SPLINE
  5
B34
330
A02
100
AcDbEntity
  8
View
100
AcDbSpline
210
0
220
0
230
1
 70
8
 71
2
 72
6
 73
3
 74
0
 40
0.000000000
 40
0.000000000
 40
0.000000000
 40
1.000000000
 40
1.000000000
 40
1.000000000
 10
76.119391662
 20
135.238297395
 30
0.000000000
 10
76.049711065
 20
135.212935732
 30
0.000000000
 10
75.981702825
 20
135.155878367
 30
0.000000000
  0
SPLINE
  5
B35
330
A02
100
AcDbEntity
  8
View
100
AcDbSpline
210
0
220
0
230
1
 70
8
 71
2
 72
6
 73
3
 74
0
 40
0.000000000
 40
0.000000000
 40
0.000000000
 40
1.000000000
 40
1.000000000
 40
1.000000000
 10
76.594245921
 20
135.041397013
 30
0.000000000
 10
76.537789802
 20
135.196508925
 30
0.000000000
 10
76.417907821
 20
135.241322078
 30
0.000000000
  0
LINE
  5
B36
330
A02
100
AcDbEntity
  8
View
100
AcDbLine
 10
75.981702825
 20
135.155878367
 30
0.000000000
 11
75.908492552
 21
135.082624909
 31
0.000000000
  0
SPLINE
  5
B37
330
A02
100
AcDbEntity
  8
View
100
AcDbSpline
210
0
220
0
230
1
 70
8
 71
2
 72
6
 73
3
 74
0
 40
0.000000000
 40
0.000000000
 40
0.000000000
 40
1.000000000
 40
1.000000000
 40
1.000000000
 10
76.582647353
 20
134.785316316
 30
0.000000000
 10
76.641244253
 20
134.912270157
 30
0.000000000
 10
76.594245921
 20
135.041397013
 30
0.000000000
  0
LINE
  5
B38
330
A02
100
AcDbEntity
  8
View
100
AcDbLine
 10
75.908492552
 20
135.082624909
 30
0.000000000
 11
75.736364546
 21
135.149028600
 31
0.000000000
  0
SPLINE
  5
B39
330
A02
100
AcDbEntity
  8
View
100
AcDbSpline
210
0
220
0
230
1
 70
8
 71
2
 72
6
 73
3
 74
0
 40
0.000000000
 40
0.000000000
 40
0.000000000
 40
1.000000000
 40
1.000000000
 40
1.000000000
 10
76.391914299
 20
134.611501840
 30
0.000000000
 10
76.523654178
 20
134.659451234
 30
0.000000000
 10
76.582647353
 20
134.785316316
 30
0.000000000
  0
LINE
  5
B3A
330
A02
100
AcDbEntity
  8
View
100
AcDbLine
 10
75.736364546
 20
135.149028600
 30
0.000000000
 11
75.599707912
 21
135.975042764
 31
0.000000000
  0
SPLINE
  5
B3B
330
A02
100
AcDbEntity
  8
View
100
AcDbSpline
210
0
220
0
230
1
 70
8
 71
2
 72
6
 73
3
 74
0
 40
0.000000000
 40
0.000000000
 40
0.000000000
 40
1.000000000
 40
1.000000000
 40
1.000000000
 10
76.135167270
 20
134.622446885
 30
0.000000000
 10
76.262351939
 20
134.564344997
 30
0.000000000
 10
76.391914299
 20
134.611501840
 30
0.000000000
  0
LINE
  5
B3C
330
A02
100
AcDbEntity
  8
View
100
AcDbLine
 10
75.599707912
 20
135.975042764
 30
0.000000000
 11
76.299780159
 21
136.229848224
 31
0.000000000
  0
SPLINE
  5
B3D
330
A02
100
AcDbEntity
  8
View
100
AcDbSpline
210
0
220
0
230
1
 70
8
 71
2
 72
6
 73
3
 74
0
 40
0.000000000
 40
0.000000000
 40
0.000000000
 40
1.000000000
 40
1.000000000
 40
1.000000000
 10
75.960984269
 20
134.809675630
 30
0.000000000
 10
76.008352459
 20
134.679532598
 30
0.000000000
 10
76.135167270
 20
134.622446885
 30
0.000000000
  0
LINE
  5
B3E
330
A02
100
AcDbEntity
  8
View
100
AcDbLine
 10
76.299780159
 20
136.229848224
 30
0.000000000
 11
76.272573922
 21
136.020036862
 31
0.000000000
  0
LINE
  5
B3F
330
A02
100
AcDbEntity
  8
View
100
AcDbLine
 10
75.927036626
 20
134.902946012
 30
0.000000000
 11
75.960984269
 21
134.809675630
 31
0.000000000
  0
LINE
  5
B40
330
A02
100
AcDbEntity
  8
View
100
AcDbLine
 10
76.272573922
 20
136.020036862
 30
0.000000000
 11
75.808762449
 21
135.851223292
 31
0.000000000
  0
LINE
  5
B41
330
A02
100
AcDbEntity
  8
View
100
AcDbLine
 10
75.780468780
 20
134.763619037
 30
0.000000000
 11
75.927036626
 21
134.902946012
 31
0.000000000
  0
LINE
  5
B42
330
A02
100
AcDbEntity
  8
View
100
AcDbLine
 10
75.808762449
 20
135.851223292
 30
0.000000000
 11
75.896380178
 21
135.315772823
 31
0.000000000
  0
LINE
  5
B43
330
A02
100
AcDbEntity
  8
View
100
AcDbLine
 10
75.785620368
 20
134.749465166
 30
0.000000000
 11
75.780468780
 21
134.763619037
 31
0.000000000
  0
SPLINE
  5
B44
330
A02
100
AcDbEntity
  8
View
100
AcDbSpline
210
0
220
0
230
1
 70
8
 71
2
 72
6
 73
3
 74
0
 40
0.000000000
 40
0.000000000
 40
0.000000000
 40
1.000000000
 40
1.000000000
 40
1.000000000
 10
75.896380178
 20
135.315772823
 30
0.000000000
 10
75.975777962
 20
135.375413853
 30
0.000000000
 10
76.068322505
 20
135.409097312
 30
0.000000000
  0
SPLINE
  5
B45
330
A02
100
AcDbEntity
  8
View
100
AcDbSpline
210
0
220
0
230
1
 70
8
 71
2
 72
6
 73
3
 74
0
 40
0.000000000
 40
0.000000000
 40
0.000000000
 40
1.000000000
 40
1.000000000
 40
1.000000000
 10
76.054005024
 20
134.459249912
 30
0.000000000
 10
75.857267066
 20
134.552617479
 30
0.000000000
 10
75.785620368
 20
134.749465166
 30
0.000000000
  0
SPLINE
  5
B46
330
A02
100
AcDbEntity
  8
View
100
AcDbSpline
210
0
220
0
230
1
 70
8
 71
1
 72
4
 73
2
 74
0
 40
0.000000000
 40
0.000000000
 40
1.000000000
 40
1.000000000
 10
76.068322505
 20
135.409097312
 30
0.000000000
 10
76.117020467
 20
135.424355937
 30
0.000000000
  0
SPLINE
  5
B47
330
A02
100
AcDbEntity
  8
View
100
AcDbSpline
210
0
220
0
230
1
 70
8
 71
2
 72
6
 73
3
 74
0
 40
0.000000000
 40
0.000000000
 40
0.000000000
 40
1.000000000
 40
1.000000000
 40
1.000000000
 10
76.452782291
 20
134.444268407
 30
0.000000000
 10
76.245918019
 20
134.368975970
 30
0.000000000
 10
76.054005024
 20
134.459249912
 30
0.000000000
  0
SPLINE
  5
B48
330
A02
100
AcDbEntity
  8
View
100
AcDbSpline
210
0
220
0
230
1
 70
8
 71
2
 72
6
 73
3
 74
0
 40
0.000000000
 40
0.000000000
 40
0.000000000
 40
1.000000000
 40
1.000000000
 40
1.000000000
 10
76.117020467
 20
135.424355937
 30
0.000000000
 10
76.346656613
 20
135.484509811
 30
0.000000000
 10
76.513773120
 20
135.404774158
 30
0.000000000
  0
SPLINE
  5
B49
330
A02
100
AcDbEntity
  8
View
100
AcDbSpline
210
0
220
0
230
1
 70
8
 71
2
 72
6
 73
3
 74
0
 40
0.000000000
 40
0.000000000
 40
0.000000000
 40
1.000000000
 40
1.000000000
 40
1.000000000
 10
76.748580637
 20
134.712219159
 30
0.000000000
 10
76.657469044
 20
134.518768293
 30
0.000000000
 10
76.452782291
 20
134.444268407
 30
0.000000000
  0
SPLINE
  5
B4A
330
A02
100
AcDbEntity
  8
View
100
AcDbSpline
210
0
220
0
230
1
 70
8
 71
2
 72
6
 73
3
 74
0
 40
0.000000000
 40
0.000000000
 40
0.000000000
 40
1.000000000
 40
1.000000000
 40
1.000000000
 10
76.513773120
 20
135.404774158
 30
0.000000000
 10
76.686829769
 20
135.322268572
 30
0.000000000
 10
76.762518482
 20
135.114315541
 30
0.000000000
  0
SPLINE
  5
B4B
330
A02
100
AcDbEntity
  8
View
100
AcDbSpline
210
0
220
0
230
1
 70
8
 71
2
 72
6
 73
3
 74
0
 40
0.000000000
 40
0.000000000
 40
0.000000000
 40
1.000000000
 40
1.000000000
 40
1.000000000
 10
76.763707310
 20
135.111049263
 30
0.000000000
 10
76.838999748
 20
134.904184991
 30
0.000000000
 10
76.748580637
 20
134.712219159
 30
0.000000000
  0
LINE
  5
B4C
330
A02
100
AcDbEntity
  8
View
100
AcDbLine
 10
76.762518482
 20
135.114315541
 30
0.000000000
 11
76.763707310
 21
135.111049263
 31
0.000000000
  0
SPLINE
  5
B4D
330
A02
100
AcDbEntity
  8
View
100
AcDbSpline
210
0
220
0
230
1
 70
8
 71
2
 72
6
 73
3
 74
0
 40
0.000000000
 40
0.000000000
 40
0.000000000
 40
1.000000000
 40
1.000000000
 40
1.000000000
 10
77.506424057
 20
136.529209394
 30
0.000000000
 10
77.701814676
 20
136.439543609
 30
0.000000000
 10
77.774703040
 20
136.239284477
 30
0.000000000
  0
SPLINE
  5
B4E
330
A02
100
AcDbEntity
  8
View
100
AcDbSpline
210
0
220
0
230
1
 70
8
 71
2
 72
6
 73
3
 74
0
 40
0.000000000
 40
0.000000000
 40
0.000000000
 40
1.000000000
 40
1.000000000
 40
1.000000000
 10
77.107409024
 20
136.544844155
 30
0.000000000
 10
77.311007018
 20
136.618947764
 30
0.000000000
 10
77.506424057
 20
136.529209394
 30
0.000000000
  0
LINE
  5
B4F
330
A02
100
AcDbEntity
  8
View
100
AcDbLine
 10
77.774703040
 20
136.239284477
 30
0.000000000
 11
78.020711172
 21
135.563382687
 31
0.000000000
  0
SPLINE
  5
B50
330
A02
100
AcDbEntity
  8
View
100
AcDbSpline
210
0
220
0
230
1
 70
8
 71
2
 72
6
 73
3
 74
0
 40
0.000000000
 40
0.000000000
 40
0.000000000
 40
1.000000000
 40
1.000000000
 40
1.000000000
 10
76.811795606
 20
136.276385315
 30
0.000000000
 10
76.903811030
 20
136.470740545
 30
0.000000000
 10
77.107409024
 20
136.544844155
 30
0.000000000
  0
SPLINE
  5
B51
330
A02
100
AcDbEntity
  8
View
100
AcDbSpline
210
0
220
0
230
1
 70
8
 71
2
 72
6
 73
3
 74
0
 40
0.000000000
 40
0.000000000
 40
0.000000000
 40
1.000000000
 40
1.000000000
 40
1.000000000
 10
78.020711172
 20
135.563382687
 30
0.000000000
 10
78.093599536
 20
135.363123555
 30
0.000000000
 10
78.001584112
 20
135.168768324
 30
0.000000000
  0
SPLINE
  5
B52
330
A02
100
AcDbEntity
  8
View
100
AcDbSpline
210
0
220
0
230
1
 70
8
 71
2
 72
6
 73
3
 74
0
 40
0.000000000
 40
0.000000000
 40
0.000000000
 40
1.000000000
 40
1.000000000
 40
1.000000000
 10
76.792642127
 20
135.881843536
 30
0.000000000
 10
76.719753764
 20
136.082102668
 30
0.000000000
 10
76.811795606
 20
136.276385315
 30
0.000000000
  0
SPLINE
  5
B53
330
A02
100
AcDbEntity
  8
View
100
AcDbSpline
210
0
220
0
230
1
 70
8
 71
2
 72
6
 73
3
 74
0
 40
0.000000000
 40
0.000000000
 40
0.000000000
 40
1.000000000
 40
1.000000000
 40
1.000000000
 10
78.001584112
 20
135.168768324
 30
0.000000000
 10
77.909542269
 20
134.974485678
 30
0.000000000
 10
77.705944275
 20
134.900382068
 30
0.000000000
  0
LINE
  5
B54
330
A02
100
AcDbEntity
  8
View
100
AcDbLine
 10
77.038650260
 20
135.205941746
 30
0.000000000
 11
76.792642127
 21
135.881843536
 31
0.000000000
  0
SPLINE
  5
B55
330
A02
100
AcDbEntity
  8
View
100
AcDbSpline
210
0
220
0
230
1
 70
8
 71
2
 72
6
 73
3
 74
0
 40
0.000000000
 40
0.000000000
 40
0.000000000
 40
1.000000000
 40
1.000000000
 40
1.000000000
 10
77.705944275
 20
134.900382068
 30
0.000000000
 10
77.501257522
 20
134.825882183
 30
0.000000000
 10
77.307140590
 20
134.915436157
 30
0.000000000
  0
SPLINE
  5
B56
330
A02
100
AcDbEntity
  8
View
100
AcDbSpline
210
0
220
0
230
1
 70
8
 71
2
 72
6
 73
3
 74
0
 40
0.000000000
 40
0.000000000
 40
0.000000000
 40
1.000000000
 40
1.000000000
 40
1.000000000
 10
77.307140590
 20
134.915436157
 30
0.000000000
 10
77.111538623
 20
135.005682614
 30
0.000000000
 10
77.038650260
 20
135.205941746
 30
0.000000000
  0
LINE
  5
B57
330
A02
100
AcDbEntity
  8
View
100
AcDbLine
 10
43.236774284
 20
165.007794118
 30
0.000000000
 11
39.402259358
 21
165.007794118
 31
0.000000000
  0
LINE
  5
B58
330
A02
100
AcDbEntity
  8
View
100
AcDbLine
 10
43.236774284
 20
165.777943371
 30
0.000000000
 11
43.236774284
 21
165.007794118
 31
0.000000000
  0
LINE
  5
B59
330
A02
100
AcDbEntity
  8
View
100
AcDbLine
 10
39.402259358
 20
165.007794118
 30
0.000000000
 11
39.402259358
 21
165.846226953
 31
0.000000000
  0
LINE
  5
B5A
330
A02
100
AcDbEntity
  8
View
100
AcDbLine
 10
40.451139955
 20
165.777943371
 30
0.000000000
 11
43.236774284
 21
165.777943371
 31
0.000000000
  0
LINE
  5
B5B
330
A02
100
AcDbEntity
  8
View
100
AcDbLine
 10
39.402259358
 20
165.846226953
 30
0.000000000
 11
42.101979508
 21
168.679435909
 31
0.000000000
  0
LINE
  5
B5C
330
A02
100
AcDbEntity
  8
View
100
AcDbLine
 10
43.150580254
 20
168.611152327
 30
0.000000000
 11
40.451139955
 21
165.777943371
 31
0.000000000
  0
LINE
  5
B5D
330
A02
100
AcDbEntity
  8
View
100
AcDbLine
 10
42.101979508
 20
168.679435909
 30
0.000000000
 11
39.496848911
 21
168.679435909
 31
0.000000000
  0
LINE
  5
B5E
330
A02
100
AcDbEntity
  8
View
100
AcDbLine
 10
43.150580254
 20
169.449585162
 30
0.000000000
 11
43.150580254
 21
168.611152327
 31
0.000000000
  0
LINE
  5
B5F
330
A02
100
AcDbEntity
  8
View
100
AcDbLine
 10
39.496848911
 20
168.679435909
 30
0.000000000
 11
39.496848911
 21
169.449585162
 31
0.000000000
  0
LINE
  5
B60
330
A02
100
AcDbEntity
  8
View
100
AcDbLine
 10
39.496848911
 20
169.449585162
 30
0.000000000
 11
43.150580254
 21
169.449585162
 31
0.000000000
  0
LINE
  5
B61
330
A02
100
AcDbEntity
  8
View
100
AcDbLine
 10
45.583602642
 20
165.007794118
 30
0.000000000
 11
44.620636224
 21
165.007794118
 31
0.000000000
  0
LINE
  5
B62
330
A02
100
AcDbEntity
  8
View
100
AcDbLine
 10
45.583602642
 20
167.407794118
 30
0.000000000
 11
45.583602642
 21
165.007794118
 31
0.000000000
  0
LINE
  5
B63
330
A02
100
AcDbEntity
  8
View
100
AcDbLine
 10
44.620636224
 20
165.007794118
 30
0.000000000
 11
44.620636224
 21
171.007794118
 31
0.000000000
  0
LINE
  5
B64
330
A02
100
AcDbEntity
  8
View
100
AcDbLine
 10
46.864479508
 20
167.407794118
 30
0.000000000
 11
45.583602642
 21
167.407794118
 31
0.000000000
  0
LINE
  5
B65
330
A02
100
AcDbEntity
  8
View
100
AcDbLine
 10
44.620636224
 20
171.007794118
 30
0.000000000
 11
46.864479508
 21
171.007794118
 31
0.000000000
  0
SPLINE
  5
B66
330
A02
100
AcDbEntity
  8
View
100
AcDbSpline
210
0
220
0
230
1
 70
8
 71
2
 72
6
 73
3
 74
0
 40
0.000000000
 40
0.000000000
 40
0.000000000
 40
1.000000000
 40
1.000000000
 40
1.000000000
 10
48.175580254
 20
167.887738147
 30
0.000000000
 10
47.724181000
 20
167.407794118
 30
0.000000000
 10
46.864479508
 20
167.407794118
 30
0.000000000
  0
SPLINE
  5
B67
330
A02
100
AcDbEntity
  8
View
100
AcDbSpline
210
0
220
0
230
1
 70
8
 71
2
 72
6
 73
3
 74
0
 40
0.000000000
 40
0.000000000
 40
0.000000000
 40
1.000000000
 40
1.000000000
 40
1.000000000
 10
46.864479508
 20
171.007794118
 30
0.000000000
 10
47.724181000
 20
171.007794118
 30
0.000000000
 10
48.175580254
 20
170.527850088
 30
0.000000000
  0
SPLINE
  5
B68
330
A02
100
AcDbEntity
  8
View
100
AcDbSpline
210
0
220
0
230
1
 70
8
 71
2
 72
6
 73
3
 74
0
 40
0.000000000
 40
0.000000000
 40
0.000000000
 40
1.000000000
 40
1.000000000
 40
1.000000000
 10
48.626979508
 20
169.207794118
 30
0.000000000
 10
48.626979508
 20
168.367682177
 30
0.000000000
 10
48.175580254
 20
167.887738147
 30
0.000000000
  0
SPLINE
  5
B69
330
A02
100
AcDbEntity
  8
View
100
AcDbSpline
210
0
220
0
230
1
 70
8
 71
2
 72
6
 73
3
 74
0
 40
0.000000000
 40
0.000000000
 40
0.000000000
 40
1.000000000
 40
1.000000000
 40
1.000000000
 10
48.175580254
 20
170.527850088
 30
0.000000000
 10
48.626979508
 20
170.047906058
 30
0.000000000
 10
48.626979508
 20
169.207794118
 30
0.000000000
  0
SPLINE
  5
B6A
330
A02
100
AcDbEntity
  8
View
100
AcDbSpline
210
0
220
0
230
1
 70
8
 71
2
 72
6
 73
3
 74
0
 40
0.000000000
 40
0.000000000
 40
0.000000000
 40
1.000000000
 40
1.000000000
 40
1.000000000
 10
52.517184731
 20
165.063484416
 30
0.000000000
 10
52.125953388
 20
164.900331431
 30
0.000000000
 10
51.635934731
 20
164.900331431
 30
0.000000000
  0
SPLINE
  5
B6B
330
A02
100
AcDbEntity
  8
View
100
AcDbSpline
210
0
220
0
230
1
 70
8
 71
2
 72
6
 73
3
 74
0
 40
0.000000000
 40
0.000000000
 40
0.000000000
 40
1.000000000
 40
1.000000000
 40
1.000000000
 10
53.179031746
 20
165.527197103
 30
0.000000000
 10
52.908416075
 20
165.226637401
 30
0.000000000
 10
52.517184731
 20
165.063484416
 30
0.000000000
  0
SPLINE
  5
B6C
330
A02
100
AcDbEntity
  8
View
100
AcDbSpline
210
0
220
0
230
1
 70
8
 71
2
 72
6
 73
3
 74
0
 40
0.000000000
 40
0.000000000
 40
0.000000000
 40
1.000000000
 40
1.000000000
 40
1.000000000
 10
51.635934731
 20
164.900331431
 30
0.000000000
 10
51.145916075
 20
164.900331431
 30
0.000000000
 10
50.754684731
 20
165.063484416
 30
0.000000000
  0
SPLINE
  5
B6D
330
A02
100
AcDbEntity
  8
View
100
AcDbSpline
210
0
220
0
230
1
 70
8
 71
2
 72
6
 73
3
 74
0
 40
0.000000000
 40
0.000000000
 40
0.000000000
 40
1.000000000
 40
1.000000000
 40
1.000000000
 10
53.596009358
 20
166.257607550
 30
0.000000000
 10
53.449927269
 20
165.828036655
 30
0.000000000
 10
53.179031746
 20
165.527197103
 30
0.000000000
  0
SPLINE
  5
B6E
330
A02
100
AcDbEntity
  8
View
100
AcDbSpline
210
0
220
0
230
1
 70
8
 71
2
 72
6
 73
3
 74
0
 40
0.000000000
 40
0.000000000
 40
0.000000000
 40
1.000000000
 40
1.000000000
 40
1.000000000
 10
50.754684731
 20
165.063484416
 30
0.000000000
 10
50.363453388
 20
165.226637401
 30
0.000000000
 10
50.092557866
 20
165.527197103
 30
0.000000000
  0
SPLINE
  5
B6F
330
A02
100
AcDbEntity
  8
View
100
AcDbSpline
210
0
220
0
230
1
 70
8
 71
2
 72
6
 73
3
 74
0
 40
0.000000000
 40
0.000000000
 40
0.000000000
 40
1.000000000
 40
1.000000000
 40
1.000000000
 10
53.742091448
 20
167.219734416
 30
0.000000000
 10
53.742091448
 20
166.687178446
 30
0.000000000
 10
53.596009358
 20
166.257607550
 30
0.000000000
  0
SPLINE
  5
B70
330
A02
100
AcDbEntity
  8
View
100
AcDbSpline
210
0
220
0
230
1
 70
8
 71
2
 72
6
 73
3
 74
0
 40
0.000000000
 40
0.000000000
 40
0.000000000
 40
1.000000000
 40
1.000000000
 40
1.000000000
 10
50.092557866
 20
165.527197103
 30
0.000000000
 10
49.821942194
 20
165.828036655
 30
0.000000000
 10
49.675860105
 20
166.257607550
 30
0.000000000
  0
SPLINE
  5
B71
330
A02
100
AcDbEntity
  8
View
100
AcDbSpline
210
0
220
0
230
1
 70
8
 71
2
 72
6
 73
3
 74
0
 40
0.000000000
 40
0.000000000
 40
0.000000000
 40
1.000000000
 40
1.000000000
 40
1.000000000
 10
53.596009358
 20
168.181861282
 30
0.000000000
 10
53.742091448
 20
167.752290386
 30
0.000000000
 10
53.742091448
 20
167.219734416
 30
0.000000000
  0
SPLINE
  5
B72
330
A02
100
AcDbEntity
  8
View
100
AcDbSpline
210
0
220
0
230
1
 70
8
 71
2
 72
6
 73
3
 74
0
 40
0.000000000
 40
0.000000000
 40
0.000000000
 40
1.000000000
 40
1.000000000
 40
1.000000000
 10
49.675860105
 20
166.257607550
 30
0.000000000
 10
49.529778015
 20
166.687178446
 30
0.000000000
 10
49.529778015
 20
167.219734416
 30
0.000000000
  0
SPLINE
  5
B73
330
A02
100
AcDbEntity
  8
View
100
AcDbSpline
210
0
220
0
230
1
 70
8
 71
2
 72
6
 73
3
 74
0
 40
0.000000000
 40
0.000000000
 40
0.000000000
 40
1.000000000
 40
1.000000000
 40
1.000000000
 10
53.179031746
 20
168.911991879
 30
0.000000000
 10
53.449927269
 20
168.611432177
 30
0.000000000
 10
53.596009358
 20
168.181861282
 30
0.000000000
  0
SPLINE
  5
B74
330
A02
100
AcDbEntity
  8
View
100
AcDbSpline
210
0
220
0
230
1
 70
8
 71
2
 72
6
 73
3
 74
0
 40
0.000000000
 40
0.000000000
 40
0.000000000
 40
1.000000000
 40
1.000000000
 40
1.000000000
 10
49.529778015
 20
167.219734416
 30
0.000000000
 10
49.529778015
 20
167.752290386
 30
0.000000000
 10
49.675860105
 20
168.181861282
 30
0.000000000
  0
SPLINE
  5
B75
330
A02
100
AcDbEntity
  8
View
100
AcDbSpline
210
0
220
0
230
1
 70
8
 71
2
 72
6
 73
3
 74
0
 40
0.000000000
 40
0.000000000
 40
0.000000000
 40
1.000000000
 40
1.000000000
 40
1.000000000
 10
52.517184731
 20
169.375984416
 30
0.000000000
 10
52.908416075
 20
169.212831431
 30
0.000000000
 10
53.179031746
 20
168.911991879
 30
0.000000000
  0
SPLINE
  5
B76
330
A02
100
AcDbEntity
  8
View
100
AcDbSpline
210
0
220
0
230
1
 70
8
 71
2
 72
6
 73
3
 74
0
 40
0.000000000
 40
0.000000000
 40
0.000000000
 40
1.000000000
 40
1.000000000
 40
1.000000000
 10
49.675860105
 20
168.181861282
 30
0.000000000
 10
49.821942194
 20
168.611432177
 30
0.000000000
 10
50.092557866
 20
168.911991879
 30
0.000000000
  0
SPLINE
  5
B77
330
A02
100
AcDbEntity
  8
View
100
AcDbSpline
210
0
220
0
230
1
 70
8
 71
2
 72
6
 73
3
 74
0
 40
0.000000000
 40
0.000000000
 40
0.000000000
 40
1.000000000
 40
1.000000000
 40
1.000000000
 10
51.635934731
 20
169.539137401
 30
0.000000000
 10
52.125953388
 20
169.539137401
 30
0.000000000
 10
52.517184731
 20
169.375984416
 30
0.000000000
  0
SPLINE
  5
B78
330
A02
100
AcDbEntity
  8
View
100
AcDbSpline
210
0
220
0
230
1
 70
8
 71
2
 72
6
 73
3
 74
0
 40
0.000000000
 40
0.000000000
 40
0.000000000
 40
1.000000000
 40
1.000000000
 40
1.000000000
 10
50.092557866
 20
168.911991879
 30
0.000000000
 10
50.363453388
 20
169.212831431
 30
0.000000000
 10
50.754684731
 20
169.375984416
 30
0.000000000
  0
SPLINE
  5
B79
330
A02
100
AcDbEntity
  8
View
100
AcDbSpline
210
0
220
0
230
1
 70
8
 71
2
 72
6
 73
3
 74
0
 40
0.000000000
 40
0.000000000
 40
0.000000000
 40
1.000000000
 40
1.000000000
 40
1.000000000
 10
50.754684731
 20
169.375984416
 30
0.000000000
 10
51.145916075
 20
169.539137401
 30
0.000000000
 10
51.635934731
 20
169.539137401
 30
0.000000000
  0
SPLINE
  5
B7A
330
A02
100
AcDbEntity
  8
View
100
AcDbSpline
210
0
220
0
230
1
 70
8
 71
2
 72
6
 73
3
 74
0
 40
0.000000000
 40
0.000000000
 40
0.000000000
 40
1.000000000
 40
1.000000000
 40
1.000000000
 10
58.092091448
 20
165.195573968
 30
0.000000000
 10
57.653845179
 20
164.900331431
 30
0.000000000
 10
56.957576522
 20
164.900331431
 30
0.000000000
  0
SPLINE
  5
B7B
330
A02
100
AcDbEntity
  8
View
100
AcDbSpline
210
0
220
0
230
1
 70
8
 71
2
 72
6
 73
3
 74
0
 40
0.000000000
 40
0.000000000
 40
0.000000000
 40
1.000000000
 40
1.000000000
 40
1.000000000
 10
58.745542940
 20
165.954249342
 30
0.000000000
 10
58.530617567
 20
165.490816506
 30
0.000000000
 10
58.092091448
 20
165.195573968
 30
0.000000000
  0
SPLINE
  5
B7C
330
A02
100
AcDbEntity
  8
View
100
AcDbSpline
210
0
220
0
230
1
 70
8
 71
2
 72
6
 73
3
 74
0
 40
0.000000000
 40
0.000000000
 40
0.000000000
 40
1.000000000
 40
1.000000000
 40
1.000000000
 10
56.957576522
 20
164.900331431
 30
0.000000000
 10
56.458882493
 20
164.900331431
 30
0.000000000
 10
56.067651149
 20
165.063484416
 30
0.000000000
  0
LINE
  5
B7D
330
A02
100
AcDbEntity
  8
View
100
AcDbLine
 10
58.057949657
 20
166.375424715
 30
0.000000000
 11
58.745542940
 21
165.954249342
 31
0.000000000
  0
SPLINE
  5
B7E
330
A02
100
AcDbEntity
  8
View
100
AcDbSpline
210
0
220
0
230
1
 70
8
 71
2
 72
6
 73
3
 74
0
 40
0.000000000
 40
0.000000000
 40
0.000000000
 40
1.000000000
 40
1.000000000
 40
1.000000000
 10
56.067651149
 20
165.063484416
 30
0.000000000
 10
55.676419806
 20
165.226637401
 30
0.000000000
 10
55.405524284
 20
165.527197103
 30
0.000000000
  0
SPLINE
  5
B7F
330
A02
100
AcDbEntity
  8
View
100
AcDbSpline
210
0
220
0
230
1
 70
8
 71
2
 72
6
 73
3
 74
0
 40
0.000000000
 40
0.000000000
 40
0.000000000
 40
1.000000000
 40
1.000000000
 40
1.000000000
 10
57.640972045
 20
165.859659789
 30
0.000000000
 10
57.903192194
 20
166.048838894
 30
0.000000000
 10
58.057949657
 20
166.375424715
 30
0.000000000
  0
SPLINE
  5
B80
330
A02
100
AcDbEntity
  8
View
100
AcDbSpline
210
0
220
0
230
1
 70
8
 71
2
 72
6
 73
3
 74
0
 40
0.000000000
 40
0.000000000
 40
0.000000000
 40
1.000000000
 40
1.000000000
 40
1.000000000
 10
55.405524284
 20
165.527197103
 30
0.000000000
 10
55.134908612
 20
165.828036655
 30
0.000000000
 10
54.993024284
 20
166.257607550
 30
0.000000000
  0
SPLINE
  5
B81
330
A02
100
AcDbEntity
  8
View
100
AcDbSpline
210
0
220
0
230
1
 70
8
 71
2
 72
6
 73
3
 74
0
 40
0.000000000
 40
0.000000000
 40
0.000000000
 40
1.000000000
 40
1.000000000
 40
1.000000000
 10
56.965972045
 20
165.670480685
 30
0.000000000
 10
57.378751896
 20
165.670480685
 30
0.000000000
 10
57.640972045
 20
165.859659789
 30
0.000000000
  0
SPLINE
  5
B82
330
A02
100
AcDbEntity
  8
View
100
AcDbSpline
210
0
220
0
230
1
 70
8
 71
2
 72
6
 73
3
 74
0
 40
0.000000000
 40
0.000000000
 40
0.000000000
 40
1.000000000
 40
1.000000000
 40
1.000000000
 10
54.993024284
 20
166.257607550
 30
0.000000000
 10
54.851139955
 20
166.687178446
 30
0.000000000
 10
54.851139955
 20
167.219734416
 30
0.000000000
  0
SPLINE
  5
B83
330
A02
100
AcDbEntity
  8
View
100
AcDbSpline
210
0
220
0
230
1
 70
8
 71
2
 72
6
 73
3
 74
0
 40
0.000000000
 40
0.000000000
 40
0.000000000
 40
1.000000000
 40
1.000000000
 40
1.000000000
 10
56.123341448
 20
165.997346356
 30
0.000000000
 10
56.415785478
 20
165.670480685
 30
0.000000000
 10
56.965972045
 20
165.670480685
 30
0.000000000
  0
SPLINE
  5
B84
330
A02
100
AcDbEntity
  8
View
100
AcDbSpline
210
0
220
0
230
1
 70
8
 71
2
 72
6
 73
3
 74
0
 40
0.000000000
 40
0.000000000
 40
0.000000000
 40
1.000000000
 40
1.000000000
 40
1.000000000
 10
54.851139955
 20
167.219734416
 30
0.000000000
 10
54.851139955
 20
167.752290386
 30
0.000000000
 10
54.993024284
 20
168.181861282
 30
0.000000000
  0
SPLINE
  5
B85
330
A02
100
AcDbEntity
  8
View
100
AcDbSpline
210
0
220
0
230
1
 70
8
 71
2
 72
6
 73
3
 74
0
 40
0.000000000
 40
0.000000000
 40
0.000000000
 40
1.000000000
 40
1.000000000
 40
1.000000000
 10
55.831177269
 20
166.849771730
 30
0.000000000
 10
55.831177269
 20
166.324491879
 30
0.000000000
 10
56.123341448
 20
165.997346356
 30
0.000000000
  0
SPLINE
  5
B86
330
A02
100
AcDbEntity
  8
View
100
AcDbSpline
210
0
220
0
230
1
 70
8
 71
2
 72
6
 73
3
 74
0
 40
0.000000000
 40
0.000000000
 40
0.000000000
 40
1.000000000
 40
1.000000000
 40
1.000000000
 10
54.993024284
 20
168.181861282
 30
0.000000000
 10
55.134908612
 20
168.611432177
 30
0.000000000
 10
55.405524284
 20
168.911991879
 30
0.000000000
  0
LINE
  5
B87
330
A02
100
AcDbEntity
  8
View
100
AcDbLine
 10
55.831177269
 20
167.589697103
 30
0.000000000
 11
55.831177269
 21
166.849771730
 31
0.000000000
  0
SPLINE
  5
B88
330
A02
100
AcDbEntity
  8
View
100
AcDbSpline
210
0
220
0
230
1
 70
8
 71
2
 72
6
 73
3
 74
0
 40
0.000000000
 40
0.000000000
 40
0.000000000
 40
1.000000000
 40
1.000000000
 40
1.000000000
 10
55.405524284
 20
168.911991879
 30
0.000000000
 10
55.676419806
 20
169.212831431
 30
0.000000000
 10
56.067651149
 20
169.375984416
 30
0.000000000
  0
SPLINE
  5
B89
330
A02
100
AcDbEntity
  8
View
100
AcDbSpline
210
0
220
0
230
1
 70
8
 71
2
 72
6
 73
3
 74
0
 40
0.000000000
 40
0.000000000
 40
0.000000000
 40
1.000000000
 40
1.000000000
 40
1.000000000
 10
56.123341448
 20
168.446040386
 30
0.000000000
 10
55.831177269
 20
168.123372476
 30
0.000000000
 10
55.831177269
 20
167.589697103
 30
0.000000000
  0
SPLINE
  5
B8A
330
A02
100
AcDbEntity
  8
View
100
AcDbSpline
210
0
220
0
230
1
 70
8
 71
2
 72
6
 73
3
 74
0
 40
0.000000000
 40
0.000000000
 40
0.000000000
 40
1.000000000
 40
1.000000000
 40
1.000000000
 10
56.067651149
 20
169.375984416
 30
0.000000000
 10
56.458882493
 20
169.539137401
 30
0.000000000
 10
56.948901149
 20
169.539137401
 30
0.000000000
  0
SPLINE
  5
B8B
330
A02
100
AcDbEntity
  8
View
100
AcDbSpline
210
0
220
0
230
1
 70
8
 71
2
 72
6
 73
3
 74
0
 40
0.000000000
 40
0.000000000
 40
0.000000000
 40
1.000000000
 40
1.000000000
 40
1.000000000
 10
56.948901149
 20
168.768988147
 30
0.000000000
 10
56.415785478
 20
168.768988147
 30
0.000000000
 10
56.123341448
 20
168.446040386
 30
0.000000000
  0
SPLINE
  5
B8C
330
A02
100
AcDbEntity
  8
View
100
AcDbSpline
210
0
220
0
230
1
 70
8
 71
2
 72
6
 73
3
 74
0
 40
0.000000000
 40
0.000000000
 40
0.000000000
 40
1.000000000
 40
1.000000000
 40
1.000000000
 10
56.948901149
 20
169.539137401
 30
0.000000000
 10
57.636774284
 20
169.539137401
 30
0.000000000
 10
58.053472045
 20
169.248092625
 30
0.000000000
  0
SPLINE
  5
B8D
330
A02
100
AcDbEntity
  8
View
100
AcDbSpline
210
0
220
0
230
1
 70
8
 71
2
 72
6
 73
3
 74
0
 40
0.000000000
 40
0.000000000
 40
0.000000000
 40
1.000000000
 40
1.000000000
 40
1.000000000
 10
57.580524284
 20
168.588484416
 30
0.000000000
 10
57.335654881
 20
168.768988147
 30
0.000000000
 10
56.948901149
 20
168.768988147
 30
0.000000000
  0
SPLINE
  5
B8E
330
A02
100
AcDbEntity
  8
View
100
AcDbSpline
210
0
220
0
230
1
 70
8
 71
2
 72
6
 73
3
 74
0
 40
0.000000000
 40
0.000000000
 40
0.000000000
 40
1.000000000
 40
1.000000000
 40
1.000000000
 10
58.053472045
 20
169.248092625
 30
0.000000000
 10
58.470449657
 20
168.957327700
 30
0.000000000
 10
58.676979508
 20
168.493894864
 30
0.000000000
  0
SPLINE
  5
B8F
330
A02
100
AcDbEntity
  8
View
100
AcDbSpline
210
0
220
0
230
1
 70
8
 71
2
 72
6
 73
3
 74
0
 40
0.000000000
 40
0.000000000
 40
0.000000000
 40
1.000000000
 40
1.000000000
 40
1.000000000
 10
57.946009358
 20
168.098465759
 30
0.000000000
 10
57.825673537
 20
168.407980685
 30
0.000000000
 10
57.580524284
 20
168.588484416
 30
0.000000000
  0
LINE
  5
B90
330
A02
100
AcDbEntity
  8
View
100
AcDbLine
 10
58.676979508
 20
168.493894864
 30
0.000000000
 11
57.946009358
 21
168.098465759
 31
0.000000000
  0
SPLINE
  5
B91
330
A02
100
AcDbEntity
  8
View
100
AcDbSpline
210
0
220
0
230
1
 70
8
 71
2
 72
6
 73
3
 74
0
 40
0.000000000
 40
0.000000000
 40
0.000000000
 40
1.000000000
 40
1.000000000
 40
1.000000000
 10
68.352819060
 20
165.167029192
 30
0.000000000
 10
67.893024284
 20
164.900331431
 30
0.000000000
 10
67.205151149
 20
164.900331431
 30
0.000000000
  0
SPLINE
  5
B92
330
A02
100
AcDbEntity
  8
View
100
AcDbSpline
210
0
220
0
230
1
 70
8
 71
2
 72
6
 73
3
 74
0
 40
0.000000000
 40
0.000000000
 40
0.000000000
 40
1.000000000
 40
1.000000000
 40
1.000000000
 10
69.036214582
 20
165.820760536
 30
0.000000000
 10
68.812893687
 20
165.433726953
 30
0.000000000
 10
68.352819060
 20
165.167029192
 30
0.000000000
  0
SPLINE
  5
B93
330
A02
100
AcDbEntity
  8
View
100
AcDbSpline
210
0
220
0
230
1
 70
8
 71
2
 72
6
 73
3
 74
0
 40
0.000000000
 40
0.000000000
 40
0.000000000
 40
1.000000000
 40
1.000000000
 40
1.000000000
 10
67.205151149
 20
164.900331431
 30
0.000000000
 10
66.697781746
 20
164.900331431
 30
0.000000000
 10
66.293677269
 20
165.063484416
 30
0.000000000
  0
LINE
  5
B94
330
A02
100
AcDbEntity
  8
View
100
AcDbLine
 10
68.451606373
 20
166.336805312
 30
0.000000000
 11
69.036214582
 21
165.820760536
 31
0.000000000
  0
SPLINE
  5
B95
330
A02
100
AcDbEntity
  8
View
100
AcDbSpline
210
0
220
0
230
1
 70
8
 71
2
 72
6
 73
3
 74
0
 40
0.000000000
 40
0.000000000
 40
0.000000000
 40
1.000000000
 40
1.000000000
 40
1.000000000
 10
66.293677269
 20
165.063484416
 30
0.000000000
 10
65.889852642
 20
165.226637401
 30
0.000000000
 10
65.614759358
 20
165.527197103
 30
0.000000000
  0
SPLINE
  5
B96
330
A02
100
AcDbEntity
  8
View
100
AcDbSpline
210
0
220
0
230
1
 70
8
 71
2
 72
6
 73
3
 74
0
 40
0.000000000
 40
0.000000000
 40
0.000000000
 40
1.000000000
 40
1.000000000
 40
1.000000000
 10
67.957110105
 20
165.851823968
 30
0.000000000
 10
68.262427269
 20
166.033167252
 30
0.000000000
 10
68.451606373
 20
166.336805312
 30
0.000000000
  0
SPLINE
  5
B97
330
A02
100
AcDbEntity
  8
View
100
AcDbSpline
210
0
220
0
230
1
 70
8
 71
2
 72
6
 73
3
 74
0
 40
0.000000000
 40
0.000000000
 40
0.000000000
 40
1.000000000
 40
1.000000000
 40
1.000000000
 10
65.614759358
 20
165.527197103
 30
0.000000000
 10
65.339666075
 20
165.828036655
 30
0.000000000
 10
65.193304134
 20
166.253129939
 30
0.000000000
  0
SPLINE
  5
B98
330
A02
100
AcDbEntity
  8
View
100
AcDbSpline
210
0
220
0
230
1
 70
8
 71
2
 72
6
 73
3
 74
0
 40
0.000000000
 40
0.000000000
 40
0.000000000
 40
1.000000000
 40
1.000000000
 40
1.000000000
 10
67.222222045
 20
165.670480685
 30
0.000000000
 10
67.652072791
 20
165.670480685
 30
0.000000000
 10
67.957110105
 20
165.851823968
 30
0.000000000
  0
SPLINE
  5
B99
330
A02
100
AcDbEntity
  8
View
100
AcDbSpline
210
0
220
0
230
1
 70
8
 71
2
 72
6
 73
3
 74
0
 40
0.000000000
 40
0.000000000
 40
0.000000000
 40
1.000000000
 40
1.000000000
 40
1.000000000
 10
65.193304134
 20
166.253129939
 30
0.000000000
 10
65.047222045
 20
166.678503073
 30
0.000000000
 10
65.047222045
 20
167.211059043
 30
0.000000000
  0
SPLINE
  5
B9A
330
A02
100
AcDbEntity
  8
View
100
AcDbSpline
210
0
220
0
230
1
 70
8
 71
2
 72
6
 73
3
 74
0
 40
0.000000000
 40
0.000000000
 40
0.000000000
 40
1.000000000
 40
1.000000000
 40
1.000000000
 10
66.319423537
 20
165.995107550
 30
0.000000000
 10
66.646289209
 20
165.670480685
 30
0.000000000
 10
67.222222045
 20
165.670480685
 30
0.000000000
  0
SPLINE
  5
B9B
330
A02
100
AcDbEntity
  8
View
100
AcDbSpline
210
0
220
0
230
1
 70
8
 71
2
 72
6
 73
3
 74
0
 40
0.000000000
 40
0.000000000
 40
0.000000000
 40
1.000000000
 40
1.000000000
 40
1.000000000
 10
65.047222045
 20
167.211059043
 30
0.000000000
 10
65.047222045
 20
167.743615013
 30
0.000000000
 10
65.197501896
 20
168.173185909
 30
0.000000000
  0
SPLINE
  5
B9C
330
A02
100
AcDbEntity
  8
View
100
AcDbSpline
210
0
220
0
230
1
 70
8
 71
2
 72
6
 73
3
 74
0
 40
0.000000000
 40
0.000000000
 40
0.000000000
 40
1.000000000
 40
1.000000000
 40
1.000000000
 10
65.992837716
 20
166.834659789
 30
0.000000000
 10
65.992837716
 20
166.320014267
 30
0.000000000
 10
66.319423537
 20
165.995107550
 30
0.000000000
  0
SPLINE
  5
B9D
330
A02
100
AcDbEntity
  8
View
100
AcDbSpline
210
0
220
0
230
1
 70
8
 71
2
 72
6
 73
3
 74
0
 40
0.000000000
 40
0.000000000
 40
0.000000000
 40
1.000000000
 40
1.000000000
 40
1.000000000
 10
65.197501896
 20
168.173185909
 30
0.000000000
 10
65.348061597
 20
168.602756804
 30
0.000000000
 10
65.618957119
 20
168.907794118
 30
0.000000000
  0
LINE
  5
B9E
330
A02
100
AcDbEntity
  8
View
100
AcDbLine
 10
65.992837716
 20
166.977943371
 30
0.000000000
 11
65.992837716
 21
166.834659789
 31
0.000000000
  0
SPLINE
  5
B9F
330
A02
100
AcDbEntity
  8
View
100
AcDbSpline
210
0
220
0
230
1
 70
8
 71
2
 72
6
 73
3
 74
0
 40
0.000000000
 40
0.000000000
 40
0.000000000
 40
1.000000000
 40
1.000000000
 40
1.000000000
 10
65.618957119
 20
168.907794118
 30
0.000000000
 10
65.889852642
 20
169.212831431
 30
0.000000000
 10
66.276606373
 20
169.375984416
 30
0.000000000
  0
LINE
  5
BA0
330
A02
100
AcDbEntity
  8
View
100
AcDbLine
 10
69.173901149
 20
166.977943371
 30
0.000000000
 11
65.992837716
 21
166.977943371
 31
0.000000000
  0
SPLINE
  5
BA1
330
A02
100
AcDbEntity
  8
View
100
AcDbSpline
210
0
220
0
230
1
 70
8
 71
2
 72
6
 73
3
 74
0
 40
0.000000000
 40
0.000000000
 40
0.000000000
 40
1.000000000
 40
1.000000000
 40
1.000000000
 10
66.276606373
 20
169.375984416
 30
0.000000000
 10
66.663639955
 20
169.539137401
 30
0.000000000
 10
67.136307866
 20
169.539137401
 30
0.000000000
  0
LINE
  5
BA2
330
A02
100
AcDbEntity
  8
View
100
AcDbLine
 10
69.173901149
 20
167.331394864
 30
0.000000000
 11
69.173901149
 21
166.977943371
 31
0.000000000
  0
SPLINE
  5
BA3
330
A02
100
AcDbEntity
  8
View
100
AcDbSpline
210
0
220
0
230
1
 70
8
 71
2
 72
6
 73
3
 74
0
 40
0.000000000
 40
0.000000000
 40
0.000000000
 40
1.000000000
 40
1.000000000
 40
1.000000000
 10
67.136307866
 20
169.539137401
 30
0.000000000
 10
67.600580254
 20
169.539137401
 30
0.000000000
 10
67.978658612
 20
169.379622476
 30
0.000000000
  0
SPLINE
  5
BA4
330
A02
100
AcDbEntity
  8
View
100
AcDbSpline
210
0
220
0
230
1
 70
8
 71
2
 72
6
 73
3
 74
0
 40
0.000000000
 40
0.000000000
 40
0.000000000
 40
1.000000000
 40
1.000000000
 40
1.000000000
 10
69.032016821
 20
168.228316506
 30
0.000000000
 10
69.173901149
 20
167.823092625
 30
0.000000000
 10
69.173901149
 20
167.331394864
 30
0.000000000
  0
SPLINE
  5
BA5
330
A02
100
AcDbEntity
  8
View
100
AcDbSpline
210
0
220
0
230
1
 70
8
 71
2
 72
6
 73
3
 74
0
 40
0.000000000
 40
0.000000000
 40
0.000000000
 40
1.000000000
 40
1.000000000
 40
1.000000000
 10
67.978658612
 20
169.379622476
 30
0.000000000
 10
68.357016821
 20
169.220107550
 30
0.000000000
 10
68.623434731
 20
168.926823968
 30
0.000000000
  0
SPLINE
  5
BA6
330
A02
100
AcDbEntity
  8
View
100
AcDbSpline
210
0
220
0
230
1
 70
8
 71
2
 72
6
 73
3
 74
0
 40
0.000000000
 40
0.000000000
 40
0.000000000
 40
1.000000000
 40
1.000000000
 40
1.000000000
 10
68.623434731
 20
168.926823968
 30
0.000000000
 10
68.890132493
 20
168.633540386
 30
0.000000000
 10
69.032016821
 20
168.228316506
 30
0.000000000
  0
LINE
  5
BA7
330
A02
100
AcDbEntity
  8
View
100
AcDbLine
 10
60.129684731
 20
165.007794118
 30
0.000000000
 11
60.129684731
 21
171.366003073
 31
0.000000000
  0
LINE
  5
BA8
330
A02
100
AcDbEntity
  8
View
100
AcDbLine
 10
61.066904881
 20
165.007794118
 30
0.000000000
 11
60.129684731
 21
165.007794118
 31
0.000000000
  0
LINE
  5
BA9
330
A02
100
AcDbEntity
  8
View
100
AcDbLine
 10
60.129684731
 20
171.366003073
 30
0.000000000
 11
61.066904881
 21
171.366003073
 31
0.000000000
  0
LINE
  5
BAA
330
A02
100
AcDbEntity
  8
View
100
AcDbLine
 10
61.066904881
 20
166.593148595
 30
0.000000000
 11
61.066904881
 21
165.007794118
 31
0.000000000
  0
LINE
  5
BAB
330
A02
100
AcDbEntity
  8
View
100
AcDbLine
 10
61.066904881
 20
171.366003073
 30
0.000000000
 11
61.066904881
 21
167.530088894
 31
0.000000000
  0
LINE
  5
BAC
330
A02
100
AcDbEntity
  8
View
100
AcDbLine
 10
61.685934731
 20
167.169361282
 30
0.000000000
 11
61.066904881
 21
166.593148595
 31
0.000000000
  0
LINE
  5
BAD
330
A02
100
AcDbEntity
  8
View
100
AcDbLine
 10
61.066904881
 20
167.530088894
 30
0.000000000
 11
61.109722045
 21
167.530088894
 31
0.000000000
  0
LINE
  5
BAE
330
A02
100
AcDbEntity
  8
View
100
AcDbLine
 10
63.233229508
 20
165.007794118
 30
0.000000000
 11
61.685934731
 21
167.169361282
 31
0.000000000
  0
LINE
  5
BAF
330
A02
100
AcDbEntity
  8
View
100
AcDbLine
 10
61.109722045
 20
167.530088894
 30
0.000000000
 11
61.806270552
 21
168.244547849
 31
0.000000000
  0
LINE
  5
BB0
330
A02
100
AcDbEntity
  8
View
100
AcDbLine
 10
64.359628761
 20
165.007794118
 30
0.000000000
 11
63.233229508
 21
165.007794118
 31
0.000000000
  0
LINE
  5
BB1
330
A02
100
AcDbEntity
  8
View
100
AcDbLine
 10
61.806270552
 20
168.244547849
 30
0.000000000
 11
63.052725776
 21
169.449585162
 31
0.000000000
  0
LINE
  5
BB2
330
A02
100
AcDbEntity
  8
View
100
AcDbLine
 10
62.365132493
 20
167.702197103
 30
0.000000000
 11
64.359628761
 21
165.007794118
 31
0.000000000
  0
LINE
  5
BB3
330
A02
100
AcDbEntity
  8
View
100
AcDbLine
 10
63.052725776
 20
169.449585162
 30
0.000000000
 11
64.161774284
 21
169.449585162
 31
0.000000000
  0
LINE
  5
BB4
330
A02
100
AcDbEntity
  8
View
100
AcDbLine
 10
64.161774284
 20
169.449585162
 30
0.000000000
 11
62.365132493
 21
167.702197103
 31
0.000000000
  0
LINE
  5
BB5
330
A02
100
AcDbEntity
  8
View
100
AcDbLine
 10
74.228845179
 20
165.007794118
 30
0.000000000
 11
72.535188463
 21
165.007794118
 31
0.000000000
  0
LINE
  5
BB6
330
A02
100
AcDbEntity
  8
View
100
AcDbLine
 10
74.228845179
 20
165.777943371
 30
0.000000000
 11
74.228845179
 21
165.007794118
 31
0.000000000
  0
SPLINE
  5
BB7
330
A02
100
AcDbEntity
  8
View
100
AcDbSpline
210
0
220
0
230
1
 70
8
 71
2
 72
6
 73
3
 74
0
 40
0.000000000
 40
0.000000000
 40
0.000000000
 40
1.000000000
 40
1.000000000
 40
1.000000000
 10
72.535188463
 20
165.007794118
 30
0.000000000
 10
71.950580254
 20
165.007794118
 30
0.000000000
 10
71.675486970
 20
165.320947103
 30
0.000000000
  0
LINE
  5
BB8
330
A02
100
AcDbEntity
  8
View
100
AcDbLine
 10
72.337613836
 20
165.777943371
 30
0.000000000
 11
74.228845179
 21
165.777943371
 31
0.000000000
  0
SPLINE
  5
BB9
330
A02
100
AcDbEntity
  8
View
100
AcDbSpline
210
0
220
0
230
1
 70
8
 71
2
 72
6
 73
3
 74
0
 40
0.000000000
 40
0.000000000
 40
0.000000000
 40
1.000000000
 40
1.000000000
 40
1.000000000
 10
71.675486970
 20
165.320947103
 30
0.000000000
 10
71.400393687
 20
165.634100088
 30
0.000000000
 10
71.400393687
 20
166.131674715
 30
0.000000000
  0
LINE
  5
BBA
330
A02
100
AcDbEntity
  8
View
100
AcDbLine
 10
72.337613836
 20
168.679435909
 30
0.000000000
 11
72.337613836
 21
165.777943371
 31
0.000000000
  0
LINE
  5
BBB
330
A02
100
AcDbEntity
  8
View
100
AcDbLine
 10
71.400393687
 20
166.131674715
 30
0.000000000
 11
71.400393687
 21
168.679435909
 31
0.000000000
  0
LINE
  5
BBC
330
A02
100
AcDbEntity
  8
View
100
AcDbLine
 10
74.228845179
 20
168.679435909
 30
0.000000000
 11
72.337613836
 21
168.679435909
 31
0.000000000
  0
LINE
  5
BBD
330
A02
100
AcDbEntity
  8
View
100
AcDbLine
 10
71.400393687
 20
168.679435909
 30
0.000000000
 11
70.033602642
 21
168.679435909
 31
0.000000000
  0
LINE
  5
BBE
330
A02
100
AcDbEntity
  8
View
100
AcDbLine
 10
74.228845179
 20
169.449585162
 30
0.000000000
 11
74.228845179
 21
168.679435909
 31
0.000000000
  0
LINE
  5
BBF
330
A02
100
AcDbEntity
  8
View
100
AcDbLine
 10
70.033602642
 20
168.679435909
 30
0.000000000
 11
70.033602642
 21
169.449585162
 31
0.000000000
  0
LINE
  5
BC0
330
A02
100
AcDbEntity
  8
View
100
AcDbLine
 10
72.337613836
 20
169.449585162
 30
0.000000000
 11
74.228845179
 21
169.449585162
 31
0.000000000
  0
LINE
  5
BC1
330
A02
100
AcDbEntity
  8
View
100
AcDbLine
 10
70.033602642
 20
169.449585162
 30
0.000000000
 11
71.004964582
 21
169.449585162
 31
0.000000000
  0
LINE
  5
BC2
330
A02
100
AcDbEntity
  8
View
100
AcDbLine
 10
72.337613836
 20
171.007794118
 30
0.000000000
 11
72.337613836
 21
169.449585162
 31
0.000000000
  0
SPLINE
  5
BC3
330
A02
100
AcDbEntity
  8
View
100
AcDbSpline
210
0
220
0
230
1
 70
8
 71
2
 72
6
 73
3
 74
0
 40
0.000000000
 40
0.000000000
 40
0.000000000
 40
1.000000000
 40
1.000000000
 40
1.000000000
 10
71.004964582
 20
169.449585162
 30
0.000000000
 10
71.254311597
 20
169.449585162
 30
0.000000000
 10
71.357296672
 20
169.548092625
 30
0.000000000
  0
LINE
  5
BC4
330
A02
100
AcDbEntity
  8
View
100
AcDbLine
 10
71.460561597
 20
171.007794118
 30
0.000000000
 11
72.337613836
 21
171.007794118
 31
0.000000000
  0
SPLINE
  5
BC5
330
A02
100
AcDbEntity
  8
View
100
AcDbSpline
210
0
220
0
230
1
 70
8
 71
2
 72
6
 73
3
 74
0
 40
0.000000000
 40
0.000000000
 40
0.000000000
 40
1.000000000
 40
1.000000000
 40
1.000000000
 10
71.357296672
 20
169.548092625
 30
0.000000000
 10
71.460561597
 20
169.646600088
 30
0.000000000
 10
71.460561597
 20
169.903223222
 30
0.000000000
  0
LINE
  5
BC6
330
A02
100
AcDbEntity
  8
View
100
AcDbLine
 10
71.460561597
 20
169.903223222
 30
0.000000000
 11
71.460561597
 21
171.007794118
 31
0.000000000
  0
LINE
  5
BC7
330
A02
100
AcDbEntity
  8
View
100
AcDbLine
 10
31.372259358
 20
60.357794118
 30
0.000000000
 11
30.372259358
 21
59.357794118
 31
0.000000000
  0
LINE
  5
BC8
330
A02
100
AcDbEntity
  8
View
100
AcDbLine
 10
30.372259358
 20
59.357794118
 30
0.000000000
 11
116.672259358
 21
59.357794118
 31
0.000000000
  0
LINE
  5
BC9
330
A02
100
AcDbEntity
  8
View
100
AcDbLine
 10
115.672259358
 20
60.357794118
 30
0.000000000
 11
116.672259358
 21
59.357794118
 31
0.000000000
  0
LINE
  5
BCA
330
A02
100
AcDbEntity
  8
View
100
AcDbLine
 10
31.372259358
 20
192.887794118
 30
0.000000000
 11
30.372259358
 21
193.887794118
 31
0.000000000
  0
LINE
  5
BCB
330
A02
100
AcDbEntity
  8
View
100
AcDbLine
 10
30.372259358
 20
193.887794118
 30
0.000000000
 11
30.372259358
 21
59.357794118
 31
0.000000000
  0
LINE
  5
BCC
330
A02
100
AcDbEntity
  8
View
100
AcDbLine
 10
116.672259358
 20
59.357794118
 30
0.000000000
 11
116.672259358
 21
193.887794118
 31
0.000000000
  0
LINE
  5
BCD
330
A02
100
AcDbEntity
  8
View
100
AcDbLine
 10
115.672259358
 20
192.887794118
 30
0.000000000
 11
116.672259358
 21
193.887794118
 31
0.000000000
  0
LINE
  5
BCE
330
A02
100
AcDbEntity
  8
View
100
AcDbLine
 10
116.672259358
 20
193.887794118
 30
0.000000000
 11
30.372259358
 21
193.887794118
 31
0.000000000
  0
LINE
  5
BCF
330
A02
100
AcDbEntity
  8
View
100
AcDbLine
 10
111.172259358
 20
190.887794118
 30
0.000000000
 11
38.049437387
 21
190.887794118
 31
0.000000000
  0
LINE
  5
BD0
330
A02
100
AcDbEntity
  8
View
100
AcDbLine
 10
59.318686992
 20
62.357794118
 30
0.000000000
 11
60.225355096
 21
62.687794118
 31
0.000000000
  0
LINE
  5
BD1
330
A02
100
AcDbEntity
  8
View
100
AcDbLine
 10
80.672259358
 20
70.129854095
 30
0.000000000
 11
80.342259358
 21
70.009743991
 31
0.000000000
  0
ARC
  5
BD2
330
A02
100
AcDbEntity
  8
View
100
AcDbCircle
 10
35.322259358
 20
189.637794118
 30
0.000000000
 40
3.000000000
100
AcDbArc
 50
-130.541601874
 51
24.624318352
  0
LINE
  5
BD3
330
A02
100
AcDbEntity
  8
View
100
AcDbLine
 10
80.672259358
 20
68.857794118
 30
0.000000000
 11
80.672259358
 21
70.129854095
 31
0.000000000
  0
LINE
  5
BD4
330
A02
100
AcDbEntity
  8
View
100
AcDbLine
 10
33.372259358
 20
117.914072118
 30
0.000000000
 11
33.372259358
 21
187.357991495
 31
0.000000000
  0
ARC
  5
BD5
330
A02
100
AcDbEntity
  8
View
100
AcDbCircle
 10
83.172259358
 20
68.857794118
 30
0.000000000
 40
2.500000000
100
AcDbArc
 50
180.000000000
 51
-90.000000000
  0
LINE
  5
BD6
330
A02
100
AcDbEntity
  8
View
100
AcDbLine
 10
33.372259358
 20
117.914072118
 30
0.000000000
 11
33.702259358
 21
118.034182224
 31
0.000000000
  0
LINE
  5
BD7
330
A02
100
AcDbEntity
  8
View
100
AcDbLine
 10
80.672259358
 20
135.129854077
 30
0.000000000
 11
80.342259358
 21
135.009743970
 31
0.000000000
  0
LINE
  5
BD8
330
A02
100
AcDbEntity
  8
View
100
AcDbLine
 10
107.172259358
 20
66.357794118
 30
0.000000000
 11
83.172259358
 21
66.357794118
 31
0.000000000
  0
LINE
  5
BD9
330
A02
100
AcDbEntity
  8
View
100
AcDbLine
 10
80.672259358
 20
135.129854077
 30
0.000000000
 11
80.672259358
 21
183.857794118
 31
0.000000000
  0
ARC
  5
BDA
330
A02
100
AcDbEntity
  8
View
100
AcDbCircle
 10
107.172259358
 20
68.857794118
 30
0.000000000
 40
2.500000000
100
AcDbArc
 50
-90.000000000
 51
0.000000000
  0
ARC
  5
BDB
330
A02
100
AcDbEntity
  8
View
100
AcDbCircle
 10
83.172259358
 20
183.857794118
 30
0.000000000
 40
2.500000000
100
AcDbArc
 50
90.000000000
 51
180.000000000
  0
LINE
  5
BDC
330
A02
100
AcDbEntity
  8
View
100
AcDbLine
 10
109.672259358
 20
183.857794118
 30
0.000000000
 11
109.672259358
 21
68.857794118
 31
0.000000000
  0
LINE
  5
BDD
330
A02
100
AcDbEntity
  8
View
100
AcDbLine
 10
83.172259358
 20
186.357794118
 30
0.000000000
 11
107.172259358
 21
186.357794118
 31
0.000000000
  0
ARC
  5
BDE
330
A02
100
AcDbEntity
  8
View
100
AcDbCircle
 10
107.172259358
 20
183.857794118
 30
0.000000000
 40
2.500000000
100
AcDbArc
 50
0.000000000
 51
90.000000000
  0
LINE
  5
BDF
330
A02
100
AcDbEntity
  8
View
100
AcDbLine
 10
80.672259358
 20
75.129854095
 30
0.000000000
 11
80.672259358
 21
80.129854095
 31
0.000000000
  0
LINE
  5
BE0
330
A02
100
AcDbEntity
  8
View
100
AcDbLine
 10
80.342259358
 20
75.009743991
 30
0.000000000
 11
46.487959586
 21
62.687794118
 31
0.000000000
  0
LINE
  5
BE1
330
A02
100
AcDbEntity
  8
View
100
AcDbLine
 10
45.581291483
 20
62.357794118
 30
0.000000000
 11
46.487959586
 21
62.687794118
 31
0.000000000
  0
LINE
  5
BE2
330
A02
100
AcDbEntity
  8
View
100
AcDbLine
 10
80.672259358
 20
75.129854095
 30
0.000000000
 11
80.342259358
 21
75.009743991
 31
0.000000000
  0
LINE
  5
BE3
330
A02
100
AcDbEntity
  8
View
100
AcDbLine
 10
80.342259358
 20
80.009743991
 30
0.000000000
 11
38.614417961
 21
64.822061083
 31
0.000000000
  0
SPLINE
  5
BE4
330
A02
100
AcDbEntity
  8
View
100
AcDbSpline
210
0
220
0
230
1
 70
8
 71
2
 72
6
 73
3
 74
0
 40
2.150749384
 40
2.150749384
 40
2.150749384
 40
2.257686562
 40
2.257686562
 40
2.257686562
 10
38.296675914
 20
64.706412506
 30
0.000000000
 10
38.447294814
 20
64.761233269
 30
0.000000000
 10
38.614417961
 20
64.822061083
 30
0.000000000
  0
LINE
  5
BE5
330
A02
100
AcDbEntity
  8
View
100
AcDbLine
 10
80.672259358
 20
80.129854095
 30
0.000000000
 11
80.342259358
 21
80.009743991
 31
0.000000000
  0
LINE
  5
BE6
330
A02
100
AcDbEntity
  8
View
100
AcDbLine
 10
37.555614846
 20
62.357794118
 30
0.000000000
 11
45.581291483
 21
62.357794118
 31
0.000000000
  0
ARC
  5
BE7
330
A02
100
AcDbEntity
  8
View
100
AcDbCircle
 10
35.317296358
 20
64.355275118
 30
0.000000000
 40
3.000000000
100
AcDbArc
 50
-41.745801893
 51
6.721637548
  0
LINE
  5
BE8
330
A02
100
AcDbEntity
  8
View
100
AcDbLine
 10
80.342259358
 20
85.009743991
 30
0.000000000
 11
33.702259358
 21
68.034182660
 31
0.000000000
  0
LINE
  5
BE9
330
A02
100
AcDbEntity
  8
View
100
AcDbLine
 10
33.372259358
 20
67.914072556
 30
0.000000000
 11
33.702259358
 21
68.034182660
 31
0.000000000
  0
LINE
  5
BEA
330
A02
100
AcDbEntity
  8
View
100
AcDbLine
 10
80.672259358
 20
85.129854095
 30
0.000000000
 11
80.342259358
 21
85.009743991
 31
0.000000000
  0
LINE
  5
BEB
330
A02
100
AcDbEntity
  8
View
100
AcDbLine
 10
80.672259358
 20
85.129854095
 30
0.000000000
 11
80.672259358
 21
90.129854095
 31
0.000000000
  0
LINE
  5
BEC
330
A02
100
AcDbEntity
  8
View
100
AcDbLine
 10
33.372259358
 20
72.914072556
 30
0.000000000
 11
33.372259358
 21
67.914072556
 31
0.000000000
  0
LINE
  5
BED
330
A02
100
AcDbEntity
  8
View
100
AcDbLine
 10
80.342259358
 20
90.009743991
 30
0.000000000
 11
33.702259358
 21
73.034182660
 31
0.000000000
  0
LINE
  5
BEE
330
A02
100
AcDbEntity
  8
View
100
AcDbLine
 10
33.372259358
 20
72.914072556
 30
0.000000000
 11
33.702259358
 21
73.034182660
 31
0.000000000
  0
LINE
  5
BEF
330
A02
100
AcDbEntity
  8
View
100
AcDbLine
 10
80.672259358
 20
90.129854095
 30
0.000000000
 11
80.342259358
 21
90.009743991
 31
0.000000000
  0
LINE
  5
BF0
330
A02
100
AcDbEntity
  8
View
100
AcDbLine
 10
80.342259358
 20
95.009743991
 30
0.000000000
 11
33.702259358
 21
78.034182660
 31
0.000000000
  0
LINE
  5
BF1
330
A02
100
AcDbEntity
  8
View
100
AcDbLine
 10
33.372259358
 20
77.914072556
 30
0.000000000
 11
33.702259358
 21
78.034182660
 31
0.000000000
  0
LINE
  5
BF2
330
A02
100
AcDbEntity
  8
View
100
AcDbLine
 10
80.672259358
 20
95.129854095
 30
0.000000000
 11
80.342259358
 21
95.009743991
 31
0.000000000
  0
LINE
  5
BF3
330
A02
100
AcDbEntity
  8
View
100
AcDbLine
 10
80.672259358
 20
95.129854095
 30
0.000000000
 11
80.672259358
 21
100.129854077
 31
0.000000000
  0
LINE
  5
BF4
330
A02
100
AcDbEntity
  8
View
100
AcDbLine
 10
33.372259358
 20
77.914072556
 30
0.000000000
 11
33.372259358
 21
82.914072118
 31
0.000000000
  0
LINE
  5
BF5
330
A02
100
AcDbEntity
  8
View
100
AcDbLine
 10
80.342259358
 20
100.009743970
 30
0.000000000
 11
33.702259358
 21
83.034182224
 31
0.000000000
  0
LINE
  5
BF6
330
A02
100
AcDbEntity
  8
View
100
AcDbLine
 10
33.372259358
 20
82.914072118
 30
0.000000000
 11
33.702259358
 21
83.034182224
 31
0.000000000
  0
LINE
  5
BF7
330
A02
100
AcDbEntity
  8
View
100
AcDbLine
 10
80.672259358
 20
100.129854077
 30
0.000000000
 11
80.342259358
 21
100.009743970
 31
0.000000000
  0
LINE
  5
BF8
330
A02
100
AcDbEntity
  8
View
100
AcDbLine
 10
80.342259358
 20
105.009743970
 30
0.000000000
 11
33.702259358
 21
88.034182224
 31
0.000000000
  0
LINE
  5
BF9
330
A02
100
AcDbEntity
  8
View
100
AcDbLine
 10
33.372259358
 20
87.914072118
 30
0.000000000
 11
33.702259358
 21
88.034182224
 31
0.000000000
  0
LINE
  5
BFA
330
A02
100
AcDbEntity
  8
View
100
AcDbLine
 10
80.672259358
 20
105.129854077
 30
0.000000000
 11
80.342259358
 21
105.009743970
 31
0.000000000
  0
LINE
  5
BFB
330
A02
100
AcDbEntity
  8
View
100
AcDbLine
 10
80.672259358
 20
105.129854077
 30
0.000000000
 11
80.672259358
 21
110.129854077
 31
0.000000000
  0
LINE
  5
BFC
330
A02
100
AcDbEntity
  8
View
100
AcDbLine
 10
33.372259358
 20
87.914072118
 30
0.000000000
 11
33.372259358
 21
92.914072118
 31
0.000000000
  0
LINE
  5
BFD
330
A02
100
AcDbEntity
  8
View
100
AcDbLine
 10
80.342259358
 20
110.009743970
 30
0.000000000
 11
33.702259358
 21
93.034182224
 31
0.000000000
  0
LINE
  5
BFE
330
A02
100
AcDbEntity
  8
View
100
AcDbLine
 10
33.372259358
 20
92.914072118
 30
0.000000000
 11
33.702259358
 21
93.034182224
 31
0.000000000
  0
LINE
  5
BFF
330
A02
100
AcDbEntity
  8
View
100
AcDbLine
 10
80.672259358
 20
110.129854077
 30
0.000000000
 11
80.342259358
 21
110.009743970
 31
0.000000000
  0
LINE
  5
C00
330
A02
100
AcDbEntity
  8
View
100
AcDbLine
 10
80.672259358
 20
120.129854077
 30
0.000000000
 11
80.672259358
 21
115.129854077
 31
0.000000000
  0
LINE
  5
C01
330
A02
100
AcDbEntity
  8
View
100
AcDbLine
 10
80.342259358
 20
120.009743970
 30
0.000000000
 11
33.702259358
 21
103.034182224
 31
0.000000000
  0
LINE
  5
C02
330
A02
100
AcDbEntity
  8
View
100
AcDbLine
 10
33.372259358
 20
102.914072118
 30
0.000000000
 11
33.702259358
 21
103.034182224
 31
0.000000000
  0
LINE
  5
C03
330
A02
100
AcDbEntity
  8
View
100
AcDbLine
 10
80.672259358
 20
120.129854077
 30
0.000000000
 11
80.342259358
 21
120.009743970
 31
0.000000000
  0
LINE
  5
C04
330
A02
100
AcDbEntity
  8
View
100
AcDbLine
 10
80.342259358
 20
115.009743970
 30
0.000000000
 11
33.702259358
 21
98.034182224
 31
0.000000000
  0
LINE
  5
C05
330
A02
100
AcDbEntity
  8
View
100
AcDbLine
 10
33.372259358
 20
97.914072118
 30
0.000000000
 11
33.702259358
 21
98.034182224
 31
0.000000000
  0
LINE
  5
C06
330
A02
100
AcDbEntity
  8
View
100
AcDbLine
 10
80.672259358
 20
115.129854077
 30
0.000000000
 11
80.342259358
 21
115.009743970
 31
0.000000000
  0
LINE
  5
C07
330
A02
100
AcDbEntity
  8
View
100
AcDbLine
 10
33.372259358
 20
97.914072118
 30
0.000000000
 11
33.372259358
 21
102.914072118
 31
0.000000000
  0
LINE
  5
C08
330
A02
100
AcDbEntity
  8
View
100
AcDbLine
 10
80.342259358
 20
130.009743970
 30
0.000000000
 11
33.702259358
 21
113.034182224
 31
0.000000000
  0
LINE
  5
C09
330
A02
100
AcDbEntity
  8
View
100
AcDbLine
 10
33.372259358
 20
112.914072118
 30
0.000000000
 11
33.702259358
 21
113.034182224
 31
0.000000000
  0
LINE
  5
C0A
330
A02
100
AcDbEntity
  8
View
100
AcDbLine
 10
80.672259358
 20
130.129854077
 30
0.000000000
 11
80.342259358
 21
130.009743970
 31
0.000000000
  0
LINE
  5
C0B
330
A02
100
AcDbEntity
  8
View
100
AcDbLine
 10
80.672259358
 20
125.129854118
 30
0.000000000
 11
80.672259358
 21
130.129854077
 31
0.000000000
  0
LINE
  5
C0C
330
A02
100
AcDbEntity
  8
View
100
AcDbLine
 10
33.372259358
 20
107.914072118
 30
0.000000000
 11
33.372259358
 21
112.914072118
 31
0.000000000
  0
LINE
  5
C0D
330
A02
100
AcDbEntity
  8
View
100
AcDbLine
 10
80.342259358
 20
125.009744011
 30
0.000000000
 11
33.702259358
 21
108.034182225
 31
0.000000000
  0
LINE
  5
C0E
330
A02
100
AcDbEntity
  8
View
100
AcDbLine
 10
33.372259358
 20
107.914072118
 30
0.000000000
 11
33.702259358
 21
108.034182225
 31
0.000000000
  0
LINE
  5
C0F
330
A02
100
AcDbEntity
  8
View
100
AcDbLine
 10
80.672259358
 20
125.129854118
 30
0.000000000
 11
80.342259358
 21
125.009744011
 31
0.000000000
  0
SPLINE
  5
C10
330
A02
100
AcDbEntity
  8
View
100
AcDbSpline
210
0
220
0
230
1
 70
8
 71
2
 72
6
 73
3
 74
0
 40
2.727178029
 40
2.727178029
 40
2.727178029
 40
3.200390601
 40
3.200390601
 40
3.200390601
 10
38.049437387
 20
190.887794118
 30
0.000000000
 10
38.286043673
 20
190.735908551
 30
0.000000000
 10
38.522649959
 20
190.557794118
 30
0.000000000
  0
SPLINE
  5
C11
330
A02
100
AcDbEntity
  8
View
100
AcDbSpline
210
0
220
0
230
1
 70
8
 71
2
 72
6
 73
3
 74
0
 40
2.279802623
 40
2.279802623
 40
2.279802623
 40
2.909381378
 40
2.909381378
 40
2.909381378
 10
33.372259358
 20
187.357991495
 30
0.000000000
 10
33.517328736
 20
187.043202117
 30
0.000000000
 10
33.702259358
 20
186.728412740
 30
0.000000000
  0
LINE
  5
C12
330
A02
100
AcDbEntity
  8
View
100
AcDbLine
 10
80.342259358
 20
75.009743991
 30
0.000000000
 11
80.342259358
 21
80.009743991
 31
0.000000000
  0
LINE
  5
C13
330
A02
100
AcDbEntity
  8
View
100
AcDbLine
 10
38.199727123
 20
62.687794118
 30
0.000000000
 11
46.487959586
 21
62.687794118
 31
0.000000000
  0
ARC
  5
C14
330
A02
100
AcDbEntity
  8
View
100
AcDbCircle
 10
35.317296358
 20
64.355275118
 30
0.000000000
 40
3.330000000
100
AcDbArc
 50
-30.049304037
 51
8.058028735
  0
SPLINE
  5
C15
330
A02
100
AcDbEntity
  8
View
100
AcDbSpline
210
0
220
0
230
1
 70
8
 71
2
 72
6
 73
3
 74
0
 40
2.238318488
 40
2.238318488
 40
2.238318488
 40
2.882430765
 40
2.882430765
 40
2.882430765
 10
37.555614846
 20
62.357794118
 30
0.000000000
 10
37.877670985
 20
62.502130901
 30
0.000000000
 10
38.199727123
 20
62.687794118
 30
0.000000000
  0
LINE
  5
C16
330
A02
100
AcDbEntity
  8
View
100
AcDbLine
 10
33.702259358
 20
73.034182660
 30
0.000000000
 11
33.702259358
 21
68.034182660
 31
0.000000000
  0
LINE
  5
C17
330
A02
100
AcDbEntity
  8
View
100
AcDbLine
 10
80.342259358
 20
85.009743991
 30
0.000000000
 11
80.342259358
 21
90.009743991
 31
0.000000000
  0
LINE
  5
C18
330
A02
100
AcDbEntity
  8
View
100
AcDbLine
 10
33.702259358
 20
78.034182660
 30
0.000000000
 11
33.702259358
 21
83.034182224
 31
0.000000000
  0
LINE
  5
C19
330
A02
100
AcDbEntity
  8
View
100
AcDbLine
 10
80.342259358
 20
95.009743991
 30
0.000000000
 11
80.342259358
 21
100.009743970
 31
0.000000000
  0
LINE
  5
C1A
330
A02
100
AcDbEntity
  8
View
100
AcDbLine
 10
33.702259358
 20
88.034182224
 30
0.000000000
 11
33.702259358
 21
93.034182224
 31
0.000000000
  0
LINE
  5
C1B
330
A02
100
AcDbEntity
  8
View
100
AcDbLine
 10
80.342259358
 20
105.009743970
 30
0.000000000
 11
80.342259358
 21
110.009743970
 31
0.000000000
  0
LINE
  5
C1C
330
A02
100
AcDbEntity
  8
View
100
AcDbLine
 10
80.342259358
 20
120.009743970
 30
0.000000000
 11
80.342259358
 21
115.009743970
 31
0.000000000
  0
LINE
  5
C1D
330
A02
100
AcDbEntity
  8
View
100
AcDbLine
 10
33.702259358
 20
98.034182224
 30
0.000000000
 11
33.702259358
 21
103.034182224
 31
0.000000000
  0
LINE
  5
C1E
330
A02
100
AcDbEntity
  8
View
100
AcDbLine
 10
33.702259358
 20
108.034182225
 30
0.000000000
 11
33.702259358
 21
113.034182224
 31
0.000000000
  0
LINE
  5
C1F
330
A02
100
AcDbEntity
  8
View
100
AcDbLine
 10
80.342259358
 20
125.009744011
 30
0.000000000
 11
80.342259358
 21
130.009743970
 31
0.000000000
  0
SPLINE
  5
C20
330
A02
100
AcDbEntity
  8
View
100
AcDbSpline
210
0
220
0
230
1
 70
8
 71
2
 72
6
 73
3
 74
0
 40
0.000000000
 40
0.000000000
 40
0.000000000
 40
1.000000000
 40
1.000000000
 40
1.000000000
 10
37.394874372
 20
120.667262647
 30
0.000000000
 10
37.519743042
 20
120.712711126
 30
0.000000000
 10
37.579327629
 20
120.798154501
 30
0.000000000
  0
SPLINE
  5
C21
330
A02
100
AcDbEntity
  8
View
100
AcDbSpline
210
0
220
0
230
1
 70
8
 71
2
 72
6
 73
3
 74
0
 40
0.000000000
 40
0.000000000
 40
0.000000000
 40
1.000000000
 40
1.000000000
 40
1.000000000
 10
37.217333515
 20
120.649113975
 30
0.000000000
 10
37.291175084
 20
120.629519192
 30
0.000000000
 10
37.394874372
 20
120.667262647
 30
0.000000000
  0
SPLINE
  5
C22
330
A02
100
AcDbEntity
  8
View
100
AcDbSpline
210
0
220
0
230
1
 70
8
 71
2
 72
6
 73
3
 74
0
 40
0.000000000
 40
0.000000000
 40
0.000000000
 40
1.000000000
 40
1.000000000
 40
1.000000000
 10
37.113537266
 20
120.751008563
 30
0.000000000
 10
37.143464029
 20
120.668785459
 30
0.000000000
 10
37.217333515
 20
120.649113975
 30
0.000000000
  0
LINE
  5
C23
330
A02
100
AcDbEntity
  8
View
100
AcDbLine
 10
37.096452212
 20
120.797949365
 30
0.000000000
 11
37.113537266
 21
120.751008563
 31
0.000000000
  0
SPLINE
  5
C24
330
A02
100
AcDbEntity
  8
View
100
AcDbSpline
210
0
220
0
230
1
 70
8
 71
2
 72
6
 73
3
 74
0
 40
0.000000000
 40
0.000000000
 40
0.000000000
 40
1.000000000
 40
1.000000000
 40
1.000000000
 10
37.313828982
 20
121.065818134
 30
0.000000000
 10
37.035789101
 20
120.964619893
 30
0.000000000
 10
37.096452212
 20
120.797949365
 30
0.000000000
  0
LINE
  5
C25
330
A02
100
AcDbEntity
  8
View
100
AcDbLine
 10
37.542396940
 20
121.149010067
 30
0.000000000
 11
37.313828982
 21
121.065818134
 31
0.000000000
  0
LINE
  5
C26
330
A02
100
AcDbEntity
  8
View
100
AcDbLine
 10
37.606493812
 20
120.972905358
 30
0.000000000
 11
37.542396940
 21
121.149010067
 31
0.000000000
  0
SPLINE
  5
C27
330
A02
100
AcDbEntity
  8
View
100
AcDbSpline
210
0
220
0
230
1
 70
8
 71
2
 72
6
 73
3
 74
0
 40
0.000000000
 40
0.000000000
 40
0.000000000
 40
1.000000000
 40
1.000000000
 40
1.000000000
 10
37.579327629
 20
120.798154501
 30
0.000000000
 10
37.638961000
 20
120.883702494
 30
0.000000000
 10
37.606493812
 20
120.972905358
 30
0.000000000
  0
SPLINE
  5
C28
330
A02
100
AcDbEntity
  8
View
100
AcDbSpline
210
0
220
0
230
1
 70
8
 71
2
 72
6
 73
3
 74
0
 40
0.000000000
 40
0.000000000
 40
0.000000000
 40
1.000000000
 40
1.000000000
 40
1.000000000
 10
41.404613587
 20
123.132892277
 30
0.000000000
 10
41.336273302
 20
123.108018447
 30
0.000000000
 10
41.287088151
 20
123.063450028
 30
0.000000000
  0
SPLINE
  5
C29
330
A02
100
AcDbEntity
  8
View
100
AcDbSpline
210
0
220
0
230
1
 70
8
 71
2
 72
6
 73
3
 74
0
 40
0.000000000
 40
0.000000000
 40
0.000000000
 40
1.000000000
 40
1.000000000
 40
1.000000000
 10
41.651485901
 20
123.125461542
 30
0.000000000
 10
41.538916437
 20
123.181774517
 30
0.000000000
 10
41.404613587
 20
123.132892277
 30
0.000000000
  0
SPLINE
  5
C2A
330
A02
100
AcDbEntity
  8
View
100
AcDbSpline
210
0
220
0
230
1
 70
8
 71
2
 72
6
 73
3
 74
0
 40
0.000000000
 40
0.000000000
 40
0.000000000
 40
1.000000000
 40
1.000000000
 40
1.000000000
 10
41.816231781
 20
122.925795040
 30
0.000000000
 10
41.764027447
 20
123.069225269
 30
0.000000000
 10
41.651485901
 20
123.125461542
 30
0.000000000
  0
LINE
  5
C2B
330
A02
100
AcDbEntity
  8
View
100
AcDbLine
 10
41.824802225
 20
122.902247938
 30
0.000000000
 11
41.816231781
 21
122.925795040
 31
0.000000000
  0
LINE
  5
C2C
330
A02
100
AcDbEntity
  8
View
100
AcDbLine
 10
41.214495097
 20
122.680114310
 30
0.000000000
 11
41.824802225
 21
122.902247938
 31
0.000000000
  0
LINE
  5
C2D
330
A02
100
AcDbEntity
  8
View
100
AcDbLine
 10
41.208492995
 20
122.696604951
 30
0.000000000
 11
41.214495097
 21
122.680114310
 31
0.000000000
  0
SPLINE
  5
C2E
330
A02
100
AcDbEntity
  8
View
100
AcDbSpline
210
0
220
0
230
1
 70
8
 71
2
 72
6
 73
3
 74
0
 40
0.000000000
 40
0.000000000
 40
0.000000000
 40
1.000000000
 40
1.000000000
 40
1.000000000
 10
41.184972446
 20
122.834492703
 30
0.000000000
 10
41.182809579
 20
122.767169556
 30
0.000000000
 10
41.208492995
 20
122.696604951
 30
0.000000000
  0
SPLINE
  5
C2F
330
A02
100
AcDbEntity
  8
View
100
AcDbSpline
210
0
220
0
230
1
 70
8
 71
2
 72
6
 73
3
 74
0
 40
0.000000000
 40
0.000000000
 40
0.000000000
 40
1.000000000
 40
1.000000000
 40
1.000000000
 10
41.212543548
 20
122.960401038
 30
0.000000000
 10
41.187184096
 20
122.901920468
 30
0.000000000
 10
41.184972446
 20
122.834492703
 30
0.000000000
  0
SPLINE
  5
C30
330
A02
100
AcDbEntity
  8
View
100
AcDbSpline
210
0
220
0
230
1
 70
8
 71
2
 72
6
 73
3
 74
0
 40
0.000000000
 40
0.000000000
 40
0.000000000
 40
1.000000000
 40
1.000000000
 40
1.000000000
 10
41.287088151
 20
123.063450028
 30
0.000000000
 10
41.237951784
 20
123.018986226
 30
0.000000000
 10
41.212543548
 20
122.960401038
 30
0.000000000
  0
LINE
  5
C31
330
A02
100
AcDbEntity
  8
View
100
AcDbLine
 10
71.278874332
 20
133.987691648
 30
0.000000000
 11
71.144974186
 21
132.783724685
 31
0.000000000
  0
SPLINE
  5
C32
330
A02
100
AcDbEntity
  8
View
100
AcDbSpline
210
0
220
0
230
1
 70
8
 71
2
 72
6
 73
3
 74
0
 40
0.000000000
 40
0.000000000
 40
0.000000000
 40
1.000000000
 40
1.000000000
 40
1.000000000
 10
71.327874071
 20
133.897104999
 30
0.000000000
 10
71.309275518
 20
133.948204103
 30
0.000000000
 10
71.278874332
 20
133.987691648
 30
0.000000000
  0
LINE
  5
C33
330
A02
100
AcDbEntity
  8
View
100
AcDbLine
 10
71.576207023
 20
133.214815821
 30
0.000000000
 11
71.327874071
 21
133.897104999
 31
0.000000000
  0
SPLINE
  5
C34
330
A02
100
AcDbEntity
  8
View
100
AcDbSpline
210
0
220
0
230
1
 70
8
 71
2
 72
6
 73
3
 74
0
 40
0.000000000
 40
0.000000000
 40
0.000000000
 40
1.000000000
 40
1.000000000
 40
1.000000000
 10
71.563361186
 20
132.958774352
 30
0.000000000
 10
71.622644964
 20
133.083841010
 30
0.000000000
 10
71.576207023
 20
133.214815821
 30
0.000000000
  0
SPLINE
  5
C35
330
A02
100
AcDbEntity
  8
View
100
AcDbSpline
210
0
220
0
230
1
 70
8
 71
2
 72
6
 73
3
 74
0
 40
0.000000000
 40
0.000000000
 40
0.000000000
 40
1.000000000
 40
1.000000000
 40
1.000000000
 10
71.373822564
 20
132.785065815
 30
0.000000000
 10
71.503384924
 20
132.832222658
 30
0.000000000
 10
71.563361186
 20
132.958774352
 30
0.000000000
  0
SPLINE
  5
C36
330
A02
100
AcDbEntity
  8
View
100
AcDbSpline
210
0
220
0
230
1
 70
8
 71
2
 72
6
 73
3
 74
0
 40
0.000000000
 40
0.000000000
 40
0.000000000
 40
1.000000000
 40
1.000000000
 40
1.000000000
 10
71.144974186
 20
132.783724685
 30
0.000000000
 10
71.257325317
 20
132.742664285
 30
0.000000000
 10
71.373822564
 20
132.785065815
 30
0.000000000
  0
LINE
  5
C37
330
A02
100
AcDbEntity
  8
View
100
AcDbLine
 10
70.694586001
 20
133.665456199
 30
0.000000000
 11
70.942734024
 21
132.983675109
 31
0.000000000
  0
SPLINE
  5
C38
330
A02
100
AcDbEntity
  8
View
100
AcDbSpline
210
0
220
0
230
1
 70
8
 71
2
 72
6
 73
3
 74
0
 40
0.000000000
 40
0.000000000
 40
0.000000000
 40
1.000000000
 40
1.000000000
 40
1.000000000
 10
70.706184569
 20
133.921536896
 30
0.000000000
 10
70.647085719
 20
133.795962150
 30
0.000000000
 10
70.694586001
 20
133.665456199
 30
0.000000000
  0
SPLINE
  5
C39
330
A02
100
AcDbEntity
  8
View
100
AcDbSpline
210
0
220
0
230
1
 70
8
 71
2
 72
6
 73
3
 74
0
 40
0.000000000
 40
0.000000000
 40
0.000000000
 40
1.000000000
 40
1.000000000
 40
1.000000000
 10
70.897023297
 20
134.095061037
 30
0.000000000
 10
70.765283418
 20
134.047111642
 30
0.000000000
 10
70.706184569
 20
133.921536896
 30
0.000000000
  0
SPLINE
  5
C3A
330
A02
100
AcDbEntity
  8
View
100
AcDbSpline
210
0
220
0
230
1
 70
8
 71
2
 72
6
 73
3
 74
0
 40
0.000000000
 40
0.000000000
 40
0.000000000
 40
1.000000000
 40
1.000000000
 40
1.000000000
 10
71.104917066
 20
134.103160220
 30
0.000000000
 10
71.001544192
 20
134.133103532
 30
0.000000000
 10
70.897023297
 20
134.095061037
 30
0.000000000
  0
LINE
  5
C3B
330
A02
100
AcDbEntity
  8
View
100
AcDbLine
 10
70.973412997
 20
132.919711030
 30
0.000000000
 11
71.104917066
 21
134.103160220
 31
0.000000000
  0
SPLINE
  5
C3C
330
A02
100
AcDbEntity
  8
View
100
AcDbSpline
210
0
220
0
230
1
 70
8
 71
2
 72
6
 73
3
 74
0
 40
0.000000000
 40
0.000000000
 40
0.000000000
 40
1.000000000
 40
1.000000000
 40
1.000000000
 10
70.942734024
 20
132.983675109
 30
0.000000000
 10
70.955414856
 20
132.948834811
 30
0.000000000
 10
70.973412997
 20
132.919711030
 30
0.000000000
  0
LINE
  5
C3D
330
A02
100
AcDbEntity
  8
View
100
AcDbLine
 10
72.533125076
 20
134.444201585
 30
0.000000000
 11
72.399224930
 21
133.240234622
 31
0.000000000
  0
SPLINE
  5
C3E
330
A02
100
AcDbEntity
  8
View
100
AcDbSpline
210
0
220
0
230
1
 70
8
 71
2
 72
6
 73
3
 74
0
 40
0.000000000
 40
0.000000000
 40
0.000000000
 40
1.000000000
 40
1.000000000
 40
1.000000000
 10
72.582124815
 20
134.353614936
 30
0.000000000
 10
72.563526262
 20
134.404714040
 30
0.000000000
 10
72.533125076
 20
134.444201585
 30
0.000000000
  0
LINE
  5
C3F
330
A02
100
AcDbEntity
  8
View
100
AcDbLine
 10
72.830457767
 20
133.671325758
 30
0.000000000
 11
72.582124815
 21
134.353614936
 31
0.000000000
  0
SPLINE
  5
C40
330
A02
100
AcDbEntity
  8
View
100
AcDbSpline
210
0
220
0
230
1
 70
8
 71
2
 72
6
 73
3
 74
0
 40
0.000000000
 40
0.000000000
 40
0.000000000
 40
1.000000000
 40
1.000000000
 40
1.000000000
 10
72.817611930
 20
133.415284289
 30
0.000000000
 10
72.876895708
 20
133.540350947
 30
0.000000000
 10
72.830457767
 20
133.671325758
 30
0.000000000
  0
SPLINE
  5
C41
330
A02
100
AcDbEntity
  8
View
100
AcDbSpline
210
0
220
0
230
1
 70
8
 71
2
 72
6
 73
3
 74
0
 40
0.000000000
 40
0.000000000
 40
0.000000000
 40
1.000000000
 40
1.000000000
 40
1.000000000
 10
72.628073308
 20
133.241575753
 30
0.000000000
 10
72.757635668
 20
133.288732595
 30
0.000000000
 10
72.817611930
 20
133.415284289
 30
0.000000000
  0
SPLINE
  5
C42
330
A02
100
AcDbEntity
  8
View
100
AcDbSpline
210
0
220
0
230
1
 70
8
 71
2
 72
6
 73
3
 74
0
 40
0.000000000
 40
0.000000000
 40
0.000000000
 40
1.000000000
 40
1.000000000
 40
1.000000000
 10
72.399224930
 20
133.240234622
 30
0.000000000
 10
72.511576060
 20
133.199174222
 30
0.000000000
 10
72.628073308
 20
133.241575753
 30
0.000000000
  0
LINE
  5
C43
330
A02
100
AcDbEntity
  8
View
100
AcDbLine
 10
71.948836745
 20
134.121966136
 30
0.000000000
 11
72.196984768
 21
133.440185046
 31
0.000000000
  0
SPLINE
  5
C44
330
A02
100
AcDbEntity
  8
View
100
AcDbSpline
210
0
220
0
230
1
 70
8
 71
2
 72
6
 73
3
 74
0
 40
0.000000000
 40
0.000000000
 40
0.000000000
 40
1.000000000
 40
1.000000000
 40
1.000000000
 10
71.960435313
 20
134.378046833
 30
0.000000000
 10
71.901336463
 20
134.252472087
 30
0.000000000
 10
71.948836745
 20
134.121966136
 30
0.000000000
  0
SPLINE
  5
C45
330
A02
100
AcDbEntity
  8
View
100
AcDbSpline
210
0
220
0
230
1
 70
8
 71
2
 72
6
 73
3
 74
0
 40
0.000000000
 40
0.000000000
 40
0.000000000
 40
1.000000000
 40
1.000000000
 40
1.000000000
 10
72.151274041
 20
134.551570974
 30
0.000000000
 10
72.019534162
 20
134.503621579
 30
0.000000000
 10
71.960435313
 20
134.378046833
 30
0.000000000
  0
SPLINE
  5
C46
330
A02
100
AcDbEntity
  8
View
100
AcDbSpline
210
0
220
0
230
1
 70
8
 71
2
 72
6
 73
3
 74
0
 40
0.000000000
 40
0.000000000
 40
0.000000000
 40
1.000000000
 40
1.000000000
 40
1.000000000
 10
72.359167810
 20
134.559670157
 30
0.000000000
 10
72.255794936
 20
134.589613469
 30
0.000000000
 10
72.151274041
 20
134.551570974
 30
0.000000000
  0
LINE
  5
C47
330
A02
100
AcDbEntity
  8
View
100
AcDbLine
 10
72.227663741
 20
133.376220967
 30
0.000000000
 11
72.359167810
 21
134.559670157
 31
0.000000000
  0
SPLINE
  5
C48
330
A02
100
AcDbEntity
  8
View
100
AcDbSpline
210
0
220
0
230
1
 70
8
 71
2
 72
6
 73
3
 74
0
 40
0.000000000
 40
0.000000000
 40
0.000000000
 40
1.000000000
 40
1.000000000
 40
1.000000000
 10
72.196984768
 20
133.440185046
 30
0.000000000
 10
72.209665600
 20
133.405344748
 30
0.000000000
 10
72.227663741
 20
133.376220967
 30
0.000000000
  0
LINE
  5
C49
330
A02
100
AcDbEntity
  8
View
100
AcDbLine
 10
73.787375819
 20
134.900711522
 30
0.000000000
 11
73.653475673
 21
133.696744559
 31
0.000000000
  0
SPLINE
  5
C4A
330
A02
100
AcDbEntity
  8
View
100
AcDbSpline
210
0
220
0
230
1
 70
8
 71
2
 72
6
 73
3
 74
0
 40
0.000000000
 40
0.000000000
 40
0.000000000
 40
1.000000000
 40
1.000000000
 40
1.000000000
 10
73.836375559
 20
134.810124873
 30
0.000000000
 10
73.817777006
 20
134.861223977
 30
0.000000000
 10
73.787375819
 20
134.900711522
 30
0.000000000
  0
LINE
  5
C4B
330
A02
100
AcDbEntity
  8
View
100
AcDbLine
 10
74.084708511
 20
134.127835695
 30
0.000000000
 11
73.836375559
 21
134.810124873
 31
0.000000000
  0
SPLINE
  5
C4C
330
A02
100
AcDbEntity
  8
View
100
AcDbSpline
210
0
220
0
230
1
 70
8
 71
2
 72
6
 73
3
 74
0
 40
0.000000000
 40
0.000000000
 40
0.000000000
 40
1.000000000
 40
1.000000000
 40
1.000000000
 10
74.071862673
 20
133.871794226
 30
0.000000000
 10
74.131146452
 20
133.996860884
 30
0.000000000
 10
74.084708511
 20
134.127835695
 30
0.000000000
  0
SPLINE
  5
C4D
330
A02
100
AcDbEntity
  8
View
100
AcDbSpline
210
0
220
0
230
1
 70
8
 71
2
 72
6
 73
3
 74
0
 40
0.000000000
 40
0.000000000
 40
0.000000000
 40
1.000000000
 40
1.000000000
 40
1.000000000
 10
73.882324052
 20
133.698085690
 30
0.000000000
 10
74.011886412
 20
133.745242532
 30
0.000000000
 10
74.071862673
 20
133.871794226
 30
0.000000000
  0
SPLINE
  5
C4E
330
A02
100
AcDbEntity
  8
View
100
AcDbSpline
210
0
220
0
230
1
 70
8
 71
2
 72
6
 73
3
 74
0
 40
0.000000000
 40
0.000000000
 40
0.000000000
 40
1.000000000
 40
1.000000000
 40
1.000000000
 10
73.653475673
 20
133.696744559
 30
0.000000000
 10
73.765826804
 20
133.655684159
 30
0.000000000
 10
73.882324052
 20
133.698085690
 30
0.000000000
  0
LINE
  5
C4F
330
A02
100
AcDbEntity
  8
View
100
AcDbLine
 10
73.203087489
 20
134.578476073
 30
0.000000000
 11
73.451235512
 21
133.896694983
 31
0.000000000
  0
SPLINE
  5
C50
330
A02
100
AcDbEntity
  8
View
100
AcDbSpline
210
0
220
0
230
1
 70
8
 71
2
 72
6
 73
3
 74
0
 40
0.000000000
 40
0.000000000
 40
0.000000000
 40
1.000000000
 40
1.000000000
 40
1.000000000
 10
73.214686057
 20
134.834556770
 30
0.000000000
 10
73.155587207
 20
134.708982024
 30
0.000000000
 10
73.203087489
 20
134.578476073
 30
0.000000000
  0
SPLINE
  5
C51
330
A02
100
AcDbEntity
  8
View
100
AcDbSpline
210
0
220
0
230
1
 70
8
 71
2
 72
6
 73
3
 74
0
 40
0.000000000
 40
0.000000000
 40
0.000000000
 40
1.000000000
 40
1.000000000
 40
1.000000000
 10
73.405524785
 20
135.008080911
 30
0.000000000
 10
73.273784906
 20
134.960131517
 30
0.000000000
 10
73.214686057
 20
134.834556770
 30
0.000000000
  0
SPLINE
  5
C52
330
A02
100
AcDbEntity
  8
View
100
AcDbSpline
210
0
220
0
230
1
 70
8
 71
2
 72
6
 73
3
 74
0
 40
0.000000000
 40
0.000000000
 40
0.000000000
 40
1.000000000
 40
1.000000000
 40
1.000000000
 10
73.613418553
 20
135.016180094
 30
0.000000000
 10
73.510045680
 20
135.046123406
 30
0.000000000
 10
73.405524785
 20
135.008080911
 30
0.000000000
  0
LINE
  5
C53
330
A02
100
AcDbEntity
  8
View
100
AcDbLine
 10
73.481914485
 20
133.832730904
 30
0.000000000
 11
73.613418553
 21
135.016180094
 31
0.000000000
  0
SPLINE
  5
C54
330
A02
100
AcDbEntity
  8
View
100
AcDbSpline
210
0
220
0
230
1
 70
8
 71
2
 72
6
 73
3
 74
0
 40
0.000000000
 40
0.000000000
 40
0.000000000
 40
1.000000000
 40
1.000000000
 40
1.000000000
 10
73.451235512
 20
133.896694983
 30
0.000000000
 10
73.463916343
 20
133.861854685
 30
0.000000000
 10
73.481914485
 20
133.832730904
 30
0.000000000
  0
LINE
  5
C55
330
A02
100
AcDbEntity
  8
View
100
AcDbLine
 10
75.041626563
 20
135.357221459
 30
0.000000000
 11
74.907726417
 21
134.153254496
 31
0.000000000
  0
SPLINE
  5
C56
330
A02
100
AcDbEntity
  8
View
100
AcDbSpline
210
0
220
0
230
1
 70
8
 71
2
 72
6
 73
3
 74
0
 40
0.000000000
 40
0.000000000
 40
0.000000000
 40
1.000000000
 40
1.000000000
 40
1.000000000
 10
75.090626303
 20
135.266634810
 30
0.000000000
 10
75.072027750
 20
135.317733914
 30
0.000000000
 10
75.041626563
 20
135.357221459
 30
0.000000000
  0
LINE
  5
C57
330
A02
100
AcDbEntity
  8
View
100
AcDbLine
 10
75.338959255
 20
134.584345632
 30
0.000000000
 11
75.090626303
 21
135.266634810
 31
0.000000000
  0
SPLINE
  5
C58
330
A02
100
AcDbEntity
  8
View
100
AcDbSpline
210
0
220
0
230
1
 70
8
 71
2
 72
6
 73
3
 74
0
 40
0.000000000
 40
0.000000000
 40
0.000000000
 40
1.000000000
 40
1.000000000
 40
1.000000000
 10
75.326113417
 20
134.328304163
 30
0.000000000
 10
75.385397196
 20
134.453370821
 30
0.000000000
 10
75.338959255
 20
134.584345632
 30
0.000000000
  0
SPLINE
  5
C59
330
A02
100
AcDbEntity
  8
View
100
AcDbSpline
210
0
220
0
230
1
 70
8
 71
2
 72
6
 73
3
 74
0
 40
0.000000000
 40
0.000000000
 40
0.000000000
 40
1.000000000
 40
1.000000000
 40
1.000000000
 10
75.136574796
 20
134.154595627
 30
0.000000000
 10
75.266137156
 20
134.201752469
 30
0.000000000
 10
75.326113417
 20
134.328304163
 30
0.000000000
  0
SPLINE
  5
C5A
330
A02
100
AcDbEntity
  8
View
100
AcDbSpline
210
0
220
0
230
1
 70
8
 71
2
 72
6
 73
3
 74
0
 40
0.000000000
 40
0.000000000
 40
0.000000000
 40
1.000000000
 40
1.000000000
 40
1.000000000
 10
74.907726417
 20
134.153254496
 30
0.000000000
 10
75.020077548
 20
134.112194096
 30
0.000000000
 10
75.136574796
 20
134.154595627
 30
0.000000000
  0
LINE
  5
C5B
330
A02
100
AcDbEntity
  8
View
100
AcDbLine
 10
74.457338233
 20
135.034986010
 30
0.000000000
 11
74.705486256
 21
134.353204920
 31
0.000000000
  0
SPLINE
  5
C5C
330
A02
100
AcDbEntity
  8
View
100
AcDbSpline
210
0
220
0
230
1
 70
8
 71
2
 72
6
 73
3
 74
0
 40
0.000000000
 40
0.000000000
 40
0.000000000
 40
1.000000000
 40
1.000000000
 40
1.000000000
 10
74.468936800
 20
135.291066708
 30
0.000000000
 10
74.409837951
 20
135.165491962
 30
0.000000000
 10
74.457338233
 20
135.034986010
 30
0.000000000
  0
SPLINE
  5
C5D
330
A02
100
AcDbEntity
  8
View
100
AcDbSpline
210
0
220
0
230
1
 70
8
 71
2
 72
6
 73
3
 74
0
 40
0.000000000
 40
0.000000000
 40
0.000000000
 40
1.000000000
 40
1.000000000
 40
1.000000000
 10
74.659775528
 20
135.464590848
 30
0.000000000
 10
74.528035650
 20
135.416641454
 30
0.000000000
 10
74.468936800
 20
135.291066708
 30
0.000000000
  0
SPLINE
  5
C5E
330
A02
100
AcDbEntity
  8
View
100
AcDbSpline
210
0
220
0
230
1
 70
8
 71
2
 72
6
 73
3
 74
0
 40
0.000000000
 40
0.000000000
 40
0.000000000
 40
1.000000000
 40
1.000000000
 40
1.000000000
 10
74.867669297
 20
135.472690031
 30
0.000000000
 10
74.764296424
 20
135.502633343
 30
0.000000000
 10
74.659775528
 20
135.464590848
 30
0.000000000
  0
LINE
  5
C5F
330
A02
100
AcDbEntity
  8
View
100
AcDbLine
 10
74.736165229
 20
134.289240841
 30
0.000000000
 11
74.867669297
 21
135.472690031
 31
0.000000000
  0
SPLINE
  5
C60
330
A02
100
AcDbEntity
  8
View
100
AcDbSpline
210
0
220
0
230
1
 70
8
 71
2
 72
6
 73
3
 74
0
 40
0.000000000
 40
0.000000000
 40
0.000000000
 40
1.000000000
 40
1.000000000
 40
1.000000000
 10
74.705486256
 20
134.353204920
 30
0.000000000
 10
74.718167087
 20
134.318364622
 30
0.000000000
 10
74.736165229
 20
134.289240841
 30
0.000000000
  0
LINE
  5
C61
330
A02
100
AcDbEntity
  8
View
100
AcDbLine
 10
77.550128051
 20
136.270241333
 30
0.000000000
 11
77.416227905
 21
135.066274370
 31
0.000000000
  0
SPLINE
  5
C62
330
A02
100
AcDbEntity
  8
View
100
AcDbSpline
210
0
220
0
230
1
 70
8
 71
2
 72
6
 73
3
 74
0
 40
0.000000000
 40
0.000000000
 40
0.000000000
 40
1.000000000
 40
1.000000000
 40
1.000000000
 10
77.599127791
 20
136.179654684
 30
0.000000000
 10
77.580529238
 20
136.230753789
 30
0.000000000
 10
77.550128051
 20
136.270241333
 30
0.000000000
  0
LINE
  5
C63
330
A02
100
AcDbEntity
  8
View
100
AcDbLine
 10
77.847460743
 20
135.497365506
 30
0.000000000
 11
77.599127791
 21
136.179654684
 31
0.000000000
  0
SPLINE
  5
C64
330
A02
100
AcDbEntity
  8
View
100
AcDbSpline
210
0
220
0
230
1
 70
8
 71
2
 72
6
 73
3
 74
0
 40
0.000000000
 40
0.000000000
 40
0.000000000
 40
1.000000000
 40
1.000000000
 40
1.000000000
 10
77.834614905
 20
135.241324037
 30
0.000000000
 10
77.893898683
 20
135.366390695
 30
0.000000000
 10
77.847460743
 20
135.497365506
 30
0.000000000
  0
SPLINE
  5
C65
330
A02
100
AcDbEntity
  8
View
100
AcDbSpline
210
0
220
0
230
1
 70
8
 71
2
 72
6
 73
3
 74
0
 40
0.000000000
 40
0.000000000
 40
0.000000000
 40
1.000000000
 40
1.000000000
 40
1.000000000
 10
77.645076284
 20
135.067615501
 30
0.000000000
 10
77.774638643
 20
135.114772343
 30
0.000000000
 10
77.834614905
 20
135.241324037
 30
0.000000000
  0
SPLINE
  5
C66
330
A02
100
AcDbEntity
  8
View
100
AcDbSpline
210
0
220
0
230
1
 70
8
 71
2
 72
6
 73
3
 74
0
 40
0.000000000
 40
0.000000000
 40
0.000000000
 40
1.000000000
 40
1.000000000
 40
1.000000000
 10
77.416227905
 20
135.066274370
 30
0.000000000
 10
77.528579036
 20
135.025213970
 30
0.000000000
 10
77.645076284
 20
135.067615501
 30
0.000000000
  0
LINE
  5
C67
330
A02
100
AcDbEntity
  8
View
100
AcDbLine
 10
76.965839720
 20
135.948005884
 30
0.000000000
 11
77.213987743
 21
135.266224794
 31
0.000000000
  0
SPLINE
  5
C68
330
A02
100
AcDbEntity
  8
View
100
AcDbSpline
210
0
220
0
230
1
 70
8
 71
2
 72
6
 73
3
 74
0
 40
0.000000000
 40
0.000000000
 40
0.000000000
 40
1.000000000
 40
1.000000000
 40
1.000000000
 10
76.977438288
 20
136.204086582
 30
0.000000000
 10
76.918339439
 20
136.078511836
 30
0.000000000
 10
76.965839720
 20
135.948005884
 30
0.000000000
  0
SPLINE
  5
C69
330
A02
100
AcDbEntity
  8
View
100
AcDbSpline
210
0
220
0
230
1
 70
8
 71
2
 72
6
 73
3
 74
0
 40
0.000000000
 40
0.000000000
 40
0.000000000
 40
1.000000000
 40
1.000000000
 40
1.000000000
 10
77.168277016
 20
136.377610722
 30
0.000000000
 10
77.036537138
 20
136.329661328
 30
0.000000000
 10
76.977438288
 20
136.204086582
 30
0.000000000
  0
SPLINE
  5
C6A
330
A02
100
AcDbEntity
  8
View
100
AcDbSpline
210
0
220
0
230
1
 70
8
 71
2
 72
6
 73
3
 74
0
 40
0.000000000
 40
0.000000000
 40
0.000000000
 40
1.000000000
 40
1.000000000
 40
1.000000000
 10
77.376170785
 20
136.385709905
 30
0.000000000
 10
77.272797911
 20
136.415653217
 30
0.000000000
 10
77.168277016
 20
136.377610722
 30
0.000000000
  0
LINE
  5
C6B
330
A02
100
AcDbEntity
  8
View
100
AcDbLine
 10
77.244666716
 20
135.202260715
 30
0.000000000
 11
77.376170785
 21
136.385709905
 31
0.000000000
  0
SPLINE
  5
C6C
330
A02
100
AcDbEntity
  8
View
100
AcDbSpline
210
0
220
0
230
1
 70
8
 71
2
 72
6
 73
3
 74
0
 40
0.000000000
 40
0.000000000
 40
0.000000000
 40
1.000000000
 40
1.000000000
 40
1.000000000
 10
77.213987743
 20
135.266224794
 30
0.000000000
 10
77.226668575
 20
135.231384496
 30
0.000000000
 10
77.244666716
 20
135.202260715
 30
0.000000000
  0
LINE
  5
C6D
330
A02
100
AcDbEntity
  8
View
100
AcDbLine
 10
45.583602642
 20
168.195853819
 30
0.000000000
 11
46.718397418
 21
168.195853819
 31
0.000000000
  0
LINE
  5
C6E
330
A02
100
AcDbEntity
  8
View
100
AcDbLine
 10
45.583602642
 20
170.219734416
 30
0.000000000
 11
45.583602642
 21
168.195853819
 31
0.000000000
  0
LINE
  5
C6F
330
A02
100
AcDbEntity
  8
View
100
AcDbLine
 10
46.718397418
 20
170.219734416
 30
0.000000000
 11
45.583602642
 21
170.219734416
 31
0.000000000
  0
SPLINE
  5
C70
330
A02
100
AcDbEntity
  8
View
100
AcDbSpline
210
0
220
0
230
1
 70
8
 71
2
 72
6
 73
3
 74
0
 40
0.000000000
 40
0.000000000
 40
0.000000000
 40
1.000000000
 40
1.000000000
 40
1.000000000
 10
47.612520552
 20
169.398092625
 30
0.000000000
 10
47.612520552
 20
170.219734416
 30
0.000000000
 10
46.718397418
 20
170.219734416
 30
0.000000000
  0
LINE
  5
C71
330
A02
100
AcDbEntity
  8
View
100
AcDbLine
 10
47.612520552
 20
169.026170983
 30
0.000000000
 11
47.612520552
 21
169.398092625
 31
0.000000000
  0
SPLINE
  5
C72
330
A02
100
AcDbEntity
  8
View
100
AcDbSpline
210
0
220
0
230
1
 70
8
 71
2
 72
6
 73
3
 74
0
 40
0.000000000
 40
0.000000000
 40
0.000000000
 40
1.000000000
 40
1.000000000
 40
1.000000000
 10
46.718397418
 20
168.195853819
 30
0.000000000
 10
47.612520552
 20
168.195853819
 30
0.000000000
 10
47.612520552
 20
169.026170983
 30
0.000000000
  0
SPLINE
  5
C73
330
A02
100
AcDbEntity
  8
View
100
AcDbSpline
210
0
220
0
230
1
 70
8
 71
2
 72
6
 73
3
 74
0
 40
0.000000000
 40
0.000000000
 40
0.000000000
 40
1.000000000
 40
1.000000000
 40
1.000000000
 10
51.635934731
 20
165.634659789
 30
0.000000000
 10
52.151699657
 20
165.634659789
 30
0.000000000
 10
52.456736970
 20
165.948932177
 30
0.000000000
  0
SPLINE
  5
C74
330
A02
100
AcDbEntity
  8
View
100
AcDbSpline
210
0
220
0
230
1
 70
8
 71
2
 72
6
 73
3
 74
0
 40
0.000000000
 40
0.000000000
 40
0.000000000
 40
1.000000000
 40
1.000000000
 40
1.000000000
 10
50.814852642
 20
165.948932177
 30
0.000000000
 10
51.120169806
 20
165.634659789
 30
0.000000000
 10
51.635934731
 20
165.634659789
 30
0.000000000
  0
SPLINE
  5
C75
330
A02
100
AcDbEntity
  8
View
100
AcDbSpline
210
0
220
0
230
1
 70
8
 71
2
 72
6
 73
3
 74
0
 40
0.000000000
 40
0.000000000
 40
0.000000000
 40
1.000000000
 40
1.000000000
 40
1.000000000
 10
50.509815328
 20
166.883633670
 30
0.000000000
 10
50.509815328
 20
166.263484416
 30
0.000000000
 10
50.814852642
 20
165.948932177
 30
0.000000000
  0
LINE
  5
C76
330
A02
100
AcDbEntity
  8
View
100
AcDbLine
 10
50.509815328
 20
167.555835162
 30
0.000000000
 11
50.509815328
 21
166.883633670
 31
0.000000000
  0
SPLINE
  5
C77
330
A02
100
AcDbEntity
  8
View
100
AcDbSpline
210
0
220
0
230
1
 70
8
 71
2
 72
6
 73
3
 74
0
 40
0.000000000
 40
0.000000000
 40
0.000000000
 40
1.000000000
 40
1.000000000
 40
1.000000000
 10
50.814852642
 20
168.490256804
 30
0.000000000
 10
50.509815328
 20
168.175984416
 30
0.000000000
 10
50.509815328
 20
167.555835162
 30
0.000000000
  0
SPLINE
  5
C78
330
A02
100
AcDbEntity
  8
View
100
AcDbSpline
210
0
220
0
230
1
 70
8
 71
2
 72
6
 73
3
 74
0
 40
0.000000000
 40
0.000000000
 40
0.000000000
 40
1.000000000
 40
1.000000000
 40
1.000000000
 10
51.635934731
 20
168.804809043
 30
0.000000000
 10
51.120169806
 20
168.804809043
 30
0.000000000
 10
50.814852642
 20
168.490256804
 30
0.000000000
  0
SPLINE
  5
C79
330
A02
100
AcDbEntity
  8
View
100
AcDbSpline
210
0
220
0
230
1
 70
8
 71
2
 72
6
 73
3
 74
0
 40
0.000000000
 40
0.000000000
 40
0.000000000
 40
1.000000000
 40
1.000000000
 40
1.000000000
 10
52.456736970
 20
168.490256804
 30
0.000000000
 10
52.151699657
 20
168.804809043
 30
0.000000000
 10
51.635934731
 20
168.804809043
 30
0.000000000
  0
SPLINE
  5
C7A
330
A02
100
AcDbEntity
  8
View
100
AcDbSpline
210
0
220
0
230
1
 70
8
 71
2
 72
6
 73
3
 74
0
 40
0.000000000
 40
0.000000000
 40
0.000000000
 40
1.000000000
 40
1.000000000
 40
1.000000000
 10
52.762054134
 20
167.555835162
 30
0.000000000
 10
52.762054134
 20
168.175984416
 30
0.000000000
 10
52.456736970
 20
168.490256804
 30
0.000000000
  0
LINE
  5
C7B
330
A02
100
AcDbEntity
  8
View
100
AcDbLine
 10
52.762054134
 20
166.883633670
 30
0.000000000
 11
52.762054134
 21
167.555835162
 31
0.000000000
  0
SPLINE
  5
C7C
330
A02
100
AcDbEntity
  8
View
100
AcDbSpline
210
0
220
0
230
1
 70
8
 71
2
 72
6
 73
3
 74
0
 40
0.000000000
 40
0.000000000
 40
0.000000000
 40
1.000000000
 40
1.000000000
 40
1.000000000
 10
52.456736970
 20
165.948932177
 30
0.000000000
 10
52.762054134
 20
166.263484416
 30
0.000000000
 10
52.762054134
 20
166.883633670
 30
0.000000000
  0
SPLINE
  5
C7D
330
A02
100
AcDbEntity
  8
View
100
AcDbSpline
210
0
220
0
230
1
 70
8
 71
2
 72
6
 73
3
 74
0
 40
0.000000000
 40
0.000000000
 40
0.000000000
 40
1.000000000
 40
1.000000000
 40
1.000000000
 10
67.136307866
 20
168.822719491
 30
0.000000000
 10
66.886960851
 20
168.822719491
 30
0.000000000
 10
66.676233239
 20
168.736805312
 30
0.000000000
  0
SPLINE
  5
C7E
330
A02
100
AcDbEntity
  8
View
100
AcDbSpline
210
0
220
0
230
1
 70
8
 71
2
 72
6
 73
3
 74
0
 40
0.000000000
 40
0.000000000
 40
0.000000000
 40
1.000000000
 40
1.000000000
 40
1.000000000
 10
67.922968314
 20
168.509286655
 30
0.000000000
 10
67.626326522
 20
168.822719491
 30
0.000000000
 10
67.136307866
 20
168.822719491
 30
0.000000000
  0
SPLINE
  5
C7F
330
A02
100
AcDbEntity
  8
View
100
AcDbSpline
210
0
220
0
230
1
 70
8
 71
2
 72
6
 73
3
 74
0
 40
0.000000000
 40
0.000000000
 40
0.000000000
 40
1.000000000
 40
1.000000000
 40
1.000000000
 10
68.219610105
 20
167.672812774
 30
0.000000000
 10
68.219610105
 20
168.196133670
 30
0.000000000
 10
67.922968314
 20
168.509286655
 30
0.000000000
  0
LINE
  5
C80
330
A02
100
AcDbEntity
  8
View
100
AcDbLine
 10
68.219610105
 20
167.586898595
 30
0.000000000
 11
68.219610105
 21
167.672812774
 31
0.000000000
  0
LINE
  5
C81
330
A02
100
AcDbEntity
  8
View
100
AcDbLine
 10
65.992837716
 20
167.586898595
 30
0.000000000
 11
68.219610105
 21
167.586898595
 31
0.000000000
  0
LINE
  5
C82
330
A02
100
AcDbEntity
  8
View
100
AcDbLine
 10
65.992837716
 20
167.647066506
 30
0.000000000
 11
65.992837716
 21
167.586898595
 31
0.000000000
  0
SPLINE
  5
C83
330
A02
100
AcDbEntity
  8
View
100
AcDbSpline
210
0
220
0
230
1
 70
8
 71
2
 72
6
 73
3
 74
0
 40
0.000000000
 40
0.000000000
 40
0.000000000
 40
1.000000000
 40
1.000000000
 40
1.000000000
 10
66.078751896
 20
168.118894864
 30
0.000000000
 10
65.992837716
 20
167.904529192
 30
0.000000000
 10
65.992837716
 20
167.647066506
 30
0.000000000
  0
SPLINE
  5
C84
330
A02
100
AcDbEntity
  8
View
100
AcDbSpline
210
0
220
0
230
1
 70
8
 71
2
 72
6
 73
3
 74
0
 40
0.000000000
 40
0.000000000
 40
0.000000000
 40
1.000000000
 40
1.000000000
 40
1.000000000
 10
66.315225776
 20
168.492215759
 30
0.000000000
 10
66.164945925
 20
168.333540386
 30
0.000000000
 10
66.078751896
 20
168.118894864
 30
0.000000000
  0
SPLINE
  5
C85
330
A02
100
AcDbEntity
  8
View
100
AcDbSpline
210
0
220
0
230
1
 70
8
 71
2
 72
6
 73
3
 74
0
 40
0.000000000
 40
0.000000000
 40
0.000000000
 40
1.000000000
 40
1.000000000
 40
1.000000000
 10
66.676233239
 20
168.736805312
 30
0.000000000
 10
66.465785478
 20
168.651170983
 30
0.000000000
 10
66.315225776
 20
168.492215759
 30
0.000000000
  0
LINE
  5
C86
330
A02
100
AcDbEntity
  8
View
100
AcDbLine
 10
113.672259358
 20
188.387794118
 30
0.000000000
 11
113.342259358
 21
188.387794118
 31
0.000000000
  0
LINE
  5
C87
330
A02
100
AcDbEntity
  8
View
100
AcDbLine
 10
111.172259358
 20
190.887794118
 30
0.000000000
 11
111.172259358
 21
190.557794118
 31
0.000000000
  0
LINE
  5
C88
330
A02
100
AcDbEntity
  8
View
100
AcDbLine
 10
80.672259358
 20
68.857794118
 30
0.000000000
 11
80.342259358
 21
68.857794118
 31
0.000000000
  0
LINE
  5
C89
330
A02
100
AcDbEntity
  8
View
100
AcDbLine
 10
83.172259358
 20
66.357794118
 30
0.000000000
 11
83.172259358
 21
66.027794118
 31
0.000000000
  0
LINE
  5
C8A
330
A02
100
AcDbEntity
  8
View
100
AcDbLine
 10
107.172259358
 20
66.357794118
 30
0.000000000
 11
107.172259358
 21
66.027794118
 31
0.000000000
  0
LINE
  5
C8B
330
A02
100
AcDbEntity
  8
View
100
AcDbLine
 10
109.672259358
 20
68.857794118
 30
0.000000000
 11
110.002259358
 21
68.857794118
 31
0.000000000
  0
LINE
  5
C8C
330
A02
100
AcDbEntity
  8
View
100
AcDbLine
 10
109.672259358
 20
183.857794118
 30
0.000000000
 11
110.002259358
 21
183.857794118
 31
0.000000000
  0
LINE
  5
C8D
330
A02
100
AcDbEntity
  8
View
100
AcDbLine
 10
107.172259358
 20
186.357794118
 30
0.000000000
 11
107.172259358
 21
186.687794118
 31
0.000000000
  0
LINE
  5
C8E
330
A02
100
AcDbEntity
  8
View
100
AcDbLine
 10
83.172259358
 20
186.357794118
 30
0.000000000
 11
83.172259358
 21
186.687794118
 31
0.000000000
  0
LINE
  5
C8F
330
A02
100
AcDbEntity
  8
View
100
AcDbLine
 10
80.672259358
 20
183.857794118
 30
0.000000000
 11
80.342259358
 21
183.857794118
 31
0.000000000
  0
ENDSEC
  0
SECTION
  2
OBJECTS
  0
DICTIONARY
  5
F000
330
0
100
AcDbDictionary
  3
ACAD_GROUP
350
F001
  0
DICTIONARY
  5
F001
330
F000
100
AcDbDictionary
  0
ENDSEC
  0
EOF